G75*
%MOIN*%
%OFA0B0*%
%FSLAX25Y25*%
%IPPOS*%
%LPD*%
%AMOC8*
5,1,8,0,0,1.08239X$1,22.5*
%
%ADD10C,0.01600*%
%ADD11C,0.00512*%
%ADD12C,0.00400*%
%ADD13C,0.00600*%
D10*
X0026378Y0023933D02*
X0186378Y0023933D01*
X0186378Y0183933D01*
X0066378Y0183933D01*
X0026378Y0143933D01*
X0026378Y0023933D01*
D11*
X0026378Y0001256D01*
X0026634Y0008933D02*
X0036615Y0007909D01*
X0036615Y0007676D02*
X0026634Y0008933D01*
X0036615Y0009957D01*
X0036615Y0010190D02*
X0036615Y0007676D01*
X0036615Y0008421D02*
X0026634Y0008933D01*
X0036615Y0009445D01*
X0036615Y0010190D02*
X0026634Y0008933D01*
X0186123Y0008933D01*
X0176142Y0007909D01*
X0176142Y0007676D02*
X0186123Y0008933D01*
X0176142Y0009957D01*
X0176142Y0010190D02*
X0176142Y0007676D01*
X0176142Y0008421D02*
X0186123Y0008933D01*
X0176142Y0009445D01*
X0176142Y0010190D02*
X0186123Y0008933D01*
X0186378Y0001256D02*
X0186378Y0023933D01*
X0212056Y0023933D01*
X0204378Y0024189D02*
X0205402Y0034169D01*
X0205635Y0034169D02*
X0204378Y0024189D01*
X0203355Y0034169D01*
X0203122Y0034169D02*
X0205635Y0034169D01*
X0204890Y0034169D02*
X0204378Y0024189D01*
X0203867Y0034169D01*
X0203122Y0034169D02*
X0204378Y0024189D01*
X0204378Y0183677D01*
X0205402Y0173697D01*
X0205635Y0173697D02*
X0204378Y0183677D01*
X0203355Y0173697D01*
X0203122Y0173697D02*
X0205635Y0173697D01*
X0204890Y0173697D02*
X0204378Y0183677D01*
X0203867Y0173697D01*
X0203122Y0173697D02*
X0204378Y0183677D01*
X0212056Y0183933D02*
X0186378Y0183933D01*
X0186378Y0207610D01*
X0186123Y0199933D02*
X0176142Y0200957D01*
X0176142Y0201190D02*
X0176142Y0198676D01*
X0186123Y0199933D01*
X0176142Y0198909D01*
X0176142Y0199421D02*
X0186123Y0199933D01*
X0176142Y0200445D01*
X0176142Y0201190D02*
X0186123Y0199933D01*
X0066634Y0199933D01*
X0076615Y0198909D01*
X0076615Y0198676D02*
X0066634Y0199933D01*
X0076615Y0200957D01*
X0076615Y0201190D02*
X0076615Y0198676D01*
X0076615Y0199421D02*
X0066634Y0199933D01*
X0076615Y0200445D01*
X0076615Y0201190D02*
X0066634Y0199933D01*
X0066378Y0207610D02*
X0066378Y0183933D01*
X0051950Y0198362D01*
X0057198Y0192752D02*
X0050864Y0184971D01*
X0051029Y0184806D02*
X0057198Y0192752D01*
X0049417Y0186419D01*
X0049252Y0186584D02*
X0051029Y0184806D01*
X0050502Y0185333D02*
X0057198Y0192752D01*
X0049778Y0186057D01*
X0049252Y0186584D02*
X0057198Y0192752D01*
X0017559Y0153114D01*
X0025340Y0159447D01*
X0025505Y0159282D02*
X0017559Y0153114D01*
X0023893Y0160895D01*
X0023728Y0161060D02*
X0025505Y0159282D01*
X0024978Y0159809D02*
X0017559Y0153114D01*
X0024255Y0160533D01*
X0023728Y0161060D02*
X0017559Y0153114D01*
X0011950Y0158362D02*
X0026378Y0143933D01*
X0002701Y0143933D01*
X0010378Y0143677D02*
X0011402Y0133697D01*
X0011635Y0133697D02*
X0010378Y0143677D01*
X0009355Y0133697D01*
X0009122Y0133697D02*
X0011635Y0133697D01*
X0010890Y0133697D02*
X0010378Y0143677D01*
X0009867Y0133697D01*
X0009122Y0133697D02*
X0010378Y0143677D01*
X0010378Y0024189D01*
X0011402Y0034169D01*
X0011635Y0034169D02*
X0010378Y0024189D01*
X0009355Y0034169D01*
X0009122Y0034169D02*
X0011635Y0034169D01*
X0010890Y0034169D02*
X0010378Y0024189D01*
X0009867Y0034169D01*
X0009122Y0034169D02*
X0010378Y0024189D01*
X0002701Y0023933D02*
X0026378Y0023933D01*
D12*
X0101009Y0014515D02*
X0102743Y0016249D01*
X0102743Y0011045D01*
X0101009Y0011045D02*
X0104478Y0011045D01*
X0106165Y0011045D02*
X0107032Y0011045D01*
X0107032Y0011912D01*
X0106165Y0011912D01*
X0106165Y0011045D01*
X0108743Y0011912D02*
X0108743Y0013647D01*
X0111345Y0013647D01*
X0112213Y0012780D01*
X0112213Y0011912D01*
X0111345Y0011045D01*
X0109611Y0011045D01*
X0108743Y0011912D01*
X0108743Y0013647D02*
X0110478Y0015382D01*
X0112213Y0016249D01*
X0008267Y0078563D02*
X0008267Y0082033D01*
X0008267Y0083720D02*
X0008267Y0084587D01*
X0007399Y0084587D01*
X0007399Y0083720D01*
X0008267Y0083720D01*
X0008267Y0080298D02*
X0003062Y0080298D01*
X0004797Y0078563D01*
X0003930Y0086298D02*
X0003062Y0087165D01*
X0003062Y0088900D01*
X0003930Y0089767D01*
X0004797Y0089767D01*
X0008267Y0086298D01*
X0008267Y0089767D01*
X0029934Y0169702D02*
X0029934Y0174609D01*
X0032388Y0172155D01*
X0032388Y0170929D01*
X0031161Y0169702D01*
X0029934Y0169702D01*
X0027481Y0172155D01*
X0027481Y0173382D01*
X0028707Y0174609D01*
X0029934Y0174609D01*
X0033580Y0173348D02*
X0034194Y0173961D01*
X0034807Y0173348D01*
X0034194Y0172735D01*
X0033580Y0173348D01*
X0035403Y0175171D02*
X0036630Y0175171D01*
X0037857Y0176398D01*
X0037857Y0177625D01*
X0036630Y0178851D01*
X0035403Y0178851D01*
X0034790Y0178238D01*
X0034177Y0176398D01*
X0032337Y0178238D01*
X0034790Y0180691D01*
X0035983Y0181884D02*
X0038436Y0184337D01*
X0039049Y0183724D01*
X0039049Y0178817D01*
X0039663Y0178204D01*
X0121009Y0202045D02*
X0124478Y0202045D01*
X0126165Y0202045D02*
X0127032Y0202045D01*
X0127032Y0202912D01*
X0126165Y0202912D01*
X0126165Y0202045D01*
X0128743Y0202045D02*
X0132213Y0205515D01*
X0132213Y0206382D01*
X0131345Y0207249D01*
X0129611Y0207249D01*
X0128743Y0206382D01*
X0128743Y0202045D02*
X0132213Y0202045D01*
X0122743Y0202045D02*
X0122743Y0207249D01*
X0121009Y0205515D01*
X0197062Y0109767D02*
X0197930Y0108033D01*
X0199664Y0106298D01*
X0199664Y0108900D01*
X0200532Y0109767D01*
X0201399Y0109767D01*
X0202267Y0108900D01*
X0202267Y0107165D01*
X0201399Y0106298D01*
X0199664Y0106298D01*
X0201399Y0104587D02*
X0202267Y0104587D01*
X0202267Y0103720D01*
X0201399Y0103720D01*
X0201399Y0104587D01*
X0202267Y0102033D02*
X0202267Y0098563D01*
X0202267Y0100298D02*
X0197062Y0100298D01*
X0198797Y0098563D01*
D13*
X0222878Y0055639D02*
X0222878Y0049233D01*
X0227149Y0049233D01*
X0229324Y0049233D02*
X0233594Y0049233D01*
X0235769Y0049233D02*
X0238972Y0049233D01*
X0240040Y0050301D01*
X0240040Y0054571D01*
X0238972Y0055639D01*
X0235769Y0055639D01*
X0235769Y0049233D01*
X0231459Y0052436D02*
X0229324Y0052436D01*
X0229324Y0055639D02*
X0229324Y0049233D01*
X0229324Y0043003D02*
X0229324Y0038733D01*
X0229324Y0040868D02*
X0231459Y0043003D01*
X0232527Y0043003D01*
X0234695Y0043003D02*
X0234695Y0038733D01*
X0234695Y0040868D02*
X0236830Y0043003D01*
X0237898Y0043003D01*
X0240066Y0041936D02*
X0240066Y0039801D01*
X0241134Y0038733D01*
X0243269Y0038733D01*
X0244337Y0039801D01*
X0244337Y0041936D01*
X0243269Y0043003D01*
X0241134Y0043003D01*
X0240066Y0041936D01*
X0246512Y0043003D02*
X0246512Y0039801D01*
X0247580Y0038733D01*
X0248647Y0039801D01*
X0249715Y0038733D01*
X0250782Y0039801D01*
X0250782Y0043003D01*
X0252957Y0039801D02*
X0254025Y0039801D01*
X0254025Y0038733D01*
X0252957Y0038733D01*
X0252957Y0039801D01*
X0256180Y0039801D02*
X0257248Y0038733D01*
X0260451Y0038733D01*
X0262626Y0039801D02*
X0262626Y0041936D01*
X0263693Y0043003D01*
X0265828Y0043003D01*
X0266896Y0041936D01*
X0266896Y0039801D01*
X0265828Y0038733D01*
X0263693Y0038733D01*
X0262626Y0039801D01*
X0260451Y0043003D02*
X0257248Y0043003D01*
X0256180Y0041936D01*
X0256180Y0039801D01*
X0258315Y0034639D02*
X0258315Y0028233D01*
X0256180Y0028233D02*
X0260451Y0028233D01*
X0262626Y0029301D02*
X0263693Y0028233D01*
X0265828Y0028233D01*
X0266896Y0029301D01*
X0266896Y0030368D01*
X0265828Y0031436D01*
X0264761Y0031436D01*
X0265828Y0031436D02*
X0266896Y0032503D01*
X0266896Y0033571D01*
X0265828Y0034639D01*
X0263693Y0034639D01*
X0262626Y0033571D01*
X0258315Y0034639D02*
X0256180Y0032503D01*
X0247573Y0028233D02*
X0245438Y0028233D01*
X0246505Y0028233D02*
X0246505Y0034639D01*
X0245438Y0034639D01*
X0242208Y0034639D02*
X0242208Y0035706D01*
X0242208Y0032503D02*
X0242208Y0028233D01*
X0241141Y0028233D02*
X0243276Y0028233D01*
X0242208Y0032503D02*
X0241141Y0032503D01*
X0238972Y0032503D02*
X0237905Y0032503D01*
X0235769Y0030368D01*
X0235769Y0028233D02*
X0235769Y0032503D01*
X0233594Y0031436D02*
X0233594Y0029301D01*
X0232527Y0028233D01*
X0229324Y0028233D01*
X0229324Y0026098D02*
X0229324Y0032503D01*
X0232527Y0032503D01*
X0233594Y0031436D01*
X0227149Y0031436D02*
X0222878Y0031436D01*
X0222878Y0032503D02*
X0222878Y0028233D01*
X0227149Y0028233D02*
X0227149Y0032503D01*
X0225014Y0034639D01*
X0222878Y0032503D01*
X0223946Y0038733D02*
X0222878Y0039801D01*
X0223946Y0040868D01*
X0227149Y0040868D01*
X0227149Y0041936D02*
X0227149Y0038733D01*
X0223946Y0038733D01*
X0227149Y0041936D02*
X0226081Y0043003D01*
X0223946Y0043003D01*
X0229324Y0055639D02*
X0233594Y0055639D01*
X0242215Y0055639D02*
X0242215Y0049233D01*
X0245418Y0049233D01*
X0246485Y0050301D01*
X0246485Y0052436D01*
X0245418Y0053503D01*
X0242215Y0053503D01*
X0248660Y0050301D02*
X0249728Y0051368D01*
X0252931Y0051368D01*
X0252931Y0052436D02*
X0252931Y0049233D01*
X0249728Y0049233D01*
X0248660Y0050301D01*
X0251863Y0053503D02*
X0252931Y0052436D01*
X0251863Y0053503D02*
X0249728Y0053503D01*
X0255106Y0055639D02*
X0256174Y0055639D01*
X0256174Y0049233D01*
X0257241Y0049233D02*
X0255106Y0049233D01*
X0259403Y0049233D02*
X0261538Y0049233D01*
X0260471Y0049233D02*
X0260471Y0055639D01*
X0259403Y0055639D01*
X0263700Y0055639D02*
X0266903Y0055639D01*
X0267970Y0054571D01*
X0267970Y0052436D01*
X0266903Y0051368D01*
X0263700Y0051368D01*
X0263700Y0049233D02*
X0263700Y0055639D01*
X0265835Y0051368D02*
X0267970Y0049233D01*
X0270145Y0050301D02*
X0271213Y0049233D01*
X0273348Y0049233D01*
X0274416Y0050301D01*
X0274416Y0051368D01*
X0273348Y0052436D01*
X0272281Y0052436D01*
X0273348Y0052436D02*
X0274416Y0053503D01*
X0274416Y0054571D01*
X0273348Y0055639D01*
X0271213Y0055639D01*
X0270145Y0054571D01*
X0270139Y0043003D02*
X0271206Y0041936D01*
X0272274Y0043003D01*
X0273342Y0041936D01*
X0273342Y0038733D01*
X0271206Y0038733D02*
X0271206Y0041936D01*
X0270139Y0043003D02*
X0269071Y0043003D01*
X0269071Y0038733D01*
X0279814Y0033571D02*
X0280881Y0034639D01*
X0283016Y0034639D01*
X0284084Y0033571D01*
X0284084Y0032503D01*
X0279814Y0028233D01*
X0284084Y0028233D01*
X0286259Y0029301D02*
X0290530Y0033571D01*
X0290530Y0029301D01*
X0289462Y0028233D01*
X0287327Y0028233D01*
X0286259Y0029301D01*
X0286259Y0033571D01*
X0287327Y0034639D01*
X0289462Y0034639D01*
X0290530Y0033571D01*
X0292705Y0032503D02*
X0294840Y0034639D01*
X0294840Y0028233D01*
X0292705Y0028233D02*
X0296975Y0028233D01*
X0299150Y0029301D02*
X0300218Y0028233D01*
X0302353Y0028233D01*
X0303420Y0029301D01*
X0303420Y0030368D01*
X0302353Y0031436D01*
X0299150Y0031436D01*
X0299150Y0029301D01*
X0299150Y0031436D02*
X0301285Y0033571D01*
X0303420Y0034639D01*
X0271206Y0029301D02*
X0270139Y0029301D01*
X0270139Y0028233D01*
X0271206Y0028233D01*
X0271206Y0029301D01*
X0271206Y0028233D02*
X0269071Y0026098D01*
M02*
