G75*
%MOIN*%
%OFA0B0*%
%FSLAX25Y25*%
%IPPOS*%
%LPD*%
%AMOC8*
5,1,8,0,0,1.08239X$1,22.5*
%
%ADD10C,0.01000*%
%ADD11C,0.01600*%
%ADD12R,0.00900X0.00150*%
%ADD13R,0.01800X0.00150*%
%ADD14R,0.00750X0.00150*%
%ADD15R,0.02850X0.00150*%
%ADD16R,0.02100X0.00150*%
%ADD17R,0.01050X0.00150*%
%ADD18R,0.03000X0.00150*%
%ADD19R,0.02400X0.00150*%
%ADD20R,0.01200X0.00150*%
%ADD21R,0.00150X0.00150*%
%ADD22R,0.01350X0.00150*%
%ADD23R,0.01500X0.00150*%
%ADD24R,0.02700X0.00150*%
%ADD25R,0.00600X0.00150*%
%ADD26R,0.04800X0.00150*%
%ADD27R,0.02550X0.00150*%
%ADD28R,0.02250X0.00150*%
%ADD29R,0.03300X0.00150*%
%ADD30R,0.07350X0.00150*%
%ADD31R,0.03900X0.00150*%
%ADD32R,0.03150X0.00150*%
%ADD33R,0.07800X0.00150*%
%ADD34R,0.04050X0.00150*%
%ADD35R,0.03450X0.00150*%
%ADD36R,0.08100X0.00150*%
%ADD37R,0.01650X0.00150*%
%ADD38R,0.04200X0.00150*%
%ADD39R,0.08250X0.00150*%
%ADD40R,0.03600X0.00150*%
%ADD41R,0.08400X0.00150*%
%ADD42R,0.04350X0.00150*%
%ADD43R,0.03750X0.00150*%
%ADD44R,0.08550X0.00150*%
%ADD45R,0.08700X0.00150*%
%ADD46R,0.04500X0.00150*%
%ADD47R,0.01950X0.00150*%
%ADD48R,0.00300X0.00150*%
%ADD49R,0.05550X0.00150*%
%ADD50R,0.09300X0.00150*%
%ADD51R,0.05700X0.00150*%
%ADD52R,0.05400X0.00150*%
%ADD53R,0.09150X0.00150*%
%ADD54R,0.09000X0.00150*%
%ADD55R,0.05100X0.00150*%
%ADD56C,0.00500*%
%ADD57C,0.00300*%
%ADD58C,0.00400*%
D10*
X0037628Y0103933D02*
X0037649Y0105620D01*
X0037711Y0107306D01*
X0037814Y0108991D01*
X0037959Y0110672D01*
X0038145Y0112349D01*
X0038372Y0114021D01*
X0038640Y0115687D01*
X0038949Y0117345D01*
X0039298Y0118996D01*
X0039688Y0120638D01*
X0040118Y0122270D01*
X0040588Y0123890D01*
X0041098Y0125499D01*
X0041647Y0127094D01*
X0042235Y0128676D01*
X0042861Y0130242D01*
X0043526Y0131793D01*
X0044229Y0133327D01*
X0044969Y0134844D01*
X0045746Y0136342D01*
X0046560Y0137820D01*
X0047409Y0139278D01*
X0048294Y0140714D01*
X0049214Y0142128D01*
X0050169Y0143520D01*
X0051157Y0144887D01*
X0052179Y0146230D01*
X0053234Y0147548D01*
X0054320Y0148839D01*
X0055438Y0150103D01*
X0056586Y0151339D01*
X0057764Y0152547D01*
X0058972Y0153725D01*
X0060208Y0154873D01*
X0061472Y0155991D01*
X0062763Y0157077D01*
X0064081Y0158132D01*
X0065424Y0159154D01*
X0066791Y0160142D01*
X0068183Y0161097D01*
X0069597Y0162017D01*
X0071033Y0162902D01*
X0072491Y0163751D01*
X0073969Y0164565D01*
X0075467Y0165342D01*
X0076984Y0166082D01*
X0078518Y0166785D01*
X0080069Y0167450D01*
X0081635Y0168076D01*
X0083217Y0168664D01*
X0084812Y0169213D01*
X0086421Y0169723D01*
X0088041Y0170193D01*
X0089673Y0170623D01*
X0091315Y0171013D01*
X0092966Y0171362D01*
X0094624Y0171671D01*
X0096290Y0171939D01*
X0097962Y0172166D01*
X0099639Y0172352D01*
X0101320Y0172497D01*
X0103005Y0172600D01*
X0104691Y0172662D01*
X0106378Y0172683D01*
X0108065Y0172662D01*
X0109751Y0172600D01*
X0111436Y0172497D01*
X0113117Y0172352D01*
X0114794Y0172166D01*
X0116466Y0171939D01*
X0118132Y0171671D01*
X0119790Y0171362D01*
X0121441Y0171013D01*
X0123083Y0170623D01*
X0124715Y0170193D01*
X0126335Y0169723D01*
X0127944Y0169213D01*
X0129539Y0168664D01*
X0131121Y0168076D01*
X0132687Y0167450D01*
X0134238Y0166785D01*
X0135772Y0166082D01*
X0137289Y0165342D01*
X0138787Y0164565D01*
X0140265Y0163751D01*
X0141723Y0162902D01*
X0143159Y0162017D01*
X0144573Y0161097D01*
X0145965Y0160142D01*
X0147332Y0159154D01*
X0148675Y0158132D01*
X0149993Y0157077D01*
X0151284Y0155991D01*
X0152548Y0154873D01*
X0153784Y0153725D01*
X0154992Y0152547D01*
X0156170Y0151339D01*
X0157318Y0150103D01*
X0158436Y0148839D01*
X0159522Y0147548D01*
X0160577Y0146230D01*
X0161599Y0144887D01*
X0162587Y0143520D01*
X0163542Y0142128D01*
X0164462Y0140714D01*
X0165347Y0139278D01*
X0166196Y0137820D01*
X0167010Y0136342D01*
X0167787Y0134844D01*
X0168527Y0133327D01*
X0169230Y0131793D01*
X0169895Y0130242D01*
X0170521Y0128676D01*
X0171109Y0127094D01*
X0171658Y0125499D01*
X0172168Y0123890D01*
X0172638Y0122270D01*
X0173068Y0120638D01*
X0173458Y0118996D01*
X0173807Y0117345D01*
X0174116Y0115687D01*
X0174384Y0114021D01*
X0174611Y0112349D01*
X0174797Y0110672D01*
X0174942Y0108991D01*
X0175045Y0107306D01*
X0175107Y0105620D01*
X0175128Y0103933D01*
X0175107Y0102246D01*
X0175045Y0100560D01*
X0174942Y0098875D01*
X0174797Y0097194D01*
X0174611Y0095517D01*
X0174384Y0093845D01*
X0174116Y0092179D01*
X0173807Y0090521D01*
X0173458Y0088870D01*
X0173068Y0087228D01*
X0172638Y0085596D01*
X0172168Y0083976D01*
X0171658Y0082367D01*
X0171109Y0080772D01*
X0170521Y0079190D01*
X0169895Y0077624D01*
X0169230Y0076073D01*
X0168527Y0074539D01*
X0167787Y0073022D01*
X0167010Y0071524D01*
X0166196Y0070046D01*
X0165347Y0068588D01*
X0164462Y0067152D01*
X0163542Y0065738D01*
X0162587Y0064346D01*
X0161599Y0062979D01*
X0160577Y0061636D01*
X0159522Y0060318D01*
X0158436Y0059027D01*
X0157318Y0057763D01*
X0156170Y0056527D01*
X0154992Y0055319D01*
X0153784Y0054141D01*
X0152548Y0052993D01*
X0151284Y0051875D01*
X0149993Y0050789D01*
X0148675Y0049734D01*
X0147332Y0048712D01*
X0145965Y0047724D01*
X0144573Y0046769D01*
X0143159Y0045849D01*
X0141723Y0044964D01*
X0140265Y0044115D01*
X0138787Y0043301D01*
X0137289Y0042524D01*
X0135772Y0041784D01*
X0134238Y0041081D01*
X0132687Y0040416D01*
X0131121Y0039790D01*
X0129539Y0039202D01*
X0127944Y0038653D01*
X0126335Y0038143D01*
X0124715Y0037673D01*
X0123083Y0037243D01*
X0121441Y0036853D01*
X0119790Y0036504D01*
X0118132Y0036195D01*
X0116466Y0035927D01*
X0114794Y0035700D01*
X0113117Y0035514D01*
X0111436Y0035369D01*
X0109751Y0035266D01*
X0108065Y0035204D01*
X0106378Y0035183D01*
X0104691Y0035204D01*
X0103005Y0035266D01*
X0101320Y0035369D01*
X0099639Y0035514D01*
X0097962Y0035700D01*
X0096290Y0035927D01*
X0094624Y0036195D01*
X0092966Y0036504D01*
X0091315Y0036853D01*
X0089673Y0037243D01*
X0088041Y0037673D01*
X0086421Y0038143D01*
X0084812Y0038653D01*
X0083217Y0039202D01*
X0081635Y0039790D01*
X0080069Y0040416D01*
X0078518Y0041081D01*
X0076984Y0041784D01*
X0075467Y0042524D01*
X0073969Y0043301D01*
X0072491Y0044115D01*
X0071033Y0044964D01*
X0069597Y0045849D01*
X0068183Y0046769D01*
X0066791Y0047724D01*
X0065424Y0048712D01*
X0064081Y0049734D01*
X0062763Y0050789D01*
X0061472Y0051875D01*
X0060208Y0052993D01*
X0058972Y0054141D01*
X0057764Y0055319D01*
X0056586Y0056527D01*
X0055438Y0057763D01*
X0054320Y0059027D01*
X0053234Y0060318D01*
X0052179Y0061636D01*
X0051157Y0062979D01*
X0050169Y0064346D01*
X0049214Y0065738D01*
X0048294Y0067152D01*
X0047409Y0068588D01*
X0046560Y0070046D01*
X0045746Y0071524D01*
X0044969Y0073022D01*
X0044229Y0074539D01*
X0043526Y0076073D01*
X0042861Y0077624D01*
X0042235Y0079190D01*
X0041647Y0080772D01*
X0041098Y0082367D01*
X0040588Y0083976D01*
X0040118Y0085596D01*
X0039688Y0087228D01*
X0039298Y0088870D01*
X0038949Y0090521D01*
X0038640Y0092179D01*
X0038372Y0093845D01*
X0038145Y0095517D01*
X0037959Y0097194D01*
X0037814Y0098875D01*
X0037711Y0100560D01*
X0037649Y0102246D01*
X0037628Y0103933D01*
D11*
X0033878Y0043933D02*
X0033882Y0044240D01*
X0033893Y0044546D01*
X0033912Y0044853D01*
X0033938Y0045158D01*
X0033972Y0045463D01*
X0034013Y0045767D01*
X0034062Y0046070D01*
X0034118Y0046372D01*
X0034182Y0046672D01*
X0034253Y0046970D01*
X0034331Y0047267D01*
X0034416Y0047562D01*
X0034509Y0047854D01*
X0034609Y0048144D01*
X0034716Y0048432D01*
X0034830Y0048717D01*
X0034950Y0048999D01*
X0035078Y0049277D01*
X0035213Y0049553D01*
X0035354Y0049825D01*
X0035502Y0050094D01*
X0035656Y0050359D01*
X0035817Y0050620D01*
X0035985Y0050878D01*
X0036158Y0051131D01*
X0036338Y0051379D01*
X0036524Y0051623D01*
X0036715Y0051863D01*
X0036913Y0052098D01*
X0037116Y0052327D01*
X0037325Y0052552D01*
X0037539Y0052772D01*
X0037759Y0052986D01*
X0037984Y0053195D01*
X0038213Y0053398D01*
X0038448Y0053596D01*
X0038688Y0053787D01*
X0038932Y0053973D01*
X0039180Y0054153D01*
X0039433Y0054326D01*
X0039691Y0054494D01*
X0039952Y0054655D01*
X0040217Y0054809D01*
X0040486Y0054957D01*
X0040758Y0055098D01*
X0041034Y0055233D01*
X0041312Y0055361D01*
X0041594Y0055481D01*
X0041879Y0055595D01*
X0042167Y0055702D01*
X0042457Y0055802D01*
X0042749Y0055895D01*
X0043044Y0055980D01*
X0043341Y0056058D01*
X0043639Y0056129D01*
X0043939Y0056193D01*
X0044241Y0056249D01*
X0044544Y0056298D01*
X0044848Y0056339D01*
X0045153Y0056373D01*
X0045458Y0056399D01*
X0045765Y0056418D01*
X0046071Y0056429D01*
X0046378Y0056433D01*
X0046685Y0056429D01*
X0046991Y0056418D01*
X0047298Y0056399D01*
X0047603Y0056373D01*
X0047908Y0056339D01*
X0048212Y0056298D01*
X0048515Y0056249D01*
X0048817Y0056193D01*
X0049117Y0056129D01*
X0049415Y0056058D01*
X0049712Y0055980D01*
X0050007Y0055895D01*
X0050299Y0055802D01*
X0050589Y0055702D01*
X0050877Y0055595D01*
X0051162Y0055481D01*
X0051444Y0055361D01*
X0051722Y0055233D01*
X0051998Y0055098D01*
X0052270Y0054957D01*
X0052539Y0054809D01*
X0052804Y0054655D01*
X0053065Y0054494D01*
X0053323Y0054326D01*
X0053576Y0054153D01*
X0053824Y0053973D01*
X0054068Y0053787D01*
X0054308Y0053596D01*
X0054543Y0053398D01*
X0054772Y0053195D01*
X0054997Y0052986D01*
X0055217Y0052772D01*
X0055431Y0052552D01*
X0055640Y0052327D01*
X0055843Y0052098D01*
X0056041Y0051863D01*
X0056232Y0051623D01*
X0056418Y0051379D01*
X0056598Y0051131D01*
X0056771Y0050878D01*
X0056939Y0050620D01*
X0057100Y0050359D01*
X0057254Y0050094D01*
X0057402Y0049825D01*
X0057543Y0049553D01*
X0057678Y0049277D01*
X0057806Y0048999D01*
X0057926Y0048717D01*
X0058040Y0048432D01*
X0058147Y0048144D01*
X0058247Y0047854D01*
X0058340Y0047562D01*
X0058425Y0047267D01*
X0058503Y0046970D01*
X0058574Y0046672D01*
X0058638Y0046372D01*
X0058694Y0046070D01*
X0058743Y0045767D01*
X0058784Y0045463D01*
X0058818Y0045158D01*
X0058844Y0044853D01*
X0058863Y0044546D01*
X0058874Y0044240D01*
X0058878Y0043933D01*
X0058874Y0043626D01*
X0058863Y0043320D01*
X0058844Y0043013D01*
X0058818Y0042708D01*
X0058784Y0042403D01*
X0058743Y0042099D01*
X0058694Y0041796D01*
X0058638Y0041494D01*
X0058574Y0041194D01*
X0058503Y0040896D01*
X0058425Y0040599D01*
X0058340Y0040304D01*
X0058247Y0040012D01*
X0058147Y0039722D01*
X0058040Y0039434D01*
X0057926Y0039149D01*
X0057806Y0038867D01*
X0057678Y0038589D01*
X0057543Y0038313D01*
X0057402Y0038041D01*
X0057254Y0037772D01*
X0057100Y0037507D01*
X0056939Y0037246D01*
X0056771Y0036988D01*
X0056598Y0036735D01*
X0056418Y0036487D01*
X0056232Y0036243D01*
X0056041Y0036003D01*
X0055843Y0035768D01*
X0055640Y0035539D01*
X0055431Y0035314D01*
X0055217Y0035094D01*
X0054997Y0034880D01*
X0054772Y0034671D01*
X0054543Y0034468D01*
X0054308Y0034270D01*
X0054068Y0034079D01*
X0053824Y0033893D01*
X0053576Y0033713D01*
X0053323Y0033540D01*
X0053065Y0033372D01*
X0052804Y0033211D01*
X0052539Y0033057D01*
X0052270Y0032909D01*
X0051998Y0032768D01*
X0051722Y0032633D01*
X0051444Y0032505D01*
X0051162Y0032385D01*
X0050877Y0032271D01*
X0050589Y0032164D01*
X0050299Y0032064D01*
X0050007Y0031971D01*
X0049712Y0031886D01*
X0049415Y0031808D01*
X0049117Y0031737D01*
X0048817Y0031673D01*
X0048515Y0031617D01*
X0048212Y0031568D01*
X0047908Y0031527D01*
X0047603Y0031493D01*
X0047298Y0031467D01*
X0046991Y0031448D01*
X0046685Y0031437D01*
X0046378Y0031433D01*
X0046071Y0031437D01*
X0045765Y0031448D01*
X0045458Y0031467D01*
X0045153Y0031493D01*
X0044848Y0031527D01*
X0044544Y0031568D01*
X0044241Y0031617D01*
X0043939Y0031673D01*
X0043639Y0031737D01*
X0043341Y0031808D01*
X0043044Y0031886D01*
X0042749Y0031971D01*
X0042457Y0032064D01*
X0042167Y0032164D01*
X0041879Y0032271D01*
X0041594Y0032385D01*
X0041312Y0032505D01*
X0041034Y0032633D01*
X0040758Y0032768D01*
X0040486Y0032909D01*
X0040217Y0033057D01*
X0039952Y0033211D01*
X0039691Y0033372D01*
X0039433Y0033540D01*
X0039180Y0033713D01*
X0038932Y0033893D01*
X0038688Y0034079D01*
X0038448Y0034270D01*
X0038213Y0034468D01*
X0037984Y0034671D01*
X0037759Y0034880D01*
X0037539Y0035094D01*
X0037325Y0035314D01*
X0037116Y0035539D01*
X0036913Y0035768D01*
X0036715Y0036003D01*
X0036524Y0036243D01*
X0036338Y0036487D01*
X0036158Y0036735D01*
X0035985Y0036988D01*
X0035817Y0037246D01*
X0035656Y0037507D01*
X0035502Y0037772D01*
X0035354Y0038041D01*
X0035213Y0038313D01*
X0035078Y0038589D01*
X0034950Y0038867D01*
X0034830Y0039149D01*
X0034716Y0039434D01*
X0034609Y0039722D01*
X0034509Y0040012D01*
X0034416Y0040304D01*
X0034331Y0040599D01*
X0034253Y0040896D01*
X0034182Y0041194D01*
X0034118Y0041494D01*
X0034062Y0041796D01*
X0034013Y0042099D01*
X0033972Y0042403D01*
X0033938Y0042708D01*
X0033912Y0043013D01*
X0033893Y0043320D01*
X0033882Y0043626D01*
X0033878Y0043933D01*
X0153878Y0163933D02*
X0153882Y0164240D01*
X0153893Y0164546D01*
X0153912Y0164853D01*
X0153938Y0165158D01*
X0153972Y0165463D01*
X0154013Y0165767D01*
X0154062Y0166070D01*
X0154118Y0166372D01*
X0154182Y0166672D01*
X0154253Y0166970D01*
X0154331Y0167267D01*
X0154416Y0167562D01*
X0154509Y0167854D01*
X0154609Y0168144D01*
X0154716Y0168432D01*
X0154830Y0168717D01*
X0154950Y0168999D01*
X0155078Y0169277D01*
X0155213Y0169553D01*
X0155354Y0169825D01*
X0155502Y0170094D01*
X0155656Y0170359D01*
X0155817Y0170620D01*
X0155985Y0170878D01*
X0156158Y0171131D01*
X0156338Y0171379D01*
X0156524Y0171623D01*
X0156715Y0171863D01*
X0156913Y0172098D01*
X0157116Y0172327D01*
X0157325Y0172552D01*
X0157539Y0172772D01*
X0157759Y0172986D01*
X0157984Y0173195D01*
X0158213Y0173398D01*
X0158448Y0173596D01*
X0158688Y0173787D01*
X0158932Y0173973D01*
X0159180Y0174153D01*
X0159433Y0174326D01*
X0159691Y0174494D01*
X0159952Y0174655D01*
X0160217Y0174809D01*
X0160486Y0174957D01*
X0160758Y0175098D01*
X0161034Y0175233D01*
X0161312Y0175361D01*
X0161594Y0175481D01*
X0161879Y0175595D01*
X0162167Y0175702D01*
X0162457Y0175802D01*
X0162749Y0175895D01*
X0163044Y0175980D01*
X0163341Y0176058D01*
X0163639Y0176129D01*
X0163939Y0176193D01*
X0164241Y0176249D01*
X0164544Y0176298D01*
X0164848Y0176339D01*
X0165153Y0176373D01*
X0165458Y0176399D01*
X0165765Y0176418D01*
X0166071Y0176429D01*
X0166378Y0176433D01*
X0166685Y0176429D01*
X0166991Y0176418D01*
X0167298Y0176399D01*
X0167603Y0176373D01*
X0167908Y0176339D01*
X0168212Y0176298D01*
X0168515Y0176249D01*
X0168817Y0176193D01*
X0169117Y0176129D01*
X0169415Y0176058D01*
X0169712Y0175980D01*
X0170007Y0175895D01*
X0170299Y0175802D01*
X0170589Y0175702D01*
X0170877Y0175595D01*
X0171162Y0175481D01*
X0171444Y0175361D01*
X0171722Y0175233D01*
X0171998Y0175098D01*
X0172270Y0174957D01*
X0172539Y0174809D01*
X0172804Y0174655D01*
X0173065Y0174494D01*
X0173323Y0174326D01*
X0173576Y0174153D01*
X0173824Y0173973D01*
X0174068Y0173787D01*
X0174308Y0173596D01*
X0174543Y0173398D01*
X0174772Y0173195D01*
X0174997Y0172986D01*
X0175217Y0172772D01*
X0175431Y0172552D01*
X0175640Y0172327D01*
X0175843Y0172098D01*
X0176041Y0171863D01*
X0176232Y0171623D01*
X0176418Y0171379D01*
X0176598Y0171131D01*
X0176771Y0170878D01*
X0176939Y0170620D01*
X0177100Y0170359D01*
X0177254Y0170094D01*
X0177402Y0169825D01*
X0177543Y0169553D01*
X0177678Y0169277D01*
X0177806Y0168999D01*
X0177926Y0168717D01*
X0178040Y0168432D01*
X0178147Y0168144D01*
X0178247Y0167854D01*
X0178340Y0167562D01*
X0178425Y0167267D01*
X0178503Y0166970D01*
X0178574Y0166672D01*
X0178638Y0166372D01*
X0178694Y0166070D01*
X0178743Y0165767D01*
X0178784Y0165463D01*
X0178818Y0165158D01*
X0178844Y0164853D01*
X0178863Y0164546D01*
X0178874Y0164240D01*
X0178878Y0163933D01*
X0178874Y0163626D01*
X0178863Y0163320D01*
X0178844Y0163013D01*
X0178818Y0162708D01*
X0178784Y0162403D01*
X0178743Y0162099D01*
X0178694Y0161796D01*
X0178638Y0161494D01*
X0178574Y0161194D01*
X0178503Y0160896D01*
X0178425Y0160599D01*
X0178340Y0160304D01*
X0178247Y0160012D01*
X0178147Y0159722D01*
X0178040Y0159434D01*
X0177926Y0159149D01*
X0177806Y0158867D01*
X0177678Y0158589D01*
X0177543Y0158313D01*
X0177402Y0158041D01*
X0177254Y0157772D01*
X0177100Y0157507D01*
X0176939Y0157246D01*
X0176771Y0156988D01*
X0176598Y0156735D01*
X0176418Y0156487D01*
X0176232Y0156243D01*
X0176041Y0156003D01*
X0175843Y0155768D01*
X0175640Y0155539D01*
X0175431Y0155314D01*
X0175217Y0155094D01*
X0174997Y0154880D01*
X0174772Y0154671D01*
X0174543Y0154468D01*
X0174308Y0154270D01*
X0174068Y0154079D01*
X0173824Y0153893D01*
X0173576Y0153713D01*
X0173323Y0153540D01*
X0173065Y0153372D01*
X0172804Y0153211D01*
X0172539Y0153057D01*
X0172270Y0152909D01*
X0171998Y0152768D01*
X0171722Y0152633D01*
X0171444Y0152505D01*
X0171162Y0152385D01*
X0170877Y0152271D01*
X0170589Y0152164D01*
X0170299Y0152064D01*
X0170007Y0151971D01*
X0169712Y0151886D01*
X0169415Y0151808D01*
X0169117Y0151737D01*
X0168817Y0151673D01*
X0168515Y0151617D01*
X0168212Y0151568D01*
X0167908Y0151527D01*
X0167603Y0151493D01*
X0167298Y0151467D01*
X0166991Y0151448D01*
X0166685Y0151437D01*
X0166378Y0151433D01*
X0166071Y0151437D01*
X0165765Y0151448D01*
X0165458Y0151467D01*
X0165153Y0151493D01*
X0164848Y0151527D01*
X0164544Y0151568D01*
X0164241Y0151617D01*
X0163939Y0151673D01*
X0163639Y0151737D01*
X0163341Y0151808D01*
X0163044Y0151886D01*
X0162749Y0151971D01*
X0162457Y0152064D01*
X0162167Y0152164D01*
X0161879Y0152271D01*
X0161594Y0152385D01*
X0161312Y0152505D01*
X0161034Y0152633D01*
X0160758Y0152768D01*
X0160486Y0152909D01*
X0160217Y0153057D01*
X0159952Y0153211D01*
X0159691Y0153372D01*
X0159433Y0153540D01*
X0159180Y0153713D01*
X0158932Y0153893D01*
X0158688Y0154079D01*
X0158448Y0154270D01*
X0158213Y0154468D01*
X0157984Y0154671D01*
X0157759Y0154880D01*
X0157539Y0155094D01*
X0157325Y0155314D01*
X0157116Y0155539D01*
X0156913Y0155768D01*
X0156715Y0156003D01*
X0156524Y0156243D01*
X0156338Y0156487D01*
X0156158Y0156735D01*
X0155985Y0156988D01*
X0155817Y0157246D01*
X0155656Y0157507D01*
X0155502Y0157772D01*
X0155354Y0158041D01*
X0155213Y0158313D01*
X0155078Y0158589D01*
X0154950Y0158867D01*
X0154830Y0159149D01*
X0154716Y0159434D01*
X0154609Y0159722D01*
X0154509Y0160012D01*
X0154416Y0160304D01*
X0154331Y0160599D01*
X0154253Y0160896D01*
X0154182Y0161194D01*
X0154118Y0161494D01*
X0154062Y0161796D01*
X0154013Y0162099D01*
X0153972Y0162403D01*
X0153938Y0162708D01*
X0153912Y0163013D01*
X0153893Y0163320D01*
X0153882Y0163626D01*
X0153878Y0163933D01*
D12*
X0170003Y0039683D03*
X0170603Y0029333D03*
X0169703Y0028583D03*
X0169553Y0028433D03*
X0169553Y0028133D03*
X0169403Y0027983D03*
X0169403Y0027833D03*
X0169403Y0027683D03*
X0169403Y0027533D03*
X0169403Y0027383D03*
X0169403Y0027233D03*
X0169403Y0027083D03*
X0169553Y0026933D03*
X0169553Y0026783D03*
X0169703Y0026633D03*
X0170603Y0025883D03*
X0171653Y0026783D03*
X0171653Y0026933D03*
X0171803Y0027083D03*
X0171803Y0027233D03*
X0171803Y0027383D03*
X0171803Y0027533D03*
X0171803Y0027683D03*
X0171803Y0027833D03*
X0171803Y0027983D03*
X0171653Y0028283D03*
X0171653Y0028433D03*
X0173303Y0028283D03*
X0173303Y0028133D03*
X0173303Y0027983D03*
X0173303Y0027833D03*
X0173303Y0027683D03*
X0173303Y0027533D03*
X0173303Y0027383D03*
X0173303Y0027233D03*
X0173303Y0027083D03*
X0173303Y0026933D03*
X0173303Y0026783D03*
X0173303Y0026633D03*
X0173303Y0026483D03*
X0173303Y0026333D03*
X0173303Y0026183D03*
X0173303Y0026033D03*
X0175403Y0026033D03*
X0175403Y0026183D03*
X0175403Y0026333D03*
X0175403Y0026483D03*
X0175403Y0026633D03*
X0175403Y0026783D03*
X0175403Y0026933D03*
X0175403Y0027083D03*
X0175403Y0027233D03*
X0175403Y0027383D03*
X0175403Y0027533D03*
X0175403Y0027683D03*
X0175403Y0027833D03*
X0175403Y0027983D03*
X0175403Y0028133D03*
X0175403Y0028283D03*
X0176753Y0029333D03*
X0177353Y0028433D03*
X0177353Y0028283D03*
X0177353Y0028133D03*
X0177353Y0027983D03*
X0177353Y0027833D03*
X0177353Y0027683D03*
X0177353Y0027533D03*
X0177353Y0027383D03*
X0177353Y0027233D03*
X0177353Y0027083D03*
X0177353Y0026933D03*
X0177353Y0026783D03*
X0177353Y0026633D03*
X0177353Y0026483D03*
X0177353Y0026333D03*
X0177353Y0026183D03*
X0177353Y0026033D03*
X0173303Y0029033D03*
X0173303Y0029183D03*
X0168053Y0028433D03*
X0168053Y0028283D03*
X0167903Y0028583D03*
X0168053Y0026933D03*
X0168053Y0026783D03*
X0167903Y0026633D03*
X0167003Y0025883D03*
X0165953Y0026783D03*
X0165953Y0026933D03*
X0165803Y0027083D03*
X0165803Y0027233D03*
X0165803Y0027383D03*
X0165803Y0027533D03*
X0165803Y0027683D03*
X0165803Y0027833D03*
X0165803Y0027983D03*
X0165953Y0028133D03*
X0165953Y0028283D03*
X0165953Y0028433D03*
X0164303Y0026633D03*
X0164303Y0026333D03*
X0164303Y0026033D03*
X0162353Y0027383D03*
X0162503Y0027683D03*
X0162503Y0027983D03*
X0162653Y0028133D03*
X0162653Y0028433D03*
X0162653Y0028583D03*
X0162803Y0028733D03*
X0162803Y0028883D03*
X0162803Y0029033D03*
X0160853Y0028883D03*
X0160853Y0029183D03*
X0159053Y0028433D03*
X0159053Y0028133D03*
X0159203Y0027983D03*
X0159203Y0027833D03*
X0159353Y0027383D03*
X0159353Y0027233D03*
X0159803Y0026033D03*
X0161903Y0026033D03*
X0158903Y0028733D03*
X0158903Y0028883D03*
X0158903Y0029033D03*
X0157403Y0028433D03*
X0157403Y0028283D03*
X0157553Y0027983D03*
X0157553Y0027833D03*
X0157553Y0027683D03*
X0157553Y0027533D03*
X0157553Y0027383D03*
X0157553Y0027233D03*
X0157553Y0027083D03*
X0157403Y0026933D03*
X0157403Y0026783D03*
X0156353Y0025883D03*
X0155303Y0026783D03*
X0155303Y0026933D03*
X0155153Y0027083D03*
X0155153Y0027233D03*
X0155153Y0027383D03*
X0155153Y0027533D03*
X0155153Y0027683D03*
X0155153Y0027833D03*
X0155153Y0027983D03*
X0155303Y0028133D03*
X0155303Y0028433D03*
X0156353Y0029333D03*
X0153953Y0029183D03*
X0152753Y0029183D03*
X0152753Y0029033D03*
X0152753Y0027983D03*
X0152753Y0027833D03*
X0152753Y0027683D03*
X0152753Y0027533D03*
X0152753Y0027383D03*
X0152753Y0027233D03*
X0152753Y0027083D03*
X0152753Y0026933D03*
X0152753Y0026783D03*
X0152753Y0026633D03*
X0152753Y0026483D03*
X0152753Y0026333D03*
X0152753Y0026183D03*
X0152753Y0026033D03*
X0150353Y0026033D03*
X0150353Y0026183D03*
X0150353Y0026333D03*
X0150353Y0026483D03*
X0150353Y0026633D03*
X0150353Y0026783D03*
X0150353Y0026933D03*
X0150353Y0027083D03*
X0150353Y0027233D03*
X0150353Y0027383D03*
X0150353Y0027533D03*
X0150353Y0027683D03*
X0150353Y0027833D03*
X0150353Y0027983D03*
X0150353Y0029033D03*
X0150353Y0029183D03*
X0151553Y0029183D03*
X0148853Y0028583D03*
X0148853Y0028433D03*
X0148853Y0028283D03*
X0148853Y0027533D03*
X0148853Y0027383D03*
X0148853Y0027233D03*
X0148853Y0027083D03*
X0148853Y0026933D03*
X0147353Y0025883D03*
X0146603Y0026633D03*
X0146603Y0026783D03*
X0146603Y0026933D03*
X0146603Y0027083D03*
X0146753Y0027233D03*
X0146753Y0028433D03*
X0146753Y0028583D03*
D13*
X0147353Y0027533D03*
X0147353Y0026033D03*
X0156353Y0026033D03*
X0156353Y0029183D03*
X0154703Y0034433D03*
X0154553Y0034583D03*
X0154403Y0034883D03*
X0154253Y0035183D03*
X0154103Y0035483D03*
X0153953Y0035633D03*
X0153953Y0035783D03*
X0153803Y0035933D03*
X0153803Y0036083D03*
X0153653Y0036233D03*
X0153503Y0036533D03*
X0153353Y0036833D03*
X0153203Y0036983D03*
X0153203Y0037133D03*
X0153053Y0037283D03*
X0153053Y0037433D03*
X0157103Y0040583D03*
X0161153Y0037583D03*
X0161153Y0037433D03*
X0161303Y0037283D03*
X0161303Y0037133D03*
X0161453Y0036983D03*
X0161603Y0036683D03*
X0161603Y0036533D03*
X0161753Y0036383D03*
X0161903Y0036083D03*
X0162053Y0035783D03*
X0162203Y0035633D03*
X0162203Y0035483D03*
X0162353Y0035333D03*
X0162353Y0035183D03*
X0162503Y0035033D03*
X0162503Y0034883D03*
X0162653Y0034733D03*
X0165203Y0040583D03*
X0169853Y0034433D03*
X0173903Y0035333D03*
X0174203Y0034433D03*
X0173603Y0036833D03*
X0173153Y0039083D03*
X0176903Y0038633D03*
X0176753Y0037883D03*
X0177053Y0039383D03*
X0179903Y0036683D03*
X0180053Y0035933D03*
X0180353Y0034433D03*
X0182303Y0034433D03*
X0182453Y0034883D03*
X0183203Y0038783D03*
X0176753Y0029033D03*
X0174803Y0029033D03*
X0170603Y0029183D03*
X0170603Y0026033D03*
X0167003Y0026033D03*
X0167003Y0029183D03*
X0146153Y0034433D03*
X0145703Y0036083D03*
X0145553Y0036833D03*
X0141953Y0040133D03*
X0142103Y0040583D03*
D14*
X0140378Y0032783D03*
X0148928Y0026033D03*
X0157478Y0028133D03*
X0159128Y0028283D03*
X0159278Y0027683D03*
X0159278Y0027533D03*
X0160328Y0027533D03*
X0160328Y0027383D03*
X0160328Y0027233D03*
X0161378Y0027233D03*
X0161378Y0027383D03*
X0161378Y0027533D03*
X0161228Y0027983D03*
X0162428Y0027833D03*
X0162428Y0027533D03*
X0162278Y0027233D03*
X0162578Y0028283D03*
X0168128Y0027083D03*
X0171728Y0028133D03*
X0165128Y0035333D03*
X0183728Y0042233D03*
D15*
X0178178Y0041783D03*
X0175028Y0033083D03*
X0181328Y0033083D03*
X0147878Y0026183D03*
X0143378Y0042083D03*
D16*
X0148253Y0027833D03*
X0150953Y0028733D03*
X0150953Y0028883D03*
X0153353Y0028883D03*
X0153353Y0028733D03*
X0156353Y0029033D03*
X0156353Y0026183D03*
X0167003Y0026183D03*
X0170603Y0026183D03*
X0170603Y0029033D03*
D17*
X0171578Y0028583D03*
X0173378Y0028433D03*
X0175478Y0028433D03*
X0177278Y0028583D03*
X0171578Y0026633D03*
X0169778Y0026483D03*
X0169478Y0028283D03*
X0167828Y0028733D03*
X0166928Y0029333D03*
X0166028Y0028583D03*
X0166028Y0026633D03*
X0166178Y0026483D03*
X0164228Y0026483D03*
X0164228Y0026183D03*
X0164228Y0026783D03*
X0161828Y0026183D03*
X0159878Y0026183D03*
X0158978Y0028583D03*
X0158828Y0029183D03*
X0157328Y0028583D03*
X0155378Y0028583D03*
X0155228Y0028283D03*
X0153878Y0029033D03*
X0152828Y0028283D03*
X0152828Y0028133D03*
X0151478Y0029033D03*
X0150428Y0028283D03*
X0150428Y0028133D03*
X0148778Y0028133D03*
X0148778Y0028733D03*
X0146978Y0028733D03*
X0148778Y0026783D03*
X0155378Y0026633D03*
X0155528Y0026483D03*
X0157328Y0026633D03*
X0160928Y0029033D03*
X0162878Y0029183D03*
X0140378Y0032933D03*
X0183728Y0042083D03*
D18*
X0178253Y0041633D03*
X0175103Y0033233D03*
X0147803Y0026333D03*
D19*
X0156353Y0026333D03*
X0156353Y0028883D03*
X0167003Y0028883D03*
X0167003Y0026333D03*
X0170603Y0026333D03*
X0170603Y0028883D03*
X0175103Y0032933D03*
X0181403Y0032933D03*
D20*
X0175403Y0028583D03*
X0174803Y0029183D03*
X0173453Y0028583D03*
X0171353Y0026483D03*
X0169853Y0028733D03*
X0167753Y0026483D03*
X0166253Y0028733D03*
X0161903Y0026633D03*
X0161903Y0026483D03*
X0161903Y0026333D03*
X0159803Y0026333D03*
X0159803Y0026483D03*
X0159803Y0026633D03*
X0160853Y0028283D03*
X0160853Y0028433D03*
X0160853Y0028583D03*
X0160853Y0028733D03*
X0157103Y0026483D03*
X0155603Y0028733D03*
X0148703Y0026633D03*
X0146753Y0026483D03*
X0165053Y0035483D03*
X0170003Y0039533D03*
D21*
X0169928Y0039833D03*
X0169928Y0040583D03*
X0169628Y0040583D03*
X0169328Y0040583D03*
X0169028Y0040583D03*
X0168728Y0040583D03*
X0168428Y0040583D03*
X0168128Y0040583D03*
X0167828Y0040583D03*
X0167528Y0040583D03*
X0167228Y0040583D03*
X0166928Y0040583D03*
X0166628Y0040583D03*
X0166328Y0040583D03*
X0170228Y0040583D03*
X0170528Y0040583D03*
X0170828Y0040583D03*
X0171128Y0040583D03*
X0171428Y0040583D03*
X0171728Y0040583D03*
X0168728Y0034433D03*
X0168428Y0034433D03*
X0167678Y0034433D03*
X0167378Y0034433D03*
X0166628Y0034433D03*
X0166328Y0034433D03*
X0165578Y0034433D03*
X0165278Y0034433D03*
X0164978Y0034433D03*
X0164678Y0034433D03*
X0164378Y0034433D03*
X0164078Y0034433D03*
X0167078Y0028733D03*
X0168128Y0028133D03*
X0168428Y0028133D03*
X0166928Y0026483D03*
X0164528Y0026933D03*
X0164228Y0026933D03*
X0163928Y0026933D03*
X0170528Y0026483D03*
X0174428Y0029333D03*
X0160028Y0040583D03*
X0159728Y0040583D03*
X0159428Y0040583D03*
X0159128Y0040583D03*
X0158828Y0040583D03*
X0158528Y0040583D03*
X0158228Y0040583D03*
X0151628Y0040583D03*
X0151328Y0040583D03*
X0151028Y0040583D03*
X0150728Y0040583D03*
X0150428Y0040583D03*
X0150128Y0040583D03*
X0143528Y0040583D03*
X0143228Y0040583D03*
X0147278Y0034433D03*
X0147578Y0034433D03*
X0147878Y0034433D03*
X0146978Y0027833D03*
X0147728Y0026483D03*
X0151628Y0028583D03*
X0151928Y0028583D03*
X0154028Y0028583D03*
X0154328Y0028583D03*
X0156278Y0026483D03*
X0155828Y0034433D03*
D22*
X0157028Y0028733D03*
X0152978Y0028433D03*
X0150578Y0028433D03*
X0148628Y0027983D03*
X0148628Y0026483D03*
X0146978Y0027383D03*
X0147878Y0029333D03*
X0140378Y0033083D03*
X0165128Y0035633D03*
X0169928Y0039383D03*
X0183728Y0041933D03*
X0176678Y0029183D03*
X0171278Y0028733D03*
D23*
X0170003Y0034733D03*
X0170003Y0035183D03*
X0170003Y0035633D03*
X0170003Y0036083D03*
X0170003Y0036533D03*
X0170003Y0037133D03*
X0170003Y0037583D03*
X0170003Y0038183D03*
X0170003Y0038633D03*
X0170003Y0039083D03*
X0173003Y0039983D03*
X0173153Y0038933D03*
X0173453Y0037433D03*
X0173603Y0036683D03*
X0173753Y0035933D03*
X0173903Y0035183D03*
X0176303Y0035483D03*
X0176603Y0036983D03*
X0176753Y0037733D03*
X0176903Y0038483D03*
X0177053Y0039233D03*
X0179303Y0039833D03*
X0179453Y0039083D03*
X0179903Y0036533D03*
X0180053Y0035783D03*
X0180203Y0035033D03*
X0182453Y0035033D03*
X0182453Y0034733D03*
X0182753Y0036383D03*
X0182903Y0037283D03*
X0183053Y0037883D03*
X0183203Y0038633D03*
X0183353Y0039383D03*
X0183803Y0041783D03*
X0165053Y0039833D03*
X0165053Y0038933D03*
X0165053Y0037433D03*
X0157103Y0037283D03*
X0157103Y0036683D03*
X0157103Y0036083D03*
X0157103Y0035483D03*
X0157103Y0034883D03*
X0157103Y0034583D03*
X0157103Y0037883D03*
X0157103Y0038483D03*
X0157103Y0039083D03*
X0157103Y0039683D03*
X0157103Y0040283D03*
X0152903Y0040433D03*
X0152903Y0040133D03*
X0152903Y0039833D03*
X0152903Y0039533D03*
X0152903Y0039233D03*
X0152903Y0038933D03*
X0152903Y0038633D03*
X0152903Y0038333D03*
X0152903Y0038033D03*
X0149003Y0038183D03*
X0149003Y0037883D03*
X0149003Y0037583D03*
X0149003Y0037283D03*
X0149003Y0036833D03*
X0149003Y0036383D03*
X0149003Y0036083D03*
X0149003Y0035783D03*
X0149003Y0035483D03*
X0149003Y0035183D03*
X0149003Y0034733D03*
X0145553Y0036683D03*
X0149003Y0038633D03*
X0149003Y0038933D03*
X0149003Y0039383D03*
X0149003Y0039683D03*
X0149003Y0040133D03*
X0140903Y0035783D03*
X0140303Y0033233D03*
X0150653Y0028583D03*
X0153053Y0028583D03*
X0159803Y0027083D03*
X0159803Y0026933D03*
X0159803Y0026783D03*
X0160853Y0027833D03*
X0160853Y0028133D03*
X0161903Y0027083D03*
X0161903Y0026933D03*
X0161903Y0026783D03*
D24*
X0156053Y0032933D03*
X0147803Y0028883D03*
X0147953Y0027683D03*
X0178253Y0041933D03*
D25*
X0174953Y0029333D03*
X0161303Y0027683D03*
X0160403Y0027683D03*
X0160403Y0027983D03*
X0154103Y0029333D03*
X0151703Y0029333D03*
D26*
X0150953Y0042083D03*
X0159053Y0042083D03*
X0175253Y0028883D03*
X0175253Y0028733D03*
D27*
X0147878Y0029033D03*
D28*
X0147878Y0029183D03*
X0167078Y0029033D03*
X0178178Y0042083D03*
D29*
X0178253Y0041333D03*
X0178253Y0041033D03*
X0178253Y0040883D03*
X0175103Y0033533D03*
X0175103Y0033383D03*
X0181403Y0033533D03*
X0147653Y0032933D03*
X0143303Y0041933D03*
D30*
X0166628Y0032933D03*
D31*
X0156053Y0033683D03*
X0155903Y0033983D03*
X0147653Y0033083D03*
X0143303Y0041183D03*
X0143303Y0041333D03*
D32*
X0156128Y0033083D03*
X0178178Y0041183D03*
X0178178Y0041483D03*
X0181328Y0033383D03*
X0181328Y0033233D03*
D33*
X0166553Y0033083D03*
D34*
X0155978Y0034133D03*
X0155828Y0034283D03*
X0147578Y0033233D03*
X0143378Y0040733D03*
X0143378Y0040883D03*
X0143378Y0041033D03*
D35*
X0156128Y0033383D03*
X0156128Y0033233D03*
X0175028Y0033683D03*
X0175028Y0033833D03*
X0175028Y0034133D03*
X0181328Y0033983D03*
X0181328Y0033833D03*
X0181328Y0033683D03*
X0178178Y0040733D03*
D36*
X0166553Y0033233D03*
D37*
X0165128Y0035783D03*
X0165128Y0035933D03*
X0165128Y0036083D03*
X0165128Y0036233D03*
X0165128Y0036383D03*
X0165128Y0036533D03*
X0165128Y0036683D03*
X0165128Y0036833D03*
X0165128Y0036983D03*
X0165128Y0037133D03*
X0165128Y0037283D03*
X0165128Y0037583D03*
X0165128Y0037733D03*
X0165128Y0037883D03*
X0165128Y0038033D03*
X0165128Y0038183D03*
X0165128Y0038333D03*
X0165128Y0038483D03*
X0165128Y0038633D03*
X0165128Y0038783D03*
X0165128Y0039083D03*
X0165128Y0039233D03*
X0165128Y0039383D03*
X0165128Y0039533D03*
X0165128Y0039683D03*
X0165128Y0039983D03*
X0165128Y0040133D03*
X0165128Y0040283D03*
X0165128Y0040433D03*
X0161078Y0040433D03*
X0161078Y0040283D03*
X0161078Y0040133D03*
X0161078Y0039983D03*
X0161078Y0039833D03*
X0161078Y0039683D03*
X0161078Y0039533D03*
X0161078Y0039383D03*
X0161078Y0039233D03*
X0161078Y0039083D03*
X0161078Y0038933D03*
X0161078Y0038783D03*
X0161078Y0038633D03*
X0161078Y0038483D03*
X0161078Y0038333D03*
X0161078Y0038183D03*
X0161078Y0038033D03*
X0161078Y0037883D03*
X0161078Y0037733D03*
X0161078Y0040583D03*
X0157178Y0040433D03*
X0157178Y0040133D03*
X0157028Y0039983D03*
X0157178Y0039833D03*
X0157178Y0039533D03*
X0157028Y0039383D03*
X0157178Y0039233D03*
X0157178Y0038933D03*
X0157028Y0038783D03*
X0157178Y0038633D03*
X0157178Y0038333D03*
X0157028Y0038183D03*
X0157178Y0038033D03*
X0157178Y0037733D03*
X0157028Y0037583D03*
X0157178Y0037433D03*
X0157178Y0037133D03*
X0157028Y0036983D03*
X0157178Y0036833D03*
X0157178Y0036533D03*
X0157028Y0036383D03*
X0157178Y0036233D03*
X0157178Y0035933D03*
X0157028Y0035783D03*
X0157178Y0035633D03*
X0157178Y0035333D03*
X0157028Y0035183D03*
X0157178Y0035033D03*
X0157178Y0034733D03*
X0152978Y0037583D03*
X0152978Y0037733D03*
X0152978Y0037883D03*
X0152978Y0038183D03*
X0152978Y0038483D03*
X0152978Y0038783D03*
X0152978Y0039083D03*
X0152978Y0039383D03*
X0152978Y0039683D03*
X0152978Y0039983D03*
X0152978Y0040283D03*
X0149078Y0040583D03*
X0148928Y0040433D03*
X0148928Y0040283D03*
X0148928Y0039983D03*
X0148928Y0039833D03*
X0148928Y0039533D03*
X0148928Y0039233D03*
X0148928Y0039083D03*
X0148928Y0038783D03*
X0148928Y0038483D03*
X0148928Y0038333D03*
X0148928Y0038033D03*
X0148928Y0037733D03*
X0148928Y0037433D03*
X0148928Y0037133D03*
X0148928Y0036983D03*
X0148928Y0036683D03*
X0148928Y0036533D03*
X0148928Y0036233D03*
X0148928Y0035933D03*
X0148928Y0035633D03*
X0148928Y0035333D03*
X0148928Y0035033D03*
X0148928Y0034883D03*
X0148928Y0034583D03*
X0148928Y0034433D03*
X0146078Y0034583D03*
X0146078Y0034733D03*
X0145928Y0034883D03*
X0145928Y0035033D03*
X0145928Y0035183D03*
X0145928Y0035333D03*
X0145778Y0035483D03*
X0145778Y0035633D03*
X0145778Y0035783D03*
X0145778Y0035933D03*
X0145628Y0036233D03*
X0145628Y0036383D03*
X0145628Y0036533D03*
X0145478Y0036983D03*
X0145478Y0037133D03*
X0145478Y0037283D03*
X0145328Y0037433D03*
X0145328Y0037583D03*
X0145328Y0037733D03*
X0145328Y0037883D03*
X0145178Y0038033D03*
X0145178Y0038183D03*
X0145178Y0038333D03*
X0145178Y0038483D03*
X0145028Y0038633D03*
X0145028Y0038783D03*
X0145028Y0038933D03*
X0145028Y0039083D03*
X0144878Y0039233D03*
X0144878Y0039383D03*
X0144878Y0039533D03*
X0144878Y0039683D03*
X0144728Y0039833D03*
X0144728Y0039983D03*
X0144728Y0040133D03*
X0144728Y0040283D03*
X0144578Y0040433D03*
X0144578Y0040583D03*
X0142028Y0040433D03*
X0142028Y0040283D03*
X0141878Y0039983D03*
X0141878Y0039833D03*
X0141878Y0039683D03*
X0141878Y0039533D03*
X0141728Y0039383D03*
X0141728Y0039233D03*
X0141728Y0039083D03*
X0141728Y0038933D03*
X0141578Y0038783D03*
X0141578Y0038633D03*
X0141578Y0038483D03*
X0141578Y0038333D03*
X0141428Y0038183D03*
X0141428Y0038033D03*
X0141428Y0037883D03*
X0141428Y0037733D03*
X0141278Y0037583D03*
X0141278Y0037433D03*
X0141278Y0037283D03*
X0141278Y0037133D03*
X0141128Y0036983D03*
X0141128Y0036833D03*
X0141128Y0036683D03*
X0141128Y0036533D03*
X0140978Y0036383D03*
X0140978Y0036233D03*
X0140978Y0036083D03*
X0140978Y0035933D03*
X0140828Y0035633D03*
X0140828Y0035483D03*
X0140828Y0035333D03*
X0140828Y0035183D03*
X0140678Y0035033D03*
X0140678Y0034883D03*
X0140678Y0034733D03*
X0140678Y0034583D03*
X0140528Y0034433D03*
X0140528Y0034283D03*
X0140528Y0034133D03*
X0140528Y0033983D03*
X0140378Y0033833D03*
X0140378Y0033683D03*
X0140378Y0033533D03*
X0140378Y0033383D03*
X0169928Y0034583D03*
X0169928Y0034883D03*
X0169928Y0035033D03*
X0169928Y0035333D03*
X0169928Y0035483D03*
X0169928Y0035783D03*
X0169928Y0035933D03*
X0169928Y0036233D03*
X0169928Y0036383D03*
X0169928Y0036683D03*
X0169928Y0036833D03*
X0169928Y0036983D03*
X0169928Y0037283D03*
X0169928Y0037433D03*
X0169928Y0037733D03*
X0169928Y0037883D03*
X0169928Y0038033D03*
X0169928Y0038333D03*
X0169928Y0038483D03*
X0169928Y0038783D03*
X0169928Y0038933D03*
X0169928Y0039233D03*
X0172928Y0039833D03*
X0173078Y0039683D03*
X0173078Y0039533D03*
X0173078Y0039383D03*
X0173078Y0039233D03*
X0173228Y0038783D03*
X0173228Y0038633D03*
X0173228Y0038483D03*
X0173228Y0038333D03*
X0173378Y0038183D03*
X0173378Y0038033D03*
X0173378Y0037883D03*
X0173378Y0037733D03*
X0173378Y0037583D03*
X0173528Y0037283D03*
X0173528Y0037133D03*
X0173528Y0036983D03*
X0173678Y0036533D03*
X0173678Y0036383D03*
X0173678Y0036233D03*
X0173678Y0036083D03*
X0173828Y0035783D03*
X0173828Y0035633D03*
X0173828Y0035483D03*
X0173978Y0035033D03*
X0173978Y0034883D03*
X0173978Y0034733D03*
X0173978Y0034583D03*
X0176078Y0034583D03*
X0176078Y0034433D03*
X0176228Y0034733D03*
X0176228Y0034883D03*
X0176228Y0035033D03*
X0176228Y0035183D03*
X0176228Y0035333D03*
X0176378Y0035633D03*
X0176378Y0035783D03*
X0176378Y0035933D03*
X0176378Y0036083D03*
X0176528Y0036233D03*
X0176378Y0036383D03*
X0176528Y0036533D03*
X0176528Y0036683D03*
X0176528Y0036833D03*
X0176678Y0037133D03*
X0176678Y0037283D03*
X0176678Y0037433D03*
X0176678Y0037583D03*
X0176828Y0038033D03*
X0176828Y0038183D03*
X0176828Y0038333D03*
X0176978Y0038783D03*
X0176978Y0038933D03*
X0176978Y0039083D03*
X0177128Y0039533D03*
X0177128Y0039683D03*
X0177128Y0039833D03*
X0177128Y0039983D03*
X0177278Y0040133D03*
X0177278Y0040283D03*
X0177278Y0040433D03*
X0177278Y0040583D03*
X0179078Y0040583D03*
X0179078Y0040433D03*
X0179228Y0040283D03*
X0179228Y0040133D03*
X0179228Y0039983D03*
X0179228Y0039683D03*
X0179378Y0039533D03*
X0179378Y0039383D03*
X0179378Y0039233D03*
X0179378Y0038933D03*
X0179528Y0038783D03*
X0179528Y0038633D03*
X0179528Y0038483D03*
X0179528Y0038333D03*
X0179528Y0038183D03*
X0179678Y0038033D03*
X0179678Y0037883D03*
X0179678Y0037733D03*
X0179678Y0037583D03*
X0179678Y0037433D03*
X0179828Y0037283D03*
X0179828Y0037133D03*
X0179828Y0036983D03*
X0179828Y0036833D03*
X0179978Y0036383D03*
X0179978Y0036233D03*
X0179978Y0036083D03*
X0180128Y0035633D03*
X0180128Y0035483D03*
X0180128Y0035333D03*
X0180128Y0035183D03*
X0180278Y0034883D03*
X0180278Y0034733D03*
X0180278Y0034583D03*
X0182378Y0034583D03*
X0182528Y0035183D03*
X0182528Y0035333D03*
X0182528Y0035483D03*
X0182678Y0035633D03*
X0182678Y0035783D03*
X0182678Y0035933D03*
X0182678Y0036083D03*
X0182678Y0036233D03*
X0182828Y0036533D03*
X0182828Y0036683D03*
X0182828Y0036833D03*
X0182828Y0036983D03*
X0182978Y0037133D03*
X0182978Y0037433D03*
X0182978Y0037583D03*
X0182978Y0037733D03*
X0183128Y0038033D03*
X0183128Y0038183D03*
X0183128Y0038333D03*
X0183128Y0038483D03*
X0183278Y0038933D03*
X0183278Y0039083D03*
X0183278Y0039233D03*
X0183428Y0039533D03*
X0183428Y0039683D03*
X0183428Y0039833D03*
X0183428Y0039983D03*
X0183428Y0040133D03*
X0183578Y0040283D03*
X0183578Y0040433D03*
X0183578Y0040583D03*
X0183578Y0040733D03*
X0183578Y0040883D03*
X0183728Y0041033D03*
X0183728Y0041183D03*
X0183728Y0041333D03*
X0183728Y0041483D03*
X0183728Y0041633D03*
X0172928Y0040433D03*
X0172928Y0040283D03*
X0172928Y0040133D03*
X0172778Y0040583D03*
D38*
X0147653Y0033533D03*
X0147653Y0033383D03*
D39*
X0166628Y0033383D03*
X0168878Y0042083D03*
D40*
X0175103Y0034283D03*
X0175103Y0033983D03*
X0181403Y0034133D03*
X0181403Y0034283D03*
X0156053Y0033533D03*
X0143303Y0041633D03*
X0143303Y0041783D03*
D41*
X0166553Y0033683D03*
X0166553Y0033533D03*
D42*
X0147578Y0033683D03*
X0147578Y0033833D03*
X0147578Y0033983D03*
X0147578Y0034133D03*
D43*
X0155978Y0033833D03*
X0143378Y0041483D03*
D44*
X0166478Y0033983D03*
X0166478Y0033833D03*
D45*
X0166403Y0034133D03*
X0166403Y0034283D03*
X0168953Y0041933D03*
D46*
X0147503Y0034283D03*
D47*
X0153428Y0036683D03*
X0153578Y0036383D03*
X0154178Y0035333D03*
X0154328Y0035033D03*
X0154478Y0034733D03*
X0157028Y0034433D03*
X0161528Y0036833D03*
X0161828Y0036233D03*
X0161978Y0035933D03*
X0162728Y0034583D03*
X0162878Y0034433D03*
X0152828Y0040583D03*
D48*
X0165953Y0034433D03*
X0167003Y0034433D03*
X0168053Y0034433D03*
D49*
X0159128Y0040733D03*
X0159128Y0040883D03*
X0159128Y0041033D03*
X0159128Y0041333D03*
X0159128Y0041483D03*
X0151028Y0040883D03*
X0150878Y0040733D03*
X0150878Y0041033D03*
D50*
X0168953Y0041033D03*
X0168953Y0040883D03*
X0168953Y0040733D03*
X0168953Y0041183D03*
D51*
X0159053Y0041183D03*
X0150953Y0041183D03*
X0150953Y0041483D03*
D52*
X0150953Y0041333D03*
X0150953Y0041633D03*
X0150953Y0041783D03*
X0159053Y0041783D03*
X0159053Y0041633D03*
D53*
X0168878Y0041483D03*
X0168878Y0041333D03*
D54*
X0168953Y0041633D03*
X0168953Y0041783D03*
D55*
X0159053Y0041933D03*
X0150953Y0041933D03*
D56*
X0109071Y0097634D02*
X0095686Y0097634D01*
X0095686Y0110232D01*
X0109071Y0110232D01*
X0109071Y0097634D01*
X0097200Y0103933D02*
X0097202Y0104076D01*
X0097208Y0104219D01*
X0097218Y0104362D01*
X0097232Y0104505D01*
X0097250Y0104647D01*
X0097271Y0104789D01*
X0097297Y0104930D01*
X0097326Y0105070D01*
X0097360Y0105210D01*
X0097397Y0105348D01*
X0097438Y0105485D01*
X0097483Y0105621D01*
X0097532Y0105756D01*
X0097584Y0105890D01*
X0097640Y0106022D01*
X0097700Y0106152D01*
X0097763Y0106281D01*
X0097829Y0106407D01*
X0097900Y0106532D01*
X0097973Y0106655D01*
X0098050Y0106776D01*
X0098131Y0106895D01*
X0098214Y0107011D01*
X0098301Y0107125D01*
X0098391Y0107237D01*
X0098484Y0107346D01*
X0098580Y0107452D01*
X0098679Y0107556D01*
X0098780Y0107657D01*
X0098885Y0107755D01*
X0098992Y0107851D01*
X0099102Y0107943D01*
X0099214Y0108032D01*
X0099329Y0108118D01*
X0099446Y0108201D01*
X0099565Y0108280D01*
X0099686Y0108356D01*
X0099810Y0108429D01*
X0099935Y0108499D01*
X0100062Y0108564D01*
X0100191Y0108627D01*
X0100322Y0108685D01*
X0100455Y0108740D01*
X0100588Y0108792D01*
X0100723Y0108840D01*
X0100860Y0108883D01*
X0100998Y0108924D01*
X0101136Y0108960D01*
X0101276Y0108992D01*
X0101416Y0109021D01*
X0101557Y0109046D01*
X0101699Y0109066D01*
X0101842Y0109083D01*
X0101984Y0109096D01*
X0102127Y0109105D01*
X0102271Y0109110D01*
X0102414Y0109111D01*
X0102557Y0109108D01*
X0102700Y0109101D01*
X0102843Y0109090D01*
X0102986Y0109075D01*
X0103128Y0109056D01*
X0103269Y0109034D01*
X0103410Y0109007D01*
X0103550Y0108977D01*
X0103689Y0108942D01*
X0103827Y0108904D01*
X0103964Y0108862D01*
X0104100Y0108816D01*
X0104235Y0108767D01*
X0104368Y0108713D01*
X0104499Y0108657D01*
X0104629Y0108596D01*
X0104757Y0108532D01*
X0104884Y0108464D01*
X0105008Y0108393D01*
X0105131Y0108319D01*
X0105251Y0108241D01*
X0105369Y0108160D01*
X0105485Y0108075D01*
X0105598Y0107988D01*
X0105709Y0107897D01*
X0105818Y0107803D01*
X0105924Y0107707D01*
X0106027Y0107607D01*
X0106127Y0107505D01*
X0106224Y0107400D01*
X0106319Y0107292D01*
X0106410Y0107181D01*
X0106499Y0107069D01*
X0106584Y0106953D01*
X0106666Y0106836D01*
X0106745Y0106716D01*
X0106820Y0106594D01*
X0106892Y0106470D01*
X0106960Y0106344D01*
X0107025Y0106216D01*
X0107087Y0106087D01*
X0107145Y0105956D01*
X0107199Y0105823D01*
X0107249Y0105689D01*
X0107296Y0105554D01*
X0107339Y0105417D01*
X0107378Y0105279D01*
X0107413Y0105140D01*
X0107445Y0105000D01*
X0107472Y0104860D01*
X0107496Y0104718D01*
X0107516Y0104576D01*
X0107532Y0104434D01*
X0107544Y0104291D01*
X0107552Y0104148D01*
X0107556Y0104005D01*
X0107556Y0103861D01*
X0107552Y0103718D01*
X0107544Y0103575D01*
X0107532Y0103432D01*
X0107516Y0103290D01*
X0107496Y0103148D01*
X0107472Y0103006D01*
X0107445Y0102866D01*
X0107413Y0102726D01*
X0107378Y0102587D01*
X0107339Y0102449D01*
X0107296Y0102312D01*
X0107249Y0102177D01*
X0107199Y0102043D01*
X0107145Y0101910D01*
X0107087Y0101779D01*
X0107025Y0101650D01*
X0106960Y0101522D01*
X0106892Y0101396D01*
X0106820Y0101272D01*
X0106745Y0101150D01*
X0106666Y0101030D01*
X0106584Y0100913D01*
X0106499Y0100797D01*
X0106410Y0100685D01*
X0106319Y0100574D01*
X0106224Y0100466D01*
X0106127Y0100361D01*
X0106027Y0100259D01*
X0105924Y0100159D01*
X0105818Y0100063D01*
X0105709Y0099969D01*
X0105598Y0099878D01*
X0105485Y0099791D01*
X0105369Y0099706D01*
X0105251Y0099625D01*
X0105131Y0099547D01*
X0105008Y0099473D01*
X0104884Y0099402D01*
X0104757Y0099334D01*
X0104629Y0099270D01*
X0104499Y0099209D01*
X0104368Y0099153D01*
X0104235Y0099099D01*
X0104100Y0099050D01*
X0103964Y0099004D01*
X0103827Y0098962D01*
X0103689Y0098924D01*
X0103550Y0098889D01*
X0103410Y0098859D01*
X0103269Y0098832D01*
X0103128Y0098810D01*
X0102986Y0098791D01*
X0102843Y0098776D01*
X0102700Y0098765D01*
X0102557Y0098758D01*
X0102414Y0098755D01*
X0102271Y0098756D01*
X0102127Y0098761D01*
X0101984Y0098770D01*
X0101842Y0098783D01*
X0101699Y0098800D01*
X0101557Y0098820D01*
X0101416Y0098845D01*
X0101276Y0098874D01*
X0101136Y0098906D01*
X0100998Y0098942D01*
X0100860Y0098983D01*
X0100723Y0099026D01*
X0100588Y0099074D01*
X0100455Y0099126D01*
X0100322Y0099181D01*
X0100191Y0099239D01*
X0100062Y0099302D01*
X0099935Y0099367D01*
X0099810Y0099437D01*
X0099686Y0099510D01*
X0099565Y0099586D01*
X0099446Y0099665D01*
X0099329Y0099748D01*
X0099214Y0099834D01*
X0099102Y0099923D01*
X0098992Y0100015D01*
X0098885Y0100111D01*
X0098780Y0100209D01*
X0098679Y0100310D01*
X0098580Y0100414D01*
X0098484Y0100520D01*
X0098391Y0100629D01*
X0098301Y0100741D01*
X0098214Y0100855D01*
X0098131Y0100971D01*
X0098050Y0101090D01*
X0097973Y0101211D01*
X0097900Y0101334D01*
X0097829Y0101459D01*
X0097763Y0101585D01*
X0097700Y0101714D01*
X0097640Y0101844D01*
X0097584Y0101976D01*
X0097532Y0102110D01*
X0097483Y0102245D01*
X0097438Y0102381D01*
X0097397Y0102518D01*
X0097360Y0102656D01*
X0097326Y0102796D01*
X0097297Y0102936D01*
X0097271Y0103077D01*
X0097250Y0103219D01*
X0097232Y0103361D01*
X0097218Y0103504D01*
X0097208Y0103647D01*
X0097202Y0103790D01*
X0097200Y0103933D01*
D57*
X0094748Y0103283D02*
X0094748Y0104734D01*
X0094264Y0105218D01*
X0092329Y0105218D01*
X0091846Y0104734D01*
X0091846Y0103283D01*
X0094748Y0103283D01*
X0094748Y0102272D02*
X0094748Y0100337D01*
X0091846Y0100337D01*
X0091846Y0102272D01*
X0093297Y0101304D02*
X0093297Y0100337D01*
X0094748Y0099325D02*
X0094748Y0097390D01*
X0091846Y0097390D01*
X0092813Y0106230D02*
X0091846Y0107197D01*
X0094748Y0107197D01*
X0094748Y0106230D02*
X0094748Y0108165D01*
D58*
X0117075Y0102564D02*
X0121678Y0102564D01*
X0121678Y0104098D02*
X0121678Y0101029D01*
X0121678Y0099494D02*
X0120144Y0097960D01*
X0120144Y0098727D02*
X0120144Y0096425D01*
X0121678Y0096425D02*
X0117075Y0096425D01*
X0117075Y0098727D01*
X0117842Y0099494D01*
X0119377Y0099494D01*
X0120144Y0098727D01*
X0118609Y0101029D02*
X0117075Y0102564D01*
X0101411Y0090668D02*
X0098342Y0090668D01*
X0099877Y0089133D02*
X0099877Y0092202D01*
M02*
