G75*
%MOIN*%
%OFA0B0*%
%FSLAX25Y25*%
%IPPOS*%
%LPD*%
%AMOC8*
5,1,8,0,0,1.08239X$1,22.5*
%
%ADD10C,0.01600*%
%ADD11R,0.02100X0.00350*%
%ADD12R,0.04200X0.00350*%
%ADD13R,0.01750X0.00350*%
%ADD14R,0.06650X0.00350*%
%ADD15R,0.04900X0.00350*%
%ADD16R,0.02450X0.00350*%
%ADD17R,0.07000X0.00350*%
%ADD18R,0.05600X0.00350*%
%ADD19R,0.02800X0.00350*%
%ADD20R,0.00350X0.00350*%
%ADD21R,0.03150X0.00350*%
%ADD22R,0.03500X0.00350*%
%ADD23R,0.06300X0.00350*%
%ADD24R,0.01400X0.00350*%
%ADD25R,0.11200X0.00350*%
%ADD26R,0.05950X0.00350*%
%ADD27R,0.05250X0.00350*%
%ADD28R,0.07700X0.00350*%
%ADD29R,0.17150X0.00350*%
%ADD30R,0.09100X0.00350*%
%ADD31R,0.07350X0.00350*%
%ADD32R,0.18200X0.00350*%
%ADD33R,0.09450X0.00350*%
%ADD34R,0.08050X0.00350*%
%ADD35R,0.18900X0.00350*%
%ADD36R,0.03850X0.00350*%
%ADD37R,0.09800X0.00350*%
%ADD38R,0.19250X0.00350*%
%ADD39R,0.08400X0.00350*%
%ADD40R,0.19600X0.00350*%
%ADD41R,0.10150X0.00350*%
%ADD42R,0.08750X0.00350*%
%ADD43R,0.19950X0.00350*%
%ADD44R,0.20300X0.00350*%
%ADD45R,0.10500X0.00350*%
%ADD46R,0.04550X0.00350*%
%ADD47R,0.00700X0.00350*%
%ADD48R,0.12950X0.00350*%
%ADD49R,0.21700X0.00350*%
%ADD50R,0.13300X0.00350*%
%ADD51R,0.12600X0.00350*%
%ADD52R,0.21350X0.00350*%
%ADD53R,0.21000X0.00350*%
%ADD54R,0.11900X0.00350*%
%ADD55R,0.00050X0.00050*%
%ADD56R,0.00200X0.00050*%
%ADD57R,0.01100X0.00050*%
%ADD58R,0.01450X0.00050*%
%ADD59R,0.01750X0.00050*%
%ADD60R,0.02000X0.00050*%
%ADD61R,0.02250X0.00050*%
%ADD62R,0.02400X0.00050*%
%ADD63R,0.02600X0.00050*%
%ADD64R,0.02750X0.00050*%
%ADD65R,0.02850X0.00050*%
%ADD66R,0.03000X0.00050*%
%ADD67R,0.03100X0.00050*%
%ADD68R,0.03200X0.00050*%
%ADD69R,0.03300X0.00050*%
%ADD70R,0.03450X0.00050*%
%ADD71R,0.03500X0.00050*%
%ADD72R,0.03650X0.00050*%
%ADD73R,0.03700X0.00050*%
%ADD74R,0.03750X0.00050*%
%ADD75R,0.03850X0.00050*%
%ADD76R,0.03900X0.00050*%
%ADD77R,0.04000X0.00050*%
%ADD78R,0.04050X0.00050*%
%ADD79R,0.04100X0.00050*%
%ADD80R,0.04200X0.00050*%
%ADD81R,0.01700X0.00050*%
%ADD82R,0.01950X0.00050*%
%ADD83R,0.01600X0.00050*%
%ADD84R,0.01850X0.00050*%
%ADD85R,0.01800X0.00050*%
%ADD86R,0.01500X0.00050*%
%ADD87R,0.01650X0.00050*%
%ADD88R,0.01400X0.00050*%
%ADD89R,0.01350X0.00050*%
%ADD90R,0.01550X0.00050*%
%ADD91R,0.01300X0.00050*%
%ADD92R,0.08550X0.00050*%
%ADD93R,0.08850X0.00050*%
%ADD94R,0.08950X0.00050*%
%ADD95R,0.09000X0.00050*%
%ADD96R,0.09050X0.00050*%
%ADD97R,0.08800X0.00050*%
%ADD98R,0.08750X0.00050*%
%ADD99R,0.08650X0.00050*%
%ADD100R,0.08600X0.00050*%
%ADD101R,0.08450X0.00050*%
%ADD102R,0.08350X0.00050*%
%ADD103R,0.08150X0.00050*%
%ADD104R,0.07850X0.00050*%
%ADD105R,0.07500X0.00050*%
%ADD106R,0.06600X0.00050*%
%ADD107R,0.00100X0.00050*%
%ADD108R,0.00300X0.00050*%
%ADD109R,0.00400X0.00050*%
%ADD110R,0.00500X0.00050*%
%ADD111R,0.00600X0.00050*%
%ADD112R,0.00700X0.00050*%
%ADD113R,0.00900X0.00050*%
%ADD114R,0.01000X0.00050*%
%ADD115R,0.01200X0.00050*%
%ADD116R,0.01900X0.00050*%
%ADD117R,0.02100X0.00050*%
%ADD118R,0.02200X0.00050*%
%ADD119R,0.02300X0.00050*%
%ADD120R,0.02500X0.00050*%
%ADD121R,0.02650X0.00050*%
%ADD122R,0.02700X0.00050*%
%ADD123R,0.02800X0.00050*%
%ADD124R,0.01250X0.00050*%
%ADD125R,0.01150X0.00050*%
%ADD126R,0.01050X0.00050*%
%ADD127R,0.00950X0.00050*%
%ADD128R,0.00850X0.00050*%
%ADD129R,0.00650X0.00050*%
%ADD130R,0.00450X0.00050*%
%ADD131R,0.03400X0.00050*%
%ADD132R,0.03800X0.00050*%
%ADD133R,0.04350X0.00050*%
%ADD134R,0.04450X0.00050*%
%ADD135R,0.04550X0.00050*%
%ADD136R,0.04650X0.00050*%
%ADD137R,0.04750X0.00050*%
%ADD138R,0.04850X0.00050*%
%ADD139R,0.04950X0.00050*%
%ADD140R,0.05000X0.00050*%
%ADD141R,0.05050X0.00050*%
%ADD142R,0.04900X0.00050*%
%ADD143R,0.04700X0.00050*%
%ADD144R,0.03250X0.00050*%
%ADD145R,0.03150X0.00050*%
%ADD146R,0.03050X0.00050*%
%ADD147R,0.02950X0.00050*%
%ADD148R,0.02550X0.00050*%
D10*
X0033878Y0043933D02*
X0033882Y0044240D01*
X0033893Y0044546D01*
X0033912Y0044853D01*
X0033938Y0045158D01*
X0033972Y0045463D01*
X0034013Y0045767D01*
X0034062Y0046070D01*
X0034118Y0046372D01*
X0034182Y0046672D01*
X0034253Y0046970D01*
X0034331Y0047267D01*
X0034416Y0047562D01*
X0034509Y0047854D01*
X0034609Y0048144D01*
X0034716Y0048432D01*
X0034830Y0048717D01*
X0034950Y0048999D01*
X0035078Y0049277D01*
X0035213Y0049553D01*
X0035354Y0049825D01*
X0035502Y0050094D01*
X0035656Y0050359D01*
X0035817Y0050620D01*
X0035985Y0050878D01*
X0036158Y0051131D01*
X0036338Y0051379D01*
X0036524Y0051623D01*
X0036715Y0051863D01*
X0036913Y0052098D01*
X0037116Y0052327D01*
X0037325Y0052552D01*
X0037539Y0052772D01*
X0037759Y0052986D01*
X0037984Y0053195D01*
X0038213Y0053398D01*
X0038448Y0053596D01*
X0038688Y0053787D01*
X0038932Y0053973D01*
X0039180Y0054153D01*
X0039433Y0054326D01*
X0039691Y0054494D01*
X0039952Y0054655D01*
X0040217Y0054809D01*
X0040486Y0054957D01*
X0040758Y0055098D01*
X0041034Y0055233D01*
X0041312Y0055361D01*
X0041594Y0055481D01*
X0041879Y0055595D01*
X0042167Y0055702D01*
X0042457Y0055802D01*
X0042749Y0055895D01*
X0043044Y0055980D01*
X0043341Y0056058D01*
X0043639Y0056129D01*
X0043939Y0056193D01*
X0044241Y0056249D01*
X0044544Y0056298D01*
X0044848Y0056339D01*
X0045153Y0056373D01*
X0045458Y0056399D01*
X0045765Y0056418D01*
X0046071Y0056429D01*
X0046378Y0056433D01*
X0046685Y0056429D01*
X0046991Y0056418D01*
X0047298Y0056399D01*
X0047603Y0056373D01*
X0047908Y0056339D01*
X0048212Y0056298D01*
X0048515Y0056249D01*
X0048817Y0056193D01*
X0049117Y0056129D01*
X0049415Y0056058D01*
X0049712Y0055980D01*
X0050007Y0055895D01*
X0050299Y0055802D01*
X0050589Y0055702D01*
X0050877Y0055595D01*
X0051162Y0055481D01*
X0051444Y0055361D01*
X0051722Y0055233D01*
X0051998Y0055098D01*
X0052270Y0054957D01*
X0052539Y0054809D01*
X0052804Y0054655D01*
X0053065Y0054494D01*
X0053323Y0054326D01*
X0053576Y0054153D01*
X0053824Y0053973D01*
X0054068Y0053787D01*
X0054308Y0053596D01*
X0054543Y0053398D01*
X0054772Y0053195D01*
X0054997Y0052986D01*
X0055217Y0052772D01*
X0055431Y0052552D01*
X0055640Y0052327D01*
X0055843Y0052098D01*
X0056041Y0051863D01*
X0056232Y0051623D01*
X0056418Y0051379D01*
X0056598Y0051131D01*
X0056771Y0050878D01*
X0056939Y0050620D01*
X0057100Y0050359D01*
X0057254Y0050094D01*
X0057402Y0049825D01*
X0057543Y0049553D01*
X0057678Y0049277D01*
X0057806Y0048999D01*
X0057926Y0048717D01*
X0058040Y0048432D01*
X0058147Y0048144D01*
X0058247Y0047854D01*
X0058340Y0047562D01*
X0058425Y0047267D01*
X0058503Y0046970D01*
X0058574Y0046672D01*
X0058638Y0046372D01*
X0058694Y0046070D01*
X0058743Y0045767D01*
X0058784Y0045463D01*
X0058818Y0045158D01*
X0058844Y0044853D01*
X0058863Y0044546D01*
X0058874Y0044240D01*
X0058878Y0043933D01*
X0058874Y0043626D01*
X0058863Y0043320D01*
X0058844Y0043013D01*
X0058818Y0042708D01*
X0058784Y0042403D01*
X0058743Y0042099D01*
X0058694Y0041796D01*
X0058638Y0041494D01*
X0058574Y0041194D01*
X0058503Y0040896D01*
X0058425Y0040599D01*
X0058340Y0040304D01*
X0058247Y0040012D01*
X0058147Y0039722D01*
X0058040Y0039434D01*
X0057926Y0039149D01*
X0057806Y0038867D01*
X0057678Y0038589D01*
X0057543Y0038313D01*
X0057402Y0038041D01*
X0057254Y0037772D01*
X0057100Y0037507D01*
X0056939Y0037246D01*
X0056771Y0036988D01*
X0056598Y0036735D01*
X0056418Y0036487D01*
X0056232Y0036243D01*
X0056041Y0036003D01*
X0055843Y0035768D01*
X0055640Y0035539D01*
X0055431Y0035314D01*
X0055217Y0035094D01*
X0054997Y0034880D01*
X0054772Y0034671D01*
X0054543Y0034468D01*
X0054308Y0034270D01*
X0054068Y0034079D01*
X0053824Y0033893D01*
X0053576Y0033713D01*
X0053323Y0033540D01*
X0053065Y0033372D01*
X0052804Y0033211D01*
X0052539Y0033057D01*
X0052270Y0032909D01*
X0051998Y0032768D01*
X0051722Y0032633D01*
X0051444Y0032505D01*
X0051162Y0032385D01*
X0050877Y0032271D01*
X0050589Y0032164D01*
X0050299Y0032064D01*
X0050007Y0031971D01*
X0049712Y0031886D01*
X0049415Y0031808D01*
X0049117Y0031737D01*
X0048817Y0031673D01*
X0048515Y0031617D01*
X0048212Y0031568D01*
X0047908Y0031527D01*
X0047603Y0031493D01*
X0047298Y0031467D01*
X0046991Y0031448D01*
X0046685Y0031437D01*
X0046378Y0031433D01*
X0046071Y0031437D01*
X0045765Y0031448D01*
X0045458Y0031467D01*
X0045153Y0031493D01*
X0044848Y0031527D01*
X0044544Y0031568D01*
X0044241Y0031617D01*
X0043939Y0031673D01*
X0043639Y0031737D01*
X0043341Y0031808D01*
X0043044Y0031886D01*
X0042749Y0031971D01*
X0042457Y0032064D01*
X0042167Y0032164D01*
X0041879Y0032271D01*
X0041594Y0032385D01*
X0041312Y0032505D01*
X0041034Y0032633D01*
X0040758Y0032768D01*
X0040486Y0032909D01*
X0040217Y0033057D01*
X0039952Y0033211D01*
X0039691Y0033372D01*
X0039433Y0033540D01*
X0039180Y0033713D01*
X0038932Y0033893D01*
X0038688Y0034079D01*
X0038448Y0034270D01*
X0038213Y0034468D01*
X0037984Y0034671D01*
X0037759Y0034880D01*
X0037539Y0035094D01*
X0037325Y0035314D01*
X0037116Y0035539D01*
X0036913Y0035768D01*
X0036715Y0036003D01*
X0036524Y0036243D01*
X0036338Y0036487D01*
X0036158Y0036735D01*
X0035985Y0036988D01*
X0035817Y0037246D01*
X0035656Y0037507D01*
X0035502Y0037772D01*
X0035354Y0038041D01*
X0035213Y0038313D01*
X0035078Y0038589D01*
X0034950Y0038867D01*
X0034830Y0039149D01*
X0034716Y0039434D01*
X0034609Y0039722D01*
X0034509Y0040012D01*
X0034416Y0040304D01*
X0034331Y0040599D01*
X0034253Y0040896D01*
X0034182Y0041194D01*
X0034118Y0041494D01*
X0034062Y0041796D01*
X0034013Y0042099D01*
X0033972Y0042403D01*
X0033938Y0042708D01*
X0033912Y0043013D01*
X0033893Y0043320D01*
X0033882Y0043626D01*
X0033878Y0043933D01*
X0153878Y0163933D02*
X0153882Y0164240D01*
X0153893Y0164546D01*
X0153912Y0164853D01*
X0153938Y0165158D01*
X0153972Y0165463D01*
X0154013Y0165767D01*
X0154062Y0166070D01*
X0154118Y0166372D01*
X0154182Y0166672D01*
X0154253Y0166970D01*
X0154331Y0167267D01*
X0154416Y0167562D01*
X0154509Y0167854D01*
X0154609Y0168144D01*
X0154716Y0168432D01*
X0154830Y0168717D01*
X0154950Y0168999D01*
X0155078Y0169277D01*
X0155213Y0169553D01*
X0155354Y0169825D01*
X0155502Y0170094D01*
X0155656Y0170359D01*
X0155817Y0170620D01*
X0155985Y0170878D01*
X0156158Y0171131D01*
X0156338Y0171379D01*
X0156524Y0171623D01*
X0156715Y0171863D01*
X0156913Y0172098D01*
X0157116Y0172327D01*
X0157325Y0172552D01*
X0157539Y0172772D01*
X0157759Y0172986D01*
X0157984Y0173195D01*
X0158213Y0173398D01*
X0158448Y0173596D01*
X0158688Y0173787D01*
X0158932Y0173973D01*
X0159180Y0174153D01*
X0159433Y0174326D01*
X0159691Y0174494D01*
X0159952Y0174655D01*
X0160217Y0174809D01*
X0160486Y0174957D01*
X0160758Y0175098D01*
X0161034Y0175233D01*
X0161312Y0175361D01*
X0161594Y0175481D01*
X0161879Y0175595D01*
X0162167Y0175702D01*
X0162457Y0175802D01*
X0162749Y0175895D01*
X0163044Y0175980D01*
X0163341Y0176058D01*
X0163639Y0176129D01*
X0163939Y0176193D01*
X0164241Y0176249D01*
X0164544Y0176298D01*
X0164848Y0176339D01*
X0165153Y0176373D01*
X0165458Y0176399D01*
X0165765Y0176418D01*
X0166071Y0176429D01*
X0166378Y0176433D01*
X0166685Y0176429D01*
X0166991Y0176418D01*
X0167298Y0176399D01*
X0167603Y0176373D01*
X0167908Y0176339D01*
X0168212Y0176298D01*
X0168515Y0176249D01*
X0168817Y0176193D01*
X0169117Y0176129D01*
X0169415Y0176058D01*
X0169712Y0175980D01*
X0170007Y0175895D01*
X0170299Y0175802D01*
X0170589Y0175702D01*
X0170877Y0175595D01*
X0171162Y0175481D01*
X0171444Y0175361D01*
X0171722Y0175233D01*
X0171998Y0175098D01*
X0172270Y0174957D01*
X0172539Y0174809D01*
X0172804Y0174655D01*
X0173065Y0174494D01*
X0173323Y0174326D01*
X0173576Y0174153D01*
X0173824Y0173973D01*
X0174068Y0173787D01*
X0174308Y0173596D01*
X0174543Y0173398D01*
X0174772Y0173195D01*
X0174997Y0172986D01*
X0175217Y0172772D01*
X0175431Y0172552D01*
X0175640Y0172327D01*
X0175843Y0172098D01*
X0176041Y0171863D01*
X0176232Y0171623D01*
X0176418Y0171379D01*
X0176598Y0171131D01*
X0176771Y0170878D01*
X0176939Y0170620D01*
X0177100Y0170359D01*
X0177254Y0170094D01*
X0177402Y0169825D01*
X0177543Y0169553D01*
X0177678Y0169277D01*
X0177806Y0168999D01*
X0177926Y0168717D01*
X0178040Y0168432D01*
X0178147Y0168144D01*
X0178247Y0167854D01*
X0178340Y0167562D01*
X0178425Y0167267D01*
X0178503Y0166970D01*
X0178574Y0166672D01*
X0178638Y0166372D01*
X0178694Y0166070D01*
X0178743Y0165767D01*
X0178784Y0165463D01*
X0178818Y0165158D01*
X0178844Y0164853D01*
X0178863Y0164546D01*
X0178874Y0164240D01*
X0178878Y0163933D01*
X0178874Y0163626D01*
X0178863Y0163320D01*
X0178844Y0163013D01*
X0178818Y0162708D01*
X0178784Y0162403D01*
X0178743Y0162099D01*
X0178694Y0161796D01*
X0178638Y0161494D01*
X0178574Y0161194D01*
X0178503Y0160896D01*
X0178425Y0160599D01*
X0178340Y0160304D01*
X0178247Y0160012D01*
X0178147Y0159722D01*
X0178040Y0159434D01*
X0177926Y0159149D01*
X0177806Y0158867D01*
X0177678Y0158589D01*
X0177543Y0158313D01*
X0177402Y0158041D01*
X0177254Y0157772D01*
X0177100Y0157507D01*
X0176939Y0157246D01*
X0176771Y0156988D01*
X0176598Y0156735D01*
X0176418Y0156487D01*
X0176232Y0156243D01*
X0176041Y0156003D01*
X0175843Y0155768D01*
X0175640Y0155539D01*
X0175431Y0155314D01*
X0175217Y0155094D01*
X0174997Y0154880D01*
X0174772Y0154671D01*
X0174543Y0154468D01*
X0174308Y0154270D01*
X0174068Y0154079D01*
X0173824Y0153893D01*
X0173576Y0153713D01*
X0173323Y0153540D01*
X0173065Y0153372D01*
X0172804Y0153211D01*
X0172539Y0153057D01*
X0172270Y0152909D01*
X0171998Y0152768D01*
X0171722Y0152633D01*
X0171444Y0152505D01*
X0171162Y0152385D01*
X0170877Y0152271D01*
X0170589Y0152164D01*
X0170299Y0152064D01*
X0170007Y0151971D01*
X0169712Y0151886D01*
X0169415Y0151808D01*
X0169117Y0151737D01*
X0168817Y0151673D01*
X0168515Y0151617D01*
X0168212Y0151568D01*
X0167908Y0151527D01*
X0167603Y0151493D01*
X0167298Y0151467D01*
X0166991Y0151448D01*
X0166685Y0151437D01*
X0166378Y0151433D01*
X0166071Y0151437D01*
X0165765Y0151448D01*
X0165458Y0151467D01*
X0165153Y0151493D01*
X0164848Y0151527D01*
X0164544Y0151568D01*
X0164241Y0151617D01*
X0163939Y0151673D01*
X0163639Y0151737D01*
X0163341Y0151808D01*
X0163044Y0151886D01*
X0162749Y0151971D01*
X0162457Y0152064D01*
X0162167Y0152164D01*
X0161879Y0152271D01*
X0161594Y0152385D01*
X0161312Y0152505D01*
X0161034Y0152633D01*
X0160758Y0152768D01*
X0160486Y0152909D01*
X0160217Y0153057D01*
X0159952Y0153211D01*
X0159691Y0153372D01*
X0159433Y0153540D01*
X0159180Y0153713D01*
X0158932Y0153893D01*
X0158688Y0154079D01*
X0158448Y0154270D01*
X0158213Y0154468D01*
X0157984Y0154671D01*
X0157759Y0154880D01*
X0157539Y0155094D01*
X0157325Y0155314D01*
X0157116Y0155539D01*
X0156913Y0155768D01*
X0156715Y0156003D01*
X0156524Y0156243D01*
X0156338Y0156487D01*
X0156158Y0156735D01*
X0155985Y0156988D01*
X0155817Y0157246D01*
X0155656Y0157507D01*
X0155502Y0157772D01*
X0155354Y0158041D01*
X0155213Y0158313D01*
X0155078Y0158589D01*
X0154950Y0158867D01*
X0154830Y0159149D01*
X0154716Y0159434D01*
X0154609Y0159722D01*
X0154509Y0160012D01*
X0154416Y0160304D01*
X0154331Y0160599D01*
X0154253Y0160896D01*
X0154182Y0161194D01*
X0154118Y0161494D01*
X0154062Y0161796D01*
X0154013Y0162099D01*
X0153972Y0162403D01*
X0153938Y0162708D01*
X0153912Y0163013D01*
X0153893Y0163320D01*
X0153882Y0163626D01*
X0153878Y0163933D01*
D11*
X0089553Y0128933D03*
X0088153Y0104783D03*
X0090253Y0103033D03*
X0090603Y0102683D03*
X0090603Y0101983D03*
X0090953Y0101633D03*
X0090953Y0101283D03*
X0090953Y0100933D03*
X0090953Y0100583D03*
X0090953Y0100233D03*
X0090953Y0099883D03*
X0090953Y0099533D03*
X0090603Y0099183D03*
X0090603Y0098833D03*
X0090253Y0098483D03*
X0088153Y0096733D03*
X0085703Y0098833D03*
X0085703Y0099183D03*
X0085353Y0099533D03*
X0085353Y0099883D03*
X0085353Y0100233D03*
X0085353Y0100583D03*
X0085353Y0100933D03*
X0085353Y0101283D03*
X0085353Y0101633D03*
X0085703Y0102333D03*
X0085703Y0102683D03*
X0081853Y0102333D03*
X0081853Y0101983D03*
X0081853Y0101633D03*
X0081853Y0101283D03*
X0081853Y0100933D03*
X0081853Y0100583D03*
X0081853Y0100233D03*
X0081853Y0099883D03*
X0081853Y0099533D03*
X0081853Y0099183D03*
X0081853Y0098833D03*
X0081853Y0098483D03*
X0081853Y0098133D03*
X0081853Y0097783D03*
X0081853Y0097433D03*
X0081853Y0097083D03*
X0076953Y0097083D03*
X0076953Y0097433D03*
X0076953Y0097783D03*
X0076953Y0098133D03*
X0076953Y0098483D03*
X0076953Y0098833D03*
X0076953Y0099183D03*
X0076953Y0099533D03*
X0076953Y0099883D03*
X0076953Y0100233D03*
X0076953Y0100583D03*
X0076953Y0100933D03*
X0076953Y0101283D03*
X0076953Y0101633D03*
X0076953Y0101983D03*
X0076953Y0102333D03*
X0073803Y0104783D03*
X0072403Y0102683D03*
X0072403Y0102333D03*
X0072403Y0101983D03*
X0072403Y0101633D03*
X0072403Y0101283D03*
X0072403Y0100933D03*
X0072403Y0100583D03*
X0072403Y0100233D03*
X0072403Y0099883D03*
X0072403Y0099533D03*
X0072403Y0099183D03*
X0072403Y0098833D03*
X0072403Y0098483D03*
X0072403Y0098133D03*
X0072403Y0097783D03*
X0072403Y0097433D03*
X0072403Y0097083D03*
X0081853Y0104083D03*
X0081853Y0104433D03*
X0094103Y0102683D03*
X0094103Y0102333D03*
X0094453Y0103033D03*
X0094103Y0099183D03*
X0094103Y0098833D03*
X0094453Y0098483D03*
X0096553Y0096733D03*
X0099003Y0098833D03*
X0099003Y0099183D03*
X0099353Y0099533D03*
X0099353Y0099883D03*
X0099353Y0100233D03*
X0099353Y0100583D03*
X0099353Y0100933D03*
X0099353Y0101283D03*
X0099353Y0101633D03*
X0099003Y0101983D03*
X0099003Y0102333D03*
X0099003Y0102683D03*
X0102853Y0098483D03*
X0102853Y0097783D03*
X0102853Y0097083D03*
X0107403Y0100233D03*
X0107053Y0100933D03*
X0107053Y0101633D03*
X0106703Y0101983D03*
X0106703Y0102683D03*
X0106703Y0103033D03*
X0106353Y0103383D03*
X0106353Y0103733D03*
X0106353Y0104083D03*
X0110903Y0103733D03*
X0110903Y0104433D03*
X0115103Y0102683D03*
X0115103Y0101983D03*
X0114753Y0101633D03*
X0114753Y0101283D03*
X0114403Y0100233D03*
X0114403Y0099883D03*
X0113353Y0097083D03*
X0108453Y0097083D03*
X0115453Y0103383D03*
X0115453Y0103733D03*
X0115453Y0104083D03*
X0118953Y0102683D03*
X0118953Y0102333D03*
X0118603Y0101633D03*
X0118603Y0101283D03*
X0118603Y0100933D03*
X0118603Y0100583D03*
X0118603Y0100233D03*
X0118603Y0099883D03*
X0118603Y0099533D03*
X0118953Y0099183D03*
X0118953Y0098833D03*
X0121403Y0096733D03*
X0123853Y0098833D03*
X0123853Y0099183D03*
X0124203Y0099533D03*
X0124203Y0099883D03*
X0124203Y0100233D03*
X0124203Y0100583D03*
X0124203Y0100933D03*
X0124203Y0101283D03*
X0124203Y0101633D03*
X0123853Y0101983D03*
X0123853Y0102683D03*
X0121403Y0104783D03*
X0127003Y0104433D03*
X0129803Y0104433D03*
X0129803Y0104083D03*
X0129803Y0101633D03*
X0129803Y0101283D03*
X0129803Y0100933D03*
X0129803Y0100583D03*
X0129803Y0100233D03*
X0129803Y0099883D03*
X0129803Y0099533D03*
X0129803Y0099183D03*
X0129803Y0098833D03*
X0129803Y0098483D03*
X0129803Y0098133D03*
X0129803Y0097783D03*
X0129803Y0097433D03*
X0129803Y0097083D03*
X0135403Y0097083D03*
X0135403Y0097433D03*
X0135403Y0097783D03*
X0135403Y0098133D03*
X0135403Y0098483D03*
X0135403Y0098833D03*
X0135403Y0099183D03*
X0135403Y0099533D03*
X0135403Y0099883D03*
X0135403Y0100233D03*
X0135403Y0100583D03*
X0135403Y0100933D03*
X0135403Y0101283D03*
X0135403Y0101633D03*
X0135403Y0104083D03*
X0135403Y0104433D03*
X0132603Y0104433D03*
X0138903Y0103033D03*
X0138903Y0102683D03*
X0138903Y0102333D03*
X0138903Y0100583D03*
X0138903Y0100233D03*
X0138903Y0099883D03*
X0138903Y0099533D03*
X0138903Y0099183D03*
X0143803Y0099883D03*
X0144153Y0099533D03*
X0144153Y0099183D03*
X0144153Y0098833D03*
X0144153Y0098483D03*
X0142403Y0096733D03*
X0143803Y0102683D03*
X0143803Y0103033D03*
D12*
X0142403Y0100583D03*
X0142403Y0097083D03*
X0121403Y0097083D03*
X0121403Y0104433D03*
X0125253Y0116683D03*
X0125603Y0117033D03*
X0125953Y0117733D03*
X0126303Y0118433D03*
X0126653Y0119133D03*
X0127003Y0119483D03*
X0127003Y0119833D03*
X0127353Y0120183D03*
X0127353Y0120533D03*
X0127703Y0120883D03*
X0128053Y0121583D03*
X0128403Y0122283D03*
X0128753Y0122633D03*
X0128753Y0122983D03*
X0129103Y0123333D03*
X0129103Y0123683D03*
X0119653Y0131033D03*
X0110203Y0124033D03*
X0110203Y0123683D03*
X0109853Y0123333D03*
X0109853Y0122983D03*
X0109503Y0122633D03*
X0109153Y0121933D03*
X0109153Y0121583D03*
X0108803Y0121233D03*
X0108453Y0120533D03*
X0108103Y0119833D03*
X0107753Y0119483D03*
X0107753Y0119133D03*
X0107403Y0118783D03*
X0107403Y0118433D03*
X0107053Y0118083D03*
X0107053Y0117733D03*
X0106703Y0117383D03*
X0089903Y0116683D03*
X0080453Y0118783D03*
X0079753Y0116683D03*
X0081153Y0122283D03*
X0082203Y0127533D03*
X0073453Y0126483D03*
X0073103Y0128233D03*
X0073803Y0124733D03*
X0066453Y0121933D03*
X0066103Y0120183D03*
X0065403Y0116683D03*
X0060853Y0116683D03*
X0060503Y0117733D03*
X0058753Y0126833D03*
X0073803Y0104083D03*
X0078353Y0104083D03*
X0088153Y0104433D03*
X0088153Y0097083D03*
X0096553Y0097083D03*
X0096553Y0104433D03*
X0100753Y0131033D03*
X0146603Y0122283D03*
X0146253Y0120533D03*
X0145203Y0116683D03*
X0155003Y0129983D03*
X0154653Y0131033D03*
D13*
X0158678Y0112833D03*
X0138728Y0097083D03*
X0118778Y0101983D03*
X0114928Y0102333D03*
X0114578Y0100933D03*
X0114578Y0100583D03*
X0112128Y0100583D03*
X0112128Y0100233D03*
X0112128Y0099883D03*
X0109678Y0099883D03*
X0109678Y0100233D03*
X0109678Y0100583D03*
X0110028Y0101633D03*
X0107228Y0101283D03*
X0107228Y0100583D03*
X0107578Y0099883D03*
X0106878Y0102333D03*
X0093928Y0099533D03*
X0085528Y0101983D03*
X0100928Y0118783D03*
X0057528Y0134883D03*
D14*
X0070478Y0133833D03*
X0063128Y0113533D03*
X0077828Y0113533D03*
X0141178Y0097433D03*
X0151678Y0134533D03*
D15*
X0134003Y0103733D03*
X0134003Y0103383D03*
X0128403Y0103383D03*
X0128403Y0103733D03*
X0121403Y0104083D03*
X0121403Y0097433D03*
X0140303Y0101283D03*
X0096553Y0097433D03*
X0088153Y0097433D03*
X0088153Y0104083D03*
D16*
X0085878Y0103033D03*
X0081678Y0102683D03*
X0076778Y0102683D03*
X0072578Y0103033D03*
X0085878Y0098483D03*
X0090078Y0098133D03*
X0090778Y0102333D03*
X0094628Y0103383D03*
X0096728Y0104783D03*
X0098828Y0103033D03*
X0098828Y0098483D03*
X0098478Y0098133D03*
X0103028Y0098133D03*
X0103028Y0097433D03*
X0103028Y0098833D03*
X0108628Y0097433D03*
X0113178Y0097433D03*
X0115278Y0103033D03*
X0115628Y0104433D03*
X0119128Y0103033D03*
X0119128Y0098483D03*
X0123328Y0098133D03*
X0123678Y0098483D03*
X0124028Y0102333D03*
X0123678Y0103033D03*
X0127178Y0104083D03*
X0129628Y0102333D03*
X0129628Y0101983D03*
X0132778Y0104083D03*
X0135228Y0102333D03*
X0135228Y0101983D03*
X0139078Y0101983D03*
X0139078Y0103383D03*
X0143278Y0103383D03*
X0139078Y0098833D03*
X0158678Y0113183D03*
X0110728Y0104083D03*
X0106178Y0104433D03*
X0057528Y0134533D03*
D17*
X0070303Y0133483D03*
X0077653Y0113883D03*
X0141353Y0097783D03*
D18*
X0121403Y0097783D03*
X0121403Y0103733D03*
X0096553Y0103733D03*
X0096553Y0097783D03*
X0088153Y0097783D03*
X0088153Y0103733D03*
X0077653Y0113183D03*
X0062953Y0113183D03*
D19*
X0076953Y0103033D03*
X0078353Y0104433D03*
X0081503Y0103033D03*
X0086403Y0098133D03*
X0089903Y0103383D03*
X0098303Y0103383D03*
X0094803Y0098133D03*
X0108453Y0098133D03*
X0108453Y0097783D03*
X0108453Y0098483D03*
X0113353Y0098483D03*
X0113353Y0098133D03*
X0113353Y0097783D03*
X0110903Y0102333D03*
X0110903Y0102683D03*
X0110903Y0103033D03*
X0110903Y0103383D03*
X0119653Y0098133D03*
X0123153Y0103383D03*
X0139253Y0098483D03*
X0143803Y0098133D03*
X0101103Y0119133D03*
X0089553Y0128583D03*
D20*
X0089728Y0129283D03*
X0089728Y0131033D03*
X0089028Y0131033D03*
X0088328Y0131033D03*
X0087628Y0131033D03*
X0086928Y0131033D03*
X0086228Y0131033D03*
X0085528Y0131033D03*
X0090428Y0131033D03*
X0091128Y0131033D03*
X0091828Y0131033D03*
X0092528Y0131033D03*
X0093228Y0131033D03*
X0093928Y0131033D03*
X0094628Y0131033D03*
X0095328Y0131033D03*
X0096028Y0131033D03*
X0096728Y0131033D03*
X0097428Y0131033D03*
X0098128Y0131033D03*
X0112828Y0131033D03*
X0113528Y0131033D03*
X0114228Y0131033D03*
X0114928Y0131033D03*
X0115628Y0131033D03*
X0116328Y0131033D03*
X0117028Y0131033D03*
X0132428Y0131033D03*
X0133128Y0131033D03*
X0133828Y0131033D03*
X0134528Y0131033D03*
X0135228Y0131033D03*
X0135928Y0131033D03*
X0151328Y0131033D03*
X0152028Y0131033D03*
X0142578Y0116683D03*
X0141878Y0116683D03*
X0141178Y0116683D03*
X0122628Y0116683D03*
X0103378Y0116683D03*
X0102678Y0116683D03*
X0101978Y0116683D03*
X0101278Y0116683D03*
X0100578Y0116683D03*
X0099878Y0116683D03*
X0098128Y0116683D03*
X0097428Y0116683D03*
X0095678Y0116683D03*
X0094978Y0116683D03*
X0093228Y0116683D03*
X0092528Y0116683D03*
X0096378Y0103383D03*
X0093928Y0101983D03*
X0093228Y0101983D03*
X0096728Y0098133D03*
X0102328Y0099183D03*
X0103028Y0099183D03*
X0103728Y0099183D03*
X0088328Y0098133D03*
X0079228Y0104783D03*
X0121578Y0098133D03*
X0126128Y0103033D03*
X0126828Y0103033D03*
X0131728Y0103033D03*
X0132428Y0103033D03*
X0141528Y0098133D03*
X0143278Y0101283D03*
D21*
X0143278Y0100233D03*
X0139428Y0101633D03*
X0141178Y0104783D03*
X0134878Y0102683D03*
X0129278Y0102683D03*
X0119828Y0103383D03*
X0139428Y0098133D03*
X0158678Y0113533D03*
X0100928Y0119483D03*
X0089728Y0128233D03*
X0086578Y0103383D03*
X0073978Y0104433D03*
X0057528Y0134183D03*
D22*
X0057353Y0133833D03*
X0058403Y0128233D03*
X0058753Y0126483D03*
X0059103Y0124733D03*
X0059453Y0123333D03*
X0059803Y0121233D03*
X0060503Y0118083D03*
X0060503Y0117383D03*
X0065753Y0118083D03*
X0066103Y0119833D03*
X0066453Y0121583D03*
X0073803Y0124383D03*
X0073453Y0126133D03*
X0073103Y0127883D03*
X0074153Y0122633D03*
X0074853Y0119133D03*
X0080453Y0118433D03*
X0080803Y0120183D03*
X0081153Y0121933D03*
X0081503Y0123683D03*
X0082203Y0127183D03*
X0082553Y0129633D03*
X0089553Y0127533D03*
X0089553Y0126483D03*
X0089553Y0125433D03*
X0089553Y0124033D03*
X0089553Y0122983D03*
X0089553Y0121583D03*
X0089553Y0120533D03*
X0089553Y0119483D03*
X0089553Y0118433D03*
X0089553Y0117383D03*
X0101103Y0123683D03*
X0101103Y0127183D03*
X0101103Y0129283D03*
X0119653Y0128933D03*
X0119653Y0127533D03*
X0119653Y0126133D03*
X0119653Y0124733D03*
X0119653Y0123333D03*
X0119653Y0121933D03*
X0119653Y0120533D03*
X0119653Y0119133D03*
X0119653Y0117733D03*
X0119653Y0117033D03*
X0129453Y0125083D03*
X0129453Y0125783D03*
X0129453Y0126483D03*
X0129453Y0127183D03*
X0129453Y0127883D03*
X0129453Y0128583D03*
X0129453Y0129283D03*
X0129453Y0129983D03*
X0129453Y0130683D03*
X0138553Y0129983D03*
X0138553Y0128933D03*
X0138553Y0128233D03*
X0138553Y0127183D03*
X0138553Y0126483D03*
X0138553Y0125433D03*
X0138553Y0124733D03*
X0138553Y0124033D03*
X0138553Y0123333D03*
X0138553Y0122283D03*
X0138553Y0121233D03*
X0138553Y0120533D03*
X0138553Y0119833D03*
X0138553Y0119133D03*
X0138553Y0118433D03*
X0138553Y0117383D03*
X0146603Y0121933D03*
X0157453Y0119833D03*
X0158853Y0113883D03*
X0134703Y0103033D03*
X0129103Y0103033D03*
X0113353Y0099533D03*
X0113353Y0099183D03*
X0113353Y0098833D03*
X0108453Y0098833D03*
X0108453Y0099183D03*
X0108453Y0099533D03*
X0110903Y0101283D03*
X0110903Y0101983D03*
X0119653Y0130333D03*
X0067853Y0129283D03*
X0067503Y0127533D03*
D23*
X0070303Y0134183D03*
X0122103Y0113183D03*
X0141353Y0103733D03*
X0141003Y0100933D03*
D24*
X0132253Y0104783D03*
X0126653Y0104783D03*
X0111953Y0101633D03*
X0111953Y0100933D03*
X0109853Y0100933D03*
X0078003Y0104783D03*
D25*
X0077303Y0103733D03*
X0077303Y0103383D03*
X0115103Y0134533D03*
X0134003Y0134533D03*
D26*
X0141178Y0104083D03*
D27*
X0141178Y0104433D03*
X0096378Y0104083D03*
X0070478Y0134533D03*
D28*
X0070303Y0132783D03*
X0070303Y0132083D03*
X0070303Y0131733D03*
X0062953Y0114583D03*
X0077653Y0114583D03*
X0077653Y0114233D03*
X0141703Y0113183D03*
X0151853Y0134183D03*
D29*
X0097428Y0113183D03*
D30*
X0122103Y0114933D03*
X0122453Y0115633D03*
X0141703Y0113533D03*
X0151853Y0132433D03*
X0151853Y0132783D03*
D31*
X0121928Y0113533D03*
X0070478Y0132433D03*
X0070478Y0133133D03*
X0063128Y0114233D03*
X0063128Y0113883D03*
D32*
X0097603Y0113533D03*
D33*
X0122278Y0115983D03*
X0122628Y0116333D03*
X0141878Y0113883D03*
X0151678Y0131383D03*
X0151678Y0131733D03*
X0151678Y0132083D03*
D34*
X0121928Y0114233D03*
X0121928Y0113883D03*
X0077828Y0114933D03*
X0077828Y0115283D03*
X0077828Y0115983D03*
X0063128Y0115633D03*
X0063128Y0115283D03*
X0063128Y0114933D03*
X0070478Y0131383D03*
D35*
X0097603Y0113883D03*
D36*
X0100928Y0119833D03*
X0100928Y0120183D03*
X0100928Y0120533D03*
X0100928Y0120883D03*
X0100928Y0121233D03*
X0100928Y0121583D03*
X0100928Y0121933D03*
X0100928Y0122283D03*
X0100928Y0122633D03*
X0100928Y0122983D03*
X0100928Y0123333D03*
X0100928Y0124033D03*
X0100928Y0124383D03*
X0100928Y0124733D03*
X0100928Y0125083D03*
X0100928Y0125433D03*
X0100928Y0125783D03*
X0100928Y0126133D03*
X0100928Y0126483D03*
X0100928Y0126833D03*
X0100928Y0127533D03*
X0100928Y0127883D03*
X0100928Y0128233D03*
X0100928Y0128583D03*
X0100928Y0128933D03*
X0100928Y0129633D03*
X0100928Y0129983D03*
X0100928Y0130333D03*
X0100928Y0130683D03*
X0110378Y0130683D03*
X0110378Y0130333D03*
X0110378Y0129983D03*
X0110378Y0129633D03*
X0110378Y0129283D03*
X0110378Y0128933D03*
X0110378Y0128583D03*
X0110378Y0128233D03*
X0110378Y0127883D03*
X0110378Y0127533D03*
X0110378Y0127183D03*
X0110378Y0126833D03*
X0110378Y0126483D03*
X0110378Y0126133D03*
X0110378Y0125783D03*
X0110378Y0125433D03*
X0110378Y0125083D03*
X0110378Y0124733D03*
X0110378Y0124383D03*
X0110378Y0131033D03*
X0119478Y0130683D03*
X0119478Y0129983D03*
X0119828Y0129633D03*
X0119478Y0129283D03*
X0119478Y0128583D03*
X0119828Y0128233D03*
X0119478Y0127883D03*
X0119478Y0127183D03*
X0119828Y0126833D03*
X0119478Y0126483D03*
X0119478Y0125783D03*
X0119828Y0125433D03*
X0119478Y0125083D03*
X0119478Y0124383D03*
X0119828Y0124033D03*
X0119478Y0123683D03*
X0119478Y0122983D03*
X0119828Y0122633D03*
X0119478Y0122283D03*
X0119478Y0121583D03*
X0119828Y0121233D03*
X0119478Y0120883D03*
X0119478Y0120183D03*
X0119828Y0119833D03*
X0119478Y0119483D03*
X0119478Y0118783D03*
X0119828Y0118433D03*
X0119478Y0118083D03*
X0119478Y0117383D03*
X0129278Y0124033D03*
X0129278Y0124383D03*
X0129278Y0124733D03*
X0129278Y0125433D03*
X0129278Y0126133D03*
X0129278Y0126833D03*
X0129278Y0127533D03*
X0129278Y0128233D03*
X0129278Y0128933D03*
X0129278Y0129633D03*
X0129278Y0130333D03*
X0138378Y0131033D03*
X0138728Y0130683D03*
X0138728Y0130333D03*
X0138728Y0129633D03*
X0138728Y0129283D03*
X0138728Y0128583D03*
X0138728Y0127883D03*
X0138728Y0127533D03*
X0138728Y0126833D03*
X0138728Y0126133D03*
X0138728Y0125783D03*
X0138728Y0125083D03*
X0138728Y0124383D03*
X0138728Y0123683D03*
X0138728Y0122983D03*
X0138728Y0122633D03*
X0138728Y0121933D03*
X0138728Y0121583D03*
X0138728Y0120883D03*
X0138728Y0120183D03*
X0138728Y0119483D03*
X0138728Y0118783D03*
X0138728Y0118083D03*
X0138728Y0117733D03*
X0138728Y0117033D03*
X0138728Y0116683D03*
X0145378Y0117033D03*
X0145378Y0117383D03*
X0145728Y0117733D03*
X0145728Y0118083D03*
X0145728Y0118433D03*
X0145728Y0118783D03*
X0146078Y0119133D03*
X0146078Y0119483D03*
X0146078Y0119833D03*
X0146078Y0120183D03*
X0146428Y0120883D03*
X0146428Y0121233D03*
X0146428Y0121583D03*
X0146778Y0122633D03*
X0146778Y0122983D03*
X0146778Y0123333D03*
X0147128Y0123683D03*
X0147128Y0124033D03*
X0147128Y0124383D03*
X0147128Y0124733D03*
X0147478Y0125083D03*
X0147478Y0125433D03*
X0147478Y0125783D03*
X0147478Y0126133D03*
X0147828Y0126483D03*
X0147828Y0126833D03*
X0147828Y0127183D03*
X0147828Y0127533D03*
X0148178Y0127883D03*
X0148178Y0128233D03*
X0148178Y0128583D03*
X0148178Y0128933D03*
X0148528Y0129283D03*
X0148528Y0129633D03*
X0148528Y0129983D03*
X0148528Y0130333D03*
X0148878Y0130683D03*
X0148878Y0131033D03*
X0154828Y0130683D03*
X0154828Y0130333D03*
X0155178Y0129633D03*
X0155178Y0129283D03*
X0155178Y0128933D03*
X0155178Y0128583D03*
X0155528Y0128233D03*
X0155528Y0127883D03*
X0155528Y0127533D03*
X0155528Y0127183D03*
X0155878Y0126833D03*
X0155878Y0126483D03*
X0155878Y0126133D03*
X0155878Y0125783D03*
X0156228Y0125433D03*
X0156228Y0125083D03*
X0156228Y0124733D03*
X0156228Y0124383D03*
X0156578Y0124033D03*
X0156578Y0123683D03*
X0156578Y0123333D03*
X0156578Y0122983D03*
X0156928Y0122633D03*
X0156928Y0122283D03*
X0156928Y0121933D03*
X0156928Y0121583D03*
X0157278Y0121233D03*
X0157278Y0120883D03*
X0157278Y0120533D03*
X0157278Y0120183D03*
X0157628Y0119483D03*
X0157628Y0119133D03*
X0157628Y0118783D03*
X0157628Y0118433D03*
X0157978Y0118083D03*
X0157978Y0117733D03*
X0157978Y0117383D03*
X0157978Y0117033D03*
X0158328Y0116683D03*
X0158328Y0116333D03*
X0158328Y0115983D03*
X0158328Y0115633D03*
X0158678Y0115283D03*
X0158678Y0114933D03*
X0158678Y0114583D03*
X0158678Y0114233D03*
X0089728Y0117033D03*
X0089728Y0117733D03*
X0089728Y0118083D03*
X0089728Y0118783D03*
X0089728Y0119133D03*
X0089728Y0119833D03*
X0089728Y0120183D03*
X0089728Y0120883D03*
X0089728Y0121233D03*
X0089728Y0121933D03*
X0089728Y0122283D03*
X0089728Y0122633D03*
X0089728Y0123333D03*
X0089728Y0123683D03*
X0089728Y0124383D03*
X0089728Y0124733D03*
X0089728Y0125083D03*
X0089728Y0125783D03*
X0089728Y0126133D03*
X0089728Y0126833D03*
X0089728Y0127183D03*
X0089728Y0127883D03*
X0082728Y0129283D03*
X0082378Y0128933D03*
X0082378Y0128583D03*
X0082378Y0128233D03*
X0082378Y0127883D03*
X0082028Y0126833D03*
X0082028Y0126483D03*
X0082028Y0126133D03*
X0082028Y0125783D03*
X0081678Y0125433D03*
X0081678Y0125083D03*
X0081678Y0124733D03*
X0081678Y0124383D03*
X0081678Y0124033D03*
X0081328Y0123333D03*
X0081328Y0122983D03*
X0081328Y0122633D03*
X0080978Y0121583D03*
X0080978Y0121233D03*
X0080978Y0120883D03*
X0080978Y0120533D03*
X0080628Y0119833D03*
X0080628Y0119483D03*
X0080628Y0119133D03*
X0080278Y0118083D03*
X0080278Y0117733D03*
X0080278Y0117383D03*
X0080278Y0117033D03*
X0075378Y0117033D03*
X0075378Y0116683D03*
X0075028Y0117383D03*
X0075028Y0117733D03*
X0075028Y0118083D03*
X0075028Y0118433D03*
X0075028Y0118783D03*
X0074678Y0119483D03*
X0074678Y0119833D03*
X0074678Y0120183D03*
X0074678Y0120533D03*
X0074328Y0120883D03*
X0074678Y0121233D03*
X0074328Y0121583D03*
X0074328Y0121933D03*
X0074328Y0122283D03*
X0073978Y0122983D03*
X0073978Y0123333D03*
X0073978Y0123683D03*
X0073978Y0124033D03*
X0073628Y0125083D03*
X0073628Y0125433D03*
X0073628Y0125783D03*
X0073278Y0126833D03*
X0073278Y0127183D03*
X0073278Y0127533D03*
X0072928Y0128583D03*
X0072928Y0128933D03*
X0072928Y0129283D03*
X0072928Y0129633D03*
X0072578Y0129983D03*
X0072578Y0130333D03*
X0072578Y0130683D03*
X0072578Y0131033D03*
X0068378Y0131033D03*
X0068378Y0130683D03*
X0068028Y0130333D03*
X0068028Y0129983D03*
X0068028Y0129633D03*
X0068028Y0128933D03*
X0067678Y0128583D03*
X0067678Y0128233D03*
X0067678Y0127883D03*
X0067678Y0127183D03*
X0067328Y0126833D03*
X0067328Y0126483D03*
X0067328Y0126133D03*
X0067328Y0125783D03*
X0067328Y0125433D03*
X0066978Y0125083D03*
X0066978Y0124733D03*
X0066978Y0124383D03*
X0066978Y0124033D03*
X0066978Y0123683D03*
X0066628Y0123333D03*
X0066628Y0122983D03*
X0066628Y0122633D03*
X0066628Y0122283D03*
X0066278Y0121233D03*
X0066278Y0120883D03*
X0066278Y0120533D03*
X0065928Y0119483D03*
X0065928Y0119133D03*
X0065928Y0118783D03*
X0065928Y0118433D03*
X0065578Y0117733D03*
X0065578Y0117383D03*
X0065578Y0117033D03*
X0060678Y0117033D03*
X0060328Y0118433D03*
X0060328Y0118783D03*
X0060328Y0119133D03*
X0059978Y0119483D03*
X0059978Y0119833D03*
X0059978Y0120183D03*
X0059978Y0120533D03*
X0059978Y0120883D03*
X0059628Y0121583D03*
X0059628Y0121933D03*
X0059628Y0122283D03*
X0059628Y0122633D03*
X0059278Y0122983D03*
X0059278Y0123683D03*
X0059278Y0124033D03*
X0059278Y0124383D03*
X0058928Y0125083D03*
X0058928Y0125433D03*
X0058928Y0125783D03*
X0058928Y0126133D03*
X0058578Y0127183D03*
X0058578Y0127533D03*
X0058578Y0127883D03*
X0058228Y0128583D03*
X0058228Y0128933D03*
X0058228Y0129283D03*
X0058228Y0129633D03*
X0058228Y0129983D03*
X0057878Y0130333D03*
X0057878Y0130683D03*
X0057878Y0131033D03*
X0057878Y0131383D03*
X0057878Y0131733D03*
X0057528Y0132083D03*
X0057528Y0132433D03*
X0057528Y0132783D03*
X0057528Y0133133D03*
X0057528Y0133483D03*
X0082728Y0130683D03*
X0082728Y0130333D03*
X0082728Y0129983D03*
X0083078Y0131033D03*
D37*
X0141703Y0114583D03*
X0141703Y0114233D03*
D38*
X0097428Y0114233D03*
X0092178Y0134533D03*
D39*
X0077653Y0116333D03*
X0077653Y0115633D03*
X0062953Y0115983D03*
X0062953Y0116333D03*
X0122103Y0114583D03*
X0151853Y0133483D03*
X0151853Y0133833D03*
D40*
X0097603Y0114933D03*
X0097603Y0114583D03*
D41*
X0141878Y0114933D03*
X0141878Y0115283D03*
X0141878Y0115633D03*
X0141878Y0115983D03*
D42*
X0122278Y0115283D03*
X0151678Y0133133D03*
D43*
X0097778Y0115633D03*
X0097778Y0115283D03*
D44*
X0097953Y0115983D03*
X0097953Y0116333D03*
X0092003Y0134183D03*
D45*
X0142053Y0116333D03*
D46*
X0128228Y0121933D03*
X0127878Y0121233D03*
X0126478Y0118783D03*
X0126128Y0118083D03*
X0125778Y0117383D03*
X0119828Y0116683D03*
X0109328Y0122283D03*
X0108628Y0120883D03*
X0108278Y0120183D03*
X0106528Y0117033D03*
X0106178Y0116683D03*
X0129628Y0131033D03*
D47*
X0099003Y0116683D03*
X0096553Y0116683D03*
X0094103Y0116683D03*
D48*
X0114928Y0131383D03*
X0114928Y0131733D03*
X0114928Y0132083D03*
X0114928Y0132783D03*
X0114928Y0133133D03*
X0133828Y0131733D03*
X0134178Y0131383D03*
X0134178Y0132083D03*
D49*
X0092003Y0132083D03*
X0092003Y0131733D03*
X0092003Y0131383D03*
X0092003Y0132433D03*
D50*
X0115103Y0132433D03*
X0134003Y0132433D03*
X0134003Y0133133D03*
D51*
X0134003Y0132783D03*
X0134003Y0133483D03*
X0134003Y0133833D03*
X0115103Y0133833D03*
X0115103Y0133483D03*
D52*
X0092178Y0133133D03*
X0092178Y0132783D03*
D53*
X0092003Y0133483D03*
X0092003Y0133833D03*
D54*
X0115103Y0134183D03*
X0134003Y0134183D03*
D55*
X0041378Y0030933D03*
X0041728Y0030933D03*
X0041978Y0034583D03*
X0041478Y0034633D03*
X0041378Y0034633D03*
X0038778Y0038233D03*
X0038628Y0038233D03*
X0038478Y0038233D03*
X0038328Y0038233D03*
X0038178Y0038233D03*
X0036628Y0038233D03*
X0036478Y0038233D03*
X0036328Y0038233D03*
X0036178Y0038233D03*
X0035528Y0041533D03*
X0035278Y0041533D03*
X0034628Y0034633D03*
X0034828Y0033483D03*
D56*
X0034603Y0035383D03*
X0041553Y0030933D03*
D57*
X0041603Y0030983D03*
X0034603Y0035783D03*
D58*
X0036528Y0040233D03*
X0036478Y0040283D03*
X0035428Y0041383D03*
X0039578Y0032933D03*
X0039628Y0032883D03*
X0039678Y0032783D03*
X0041578Y0031033D03*
X0042828Y0032383D03*
X0042828Y0032433D03*
D59*
X0041578Y0031083D03*
X0034878Y0039433D03*
D60*
X0035453Y0041233D03*
X0034603Y0036183D03*
X0041553Y0031133D03*
D61*
X0041578Y0031183D03*
D62*
X0041553Y0031233D03*
X0034603Y0036433D03*
X0035453Y0041033D03*
X0035453Y0041083D03*
D63*
X0034603Y0037433D03*
X0034603Y0036633D03*
X0034603Y0036583D03*
X0041553Y0031283D03*
D64*
X0041528Y0031333D03*
X0034628Y0037183D03*
X0034578Y0037133D03*
X0034578Y0037233D03*
X0035478Y0040833D03*
X0035478Y0040883D03*
D65*
X0035478Y0040783D03*
X0041528Y0031383D03*
D66*
X0041503Y0031433D03*
X0035503Y0040683D03*
D67*
X0035503Y0040583D03*
X0041503Y0031483D03*
D68*
X0041503Y0031533D03*
X0035503Y0040483D03*
D69*
X0041503Y0031583D03*
D70*
X0041478Y0031633D03*
D71*
X0041503Y0031683D03*
D72*
X0041478Y0031733D03*
D73*
X0041453Y0031783D03*
D74*
X0041478Y0031833D03*
D75*
X0041428Y0031883D03*
D76*
X0041453Y0031933D03*
D77*
X0041453Y0031983D03*
X0037203Y0038383D03*
D78*
X0041428Y0032033D03*
D79*
X0041403Y0032083D03*
D80*
X0041403Y0032133D03*
X0037153Y0038433D03*
D81*
X0040053Y0032333D03*
X0042653Y0032183D03*
D82*
X0040278Y0032183D03*
D83*
X0039953Y0032433D03*
X0039903Y0032483D03*
X0039853Y0032533D03*
X0042703Y0032233D03*
X0042753Y0032283D03*
X0042653Y0033383D03*
X0034603Y0035983D03*
X0034603Y0036033D03*
D84*
X0035428Y0041283D03*
X0040178Y0032233D03*
D85*
X0040103Y0032283D03*
X0042553Y0033433D03*
X0034603Y0036083D03*
D86*
X0034703Y0039533D03*
X0034653Y0039583D03*
X0036453Y0040333D03*
X0039653Y0032833D03*
X0039703Y0032733D03*
X0039753Y0032683D03*
X0042753Y0033283D03*
X0042803Y0032333D03*
D87*
X0039978Y0032383D03*
X0034778Y0039483D03*
X0035428Y0041333D03*
D88*
X0034603Y0040383D03*
X0034603Y0039633D03*
X0036553Y0040183D03*
X0036603Y0040133D03*
X0036603Y0040083D03*
X0036653Y0040033D03*
X0036653Y0039983D03*
X0036703Y0039933D03*
X0036703Y0039883D03*
X0036753Y0039783D03*
X0036803Y0039683D03*
X0036803Y0039633D03*
X0036853Y0039533D03*
X0036903Y0039433D03*
X0037403Y0038233D03*
X0037403Y0038183D03*
X0037453Y0038083D03*
X0037453Y0038033D03*
X0037503Y0037933D03*
X0037553Y0037833D03*
X0037553Y0037783D03*
X0037603Y0037683D03*
X0037653Y0037583D03*
X0037703Y0037483D03*
X0037703Y0037433D03*
X0037753Y0037333D03*
X0037803Y0037233D03*
X0037803Y0037183D03*
X0037853Y0037083D03*
X0037903Y0036983D03*
X0037903Y0036933D03*
X0037953Y0036833D03*
X0038003Y0036733D03*
X0038003Y0036683D03*
X0038053Y0036583D03*
X0038103Y0036483D03*
X0038103Y0036433D03*
X0038153Y0036333D03*
X0038203Y0036233D03*
X0038253Y0036083D03*
X0038303Y0035983D03*
X0038353Y0035833D03*
X0038403Y0035733D03*
X0038453Y0035633D03*
X0038453Y0035583D03*
X0038503Y0035483D03*
X0038553Y0035383D03*
X0038553Y0035333D03*
X0038603Y0035233D03*
X0038653Y0035133D03*
X0038653Y0035083D03*
X0038703Y0034983D03*
X0038753Y0034883D03*
X0038803Y0034733D03*
X0039353Y0033383D03*
X0039403Y0033333D03*
X0039403Y0033283D03*
X0039453Y0033183D03*
X0039503Y0033133D03*
X0039503Y0033083D03*
X0039553Y0033033D03*
X0039553Y0032983D03*
X0042803Y0033233D03*
X0042853Y0033183D03*
X0042853Y0033133D03*
X0042903Y0032583D03*
X0042853Y0032483D03*
X0034603Y0035933D03*
D89*
X0037828Y0037133D03*
X0037878Y0037033D03*
X0037928Y0036883D03*
X0037978Y0036783D03*
X0038028Y0036633D03*
X0038078Y0036533D03*
X0038128Y0036383D03*
X0038178Y0036283D03*
X0038228Y0036183D03*
X0038228Y0036133D03*
X0038278Y0036033D03*
X0038328Y0035933D03*
X0038328Y0035883D03*
X0038378Y0035783D03*
X0038428Y0035683D03*
X0038478Y0035533D03*
X0038528Y0035433D03*
X0038578Y0035283D03*
X0038628Y0035183D03*
X0038678Y0035033D03*
X0038728Y0034933D03*
X0038778Y0034833D03*
X0038778Y0034783D03*
X0038828Y0034683D03*
X0039328Y0033433D03*
X0039428Y0033233D03*
X0042878Y0033083D03*
X0042878Y0033033D03*
X0042878Y0032983D03*
X0042928Y0032883D03*
X0042928Y0032783D03*
X0042928Y0032733D03*
X0042928Y0032683D03*
X0042878Y0032533D03*
X0037778Y0037283D03*
X0037728Y0037383D03*
X0037678Y0037533D03*
X0037628Y0037633D03*
X0037578Y0037733D03*
X0037528Y0037883D03*
X0037478Y0037983D03*
X0037428Y0038133D03*
X0036878Y0039483D03*
X0036828Y0039583D03*
X0036778Y0039733D03*
X0036728Y0039833D03*
X0034578Y0039683D03*
D90*
X0036378Y0040383D03*
X0039778Y0032633D03*
X0039828Y0032583D03*
X0042728Y0033333D03*
D91*
X0042903Y0032933D03*
X0042903Y0032833D03*
X0042903Y0032633D03*
X0034603Y0035883D03*
X0034553Y0039733D03*
X0034553Y0039783D03*
X0034503Y0039833D03*
X0034503Y0039883D03*
X0034503Y0040233D03*
X0034553Y0040333D03*
D92*
X0039178Y0033483D03*
D93*
X0038978Y0033533D03*
X0038528Y0034133D03*
D94*
X0038578Y0034083D03*
X0038578Y0034033D03*
X0038928Y0033583D03*
D95*
X0038853Y0033633D03*
X0038653Y0033933D03*
X0038603Y0033983D03*
D96*
X0038678Y0033883D03*
X0038728Y0033833D03*
X0038728Y0033783D03*
X0038778Y0033733D03*
X0038828Y0033683D03*
D97*
X0038503Y0034183D03*
D98*
X0038478Y0034233D03*
D99*
X0038428Y0034283D03*
D100*
X0038403Y0034333D03*
D101*
X0038378Y0034383D03*
D102*
X0038328Y0034433D03*
D103*
X0038278Y0034483D03*
D104*
X0038228Y0034533D03*
D105*
X0038153Y0034583D03*
D106*
X0038003Y0034633D03*
D107*
X0034603Y0035333D03*
X0035403Y0041533D03*
D108*
X0034603Y0035433D03*
D109*
X0034603Y0035483D03*
D110*
X0034603Y0035533D03*
D111*
X0034603Y0035583D03*
D112*
X0034603Y0035633D03*
D113*
X0034603Y0035683D03*
D114*
X0034603Y0035733D03*
D115*
X0034603Y0035833D03*
D116*
X0034603Y0036133D03*
D117*
X0034603Y0036233D03*
X0035453Y0041183D03*
D118*
X0035453Y0041133D03*
X0034603Y0036333D03*
X0034603Y0036283D03*
D119*
X0034603Y0036383D03*
D120*
X0034603Y0036483D03*
X0034603Y0036533D03*
D121*
X0034628Y0036683D03*
X0035478Y0040933D03*
D122*
X0034603Y0037383D03*
X0034603Y0037333D03*
X0034603Y0037283D03*
X0034603Y0036983D03*
X0034603Y0036883D03*
X0034603Y0036833D03*
X0034603Y0036783D03*
X0034603Y0036733D03*
D123*
X0034603Y0036933D03*
X0034603Y0037033D03*
X0034603Y0037083D03*
D124*
X0033928Y0037483D03*
X0035278Y0037483D03*
X0034478Y0039933D03*
X0034478Y0039983D03*
X0034478Y0040033D03*
X0034478Y0040083D03*
X0034478Y0040133D03*
X0034528Y0040183D03*
X0034528Y0040283D03*
X0035428Y0041433D03*
D125*
X0035278Y0037533D03*
X0033928Y0037533D03*
D126*
X0033928Y0037583D03*
X0035278Y0037583D03*
D127*
X0035278Y0037633D03*
X0033928Y0037633D03*
D128*
X0033928Y0037683D03*
X0035278Y0037683D03*
X0035428Y0041483D03*
D129*
X0035278Y0037733D03*
X0033928Y0037733D03*
D130*
X0033928Y0037783D03*
X0035278Y0037783D03*
D131*
X0037353Y0038283D03*
D132*
X0037253Y0038333D03*
D133*
X0037128Y0038483D03*
D134*
X0037078Y0038533D03*
D135*
X0037028Y0038583D03*
D136*
X0036978Y0038633D03*
D137*
X0036978Y0038683D03*
D138*
X0036928Y0038733D03*
X0036878Y0038783D03*
D139*
X0036878Y0038833D03*
X0036828Y0038883D03*
X0036528Y0039283D03*
D140*
X0036803Y0038933D03*
D141*
X0036778Y0038983D03*
X0036728Y0039033D03*
X0036678Y0039083D03*
X0036678Y0039133D03*
X0036628Y0039183D03*
X0036578Y0039233D03*
D142*
X0036453Y0039333D03*
D143*
X0036353Y0039383D03*
D144*
X0035528Y0040433D03*
D145*
X0035528Y0040533D03*
D146*
X0035478Y0040633D03*
D147*
X0035478Y0040733D03*
D148*
X0035478Y0040983D03*
M02*
