G75*
%MOIN*%
%OFA0B0*%
%FSLAX25Y25*%
%IPPOS*%
%LPD*%
%AMOC8*
5,1,8,0,0,1.08239X$1,22.5*
%
%ADD10C,0.01000*%
%ADD11R,0.75800X0.25800*%
%ADD12C,0.06400*%
D10*
X0059378Y0033933D02*
X0182378Y0033933D01*
X0182378Y0083933D01*
X0036378Y0083933D01*
X0036378Y0056933D01*
X0048378Y0060933D01*
X0062378Y0051933D01*
X0061378Y0038933D01*
X0059378Y0033933D01*
X0059772Y0034917D02*
X0182378Y0034917D01*
X0182378Y0035915D02*
X0060171Y0035915D01*
X0060571Y0036914D02*
X0182378Y0036914D01*
X0182378Y0037912D02*
X0060970Y0037912D01*
X0061370Y0038911D02*
X0182378Y0038911D01*
X0182378Y0039909D02*
X0061454Y0039909D01*
X0061530Y0040908D02*
X0182378Y0040908D01*
X0182378Y0041906D02*
X0061607Y0041906D01*
X0061684Y0042905D02*
X0182378Y0042905D01*
X0182378Y0043903D02*
X0061761Y0043903D01*
X0061838Y0044902D02*
X0182378Y0044902D01*
X0182378Y0045900D02*
X0061914Y0045900D01*
X0061991Y0046899D02*
X0182378Y0046899D01*
X0182378Y0047897D02*
X0062068Y0047897D01*
X0062145Y0048896D02*
X0182378Y0048896D01*
X0182378Y0049894D02*
X0062222Y0049894D01*
X0062298Y0050893D02*
X0182378Y0050893D01*
X0182378Y0051891D02*
X0062375Y0051891D01*
X0060890Y0052890D02*
X0182378Y0052890D01*
X0182378Y0053888D02*
X0059337Y0053888D01*
X0057784Y0054887D02*
X0182378Y0054887D01*
X0182378Y0055885D02*
X0056230Y0055885D01*
X0054677Y0056884D02*
X0182378Y0056884D01*
X0182378Y0057882D02*
X0053124Y0057882D01*
X0051571Y0058881D02*
X0182378Y0058881D01*
X0182378Y0059879D02*
X0050017Y0059879D01*
X0048464Y0060878D02*
X0182378Y0060878D01*
X0182378Y0061877D02*
X0036378Y0061877D01*
X0036378Y0062875D02*
X0182378Y0062875D01*
X0182378Y0063874D02*
X0036378Y0063874D01*
X0036378Y0064872D02*
X0182378Y0064872D01*
X0182378Y0065871D02*
X0036378Y0065871D01*
X0036378Y0066869D02*
X0182378Y0066869D01*
X0182378Y0067868D02*
X0036378Y0067868D01*
X0036378Y0068866D02*
X0182378Y0068866D01*
X0182378Y0069865D02*
X0036378Y0069865D01*
X0036378Y0070863D02*
X0182378Y0070863D01*
X0182378Y0071862D02*
X0036378Y0071862D01*
X0036378Y0072860D02*
X0182378Y0072860D01*
X0182378Y0073859D02*
X0036378Y0073859D01*
X0036378Y0074857D02*
X0182378Y0074857D01*
X0182378Y0075856D02*
X0036378Y0075856D01*
X0036378Y0076854D02*
X0182378Y0076854D01*
X0182378Y0077853D02*
X0036378Y0077853D01*
X0036378Y0078851D02*
X0182378Y0078851D01*
X0182378Y0079850D02*
X0036378Y0079850D01*
X0036378Y0080848D02*
X0182378Y0080848D01*
X0182378Y0081847D02*
X0036378Y0081847D01*
X0036378Y0082845D02*
X0182378Y0082845D01*
X0182378Y0083844D02*
X0036378Y0083844D01*
X0036378Y0060878D02*
X0048213Y0060878D01*
X0045218Y0059879D02*
X0036378Y0059879D01*
X0036378Y0058881D02*
X0042222Y0058881D01*
X0039227Y0057882D02*
X0036378Y0057882D01*
X0036378Y0148933D02*
X0180378Y0148933D01*
X0180378Y0177933D01*
X0066378Y0178933D01*
X0036378Y0148933D01*
X0037191Y0149745D02*
X0180378Y0149745D01*
X0180378Y0150744D02*
X0038189Y0150744D01*
X0039188Y0151743D02*
X0180378Y0151743D01*
X0180378Y0152741D02*
X0040186Y0152741D01*
X0041185Y0153740D02*
X0180378Y0153740D01*
X0180378Y0154738D02*
X0042183Y0154738D01*
X0043182Y0155737D02*
X0180378Y0155737D01*
X0180378Y0156735D02*
X0044180Y0156735D01*
X0045179Y0157734D02*
X0180378Y0157734D01*
X0180378Y0158732D02*
X0046177Y0158732D01*
X0047176Y0159731D02*
X0180378Y0159731D01*
X0180378Y0160729D02*
X0048175Y0160729D01*
X0049173Y0161728D02*
X0180378Y0161728D01*
X0180378Y0162726D02*
X0050172Y0162726D01*
X0051170Y0163725D02*
X0180378Y0163725D01*
X0180378Y0164723D02*
X0052169Y0164723D01*
X0053167Y0165722D02*
X0180378Y0165722D01*
X0180378Y0166720D02*
X0054166Y0166720D01*
X0055164Y0167719D02*
X0180378Y0167719D01*
X0180378Y0168717D02*
X0056163Y0168717D01*
X0057161Y0169716D02*
X0180378Y0169716D01*
X0180378Y0170714D02*
X0058160Y0170714D01*
X0059158Y0171713D02*
X0180378Y0171713D01*
X0180378Y0172711D02*
X0060157Y0172711D01*
X0061155Y0173710D02*
X0180378Y0173710D01*
X0180378Y0174708D02*
X0062154Y0174708D01*
X0063152Y0175707D02*
X0180378Y0175707D01*
X0180378Y0176705D02*
X0064151Y0176705D01*
X0065149Y0177704D02*
X0180378Y0177704D01*
X0092683Y0178702D02*
X0066148Y0178702D01*
D11*
X0114378Y0162933D03*
X0116378Y0043933D03*
D12*
X0135378Y0069933D03*
X0098378Y0152933D03*
M02*
