G75*
%MOIN*%
%OFA0B0*%
%FSLAX25Y25*%
%IPPOS*%
%LPD*%
%AMOC8*
5,1,8,0,0,1.08239X$1,22.5*
%
%ADD10C,0.01600*%
%ADD11C,0.00512*%
%ADD12C,0.00400*%
%ADD13C,0.00600*%
%ADD14R,0.08661X0.05906*%
%ADD15R,0.04331X0.03937*%
%ADD16C,0.04000*%
%ADD17C,0.05600*%
D10*
X0026378Y0023933D02*
X0186378Y0023933D01*
X0186378Y0183933D01*
X0066378Y0183933D01*
X0026378Y0143933D01*
X0026378Y0023933D01*
X0031978Y0029533D02*
X0031978Y0141613D01*
X0068698Y0178333D01*
X0180778Y0178333D01*
X0180778Y0029533D01*
X0031978Y0029533D01*
X0031978Y0030327D02*
X0180778Y0030327D01*
X0180778Y0031926D02*
X0031978Y0031926D01*
X0031978Y0033524D02*
X0180778Y0033524D01*
X0180778Y0035123D02*
X0031978Y0035123D01*
X0031978Y0036721D02*
X0180778Y0036721D01*
X0180778Y0038320D02*
X0031978Y0038320D01*
X0031978Y0039918D02*
X0180778Y0039918D01*
X0180778Y0041517D02*
X0031978Y0041517D01*
X0031978Y0043115D02*
X0180778Y0043115D01*
X0180778Y0044714D02*
X0031978Y0044714D01*
X0031978Y0046312D02*
X0180778Y0046312D01*
X0180778Y0047911D02*
X0031978Y0047911D01*
X0031978Y0049509D02*
X0180778Y0049509D01*
X0180778Y0051108D02*
X0031978Y0051108D01*
X0031978Y0052706D02*
X0180778Y0052706D01*
X0180778Y0054305D02*
X0031978Y0054305D01*
X0031978Y0055903D02*
X0180778Y0055903D01*
X0180778Y0057502D02*
X0031978Y0057502D01*
X0031978Y0059100D02*
X0180778Y0059100D01*
X0180778Y0060699D02*
X0031978Y0060699D01*
X0031978Y0062297D02*
X0180778Y0062297D01*
X0180778Y0063896D02*
X0138573Y0063896D01*
X0139230Y0064168D02*
X0136731Y0063133D01*
X0134026Y0063133D01*
X0131527Y0064168D01*
X0129614Y0066081D01*
X0128578Y0068580D01*
X0128578Y0071286D01*
X0129378Y0073217D01*
X0129378Y0099448D01*
X0128547Y0100280D01*
X0120544Y0100280D01*
X0120544Y0096822D01*
X0120378Y0096423D01*
X0120378Y0094740D01*
X0119465Y0092534D01*
X0116465Y0089534D01*
X0114777Y0087847D01*
X0112572Y0086933D01*
X0105658Y0086933D01*
X0105651Y0086930D01*
X0104464Y0086933D01*
X0103279Y0086933D01*
X0103272Y0086936D01*
X0103264Y0086936D01*
X0102167Y0087394D01*
X0101074Y0087847D01*
X0101068Y0087852D01*
X0101061Y0087855D01*
X0100224Y0088697D01*
X0099386Y0089534D01*
X0099383Y0089542D01*
X0099377Y0089548D01*
X0098927Y0090645D01*
X0098748Y0091075D01*
X0097252Y0091075D01*
X0095782Y0091684D01*
X0094657Y0092809D01*
X0094048Y0094279D01*
X0094048Y0101776D01*
X0094657Y0103246D01*
X0095344Y0103933D01*
X0094657Y0104620D01*
X0094048Y0106090D01*
X0094048Y0113587D01*
X0094657Y0115057D01*
X0094764Y0115165D01*
X0093568Y0117259D01*
X0093292Y0117534D01*
X0092981Y0118286D01*
X0092577Y0118992D01*
X0092528Y0119379D01*
X0092378Y0119740D01*
X0092378Y0120553D01*
X0092276Y0121360D01*
X0092378Y0121737D01*
X0092378Y0149649D01*
X0091578Y0151580D01*
X0091578Y0154286D01*
X0092614Y0156785D01*
X0094527Y0158698D01*
X0097026Y0159733D01*
X0099731Y0159733D01*
X0102230Y0158698D01*
X0104143Y0156785D01*
X0105178Y0154286D01*
X0105178Y0151580D01*
X0104378Y0149649D01*
X0104378Y0122526D01*
X0107063Y0117828D01*
X0107559Y0117332D01*
X0107587Y0117265D01*
X0107637Y0117214D01*
X0107857Y0116646D01*
X0108975Y0116182D01*
X0110100Y0115057D01*
X0110709Y0113587D01*
X0110709Y0111955D01*
X0111417Y0112248D01*
X0113109Y0112248D01*
X0113185Y0112280D01*
X0132225Y0112280D01*
X0134431Y0111366D01*
X0136119Y0109678D01*
X0138777Y0107020D01*
X0140465Y0105332D01*
X0141378Y0103127D01*
X0141378Y0073217D01*
X0142178Y0071286D01*
X0142178Y0068580D01*
X0141143Y0066081D01*
X0139230Y0064168D01*
X0140556Y0065494D02*
X0180778Y0065494D01*
X0180778Y0067093D02*
X0141562Y0067093D01*
X0142178Y0068691D02*
X0180778Y0068691D01*
X0180778Y0070290D02*
X0142178Y0070290D01*
X0141929Y0071888D02*
X0180778Y0071888D01*
X0180778Y0073487D02*
X0141378Y0073487D01*
X0141378Y0075085D02*
X0180778Y0075085D01*
X0180778Y0076684D02*
X0141378Y0076684D01*
X0141378Y0078282D02*
X0180778Y0078282D01*
X0180778Y0079881D02*
X0141378Y0079881D01*
X0141378Y0081479D02*
X0180778Y0081479D01*
X0180778Y0083078D02*
X0141378Y0083078D01*
X0141378Y0084677D02*
X0180778Y0084677D01*
X0180778Y0086275D02*
X0141378Y0086275D01*
X0141378Y0087874D02*
X0180778Y0087874D01*
X0180778Y0089472D02*
X0141378Y0089472D01*
X0141378Y0091071D02*
X0180778Y0091071D01*
X0180778Y0092669D02*
X0141378Y0092669D01*
X0141378Y0094268D02*
X0180778Y0094268D01*
X0180778Y0095866D02*
X0141378Y0095866D01*
X0141378Y0097465D02*
X0180778Y0097465D01*
X0180778Y0099063D02*
X0141378Y0099063D01*
X0141378Y0100662D02*
X0180778Y0100662D01*
X0180778Y0102260D02*
X0141378Y0102260D01*
X0141075Y0103859D02*
X0180778Y0103859D01*
X0180778Y0105457D02*
X0140340Y0105457D01*
X0138741Y0107056D02*
X0180778Y0107056D01*
X0180778Y0108654D02*
X0137143Y0108654D01*
X0135544Y0110253D02*
X0180778Y0110253D01*
X0180778Y0111851D02*
X0133260Y0111851D01*
X0129378Y0099063D02*
X0120544Y0099063D01*
X0120544Y0097465D02*
X0129378Y0097465D01*
X0129378Y0095866D02*
X0120378Y0095866D01*
X0120183Y0094268D02*
X0129378Y0094268D01*
X0129378Y0092669D02*
X0119521Y0092669D01*
X0118001Y0091071D02*
X0129378Y0091071D01*
X0129378Y0089472D02*
X0116403Y0089472D01*
X0114804Y0087874D02*
X0129378Y0087874D01*
X0129378Y0086275D02*
X0031978Y0086275D01*
X0031978Y0084677D02*
X0129378Y0084677D01*
X0129378Y0083078D02*
X0031978Y0083078D01*
X0031978Y0081479D02*
X0129378Y0081479D01*
X0129378Y0079881D02*
X0031978Y0079881D01*
X0031978Y0078282D02*
X0129378Y0078282D01*
X0129378Y0076684D02*
X0031978Y0076684D01*
X0031978Y0075085D02*
X0129378Y0075085D01*
X0129378Y0073487D02*
X0031978Y0073487D01*
X0031978Y0071888D02*
X0128828Y0071888D01*
X0128578Y0070290D02*
X0031978Y0070290D01*
X0031978Y0068691D02*
X0128578Y0068691D01*
X0129195Y0067093D02*
X0031978Y0067093D01*
X0031978Y0065494D02*
X0130201Y0065494D01*
X0132184Y0063896D02*
X0031978Y0063896D01*
X0031978Y0087874D02*
X0101043Y0087874D01*
X0099449Y0089472D02*
X0031978Y0089472D01*
X0031978Y0091071D02*
X0098750Y0091071D01*
X0094797Y0092669D02*
X0031978Y0092669D01*
X0031978Y0094268D02*
X0094053Y0094268D01*
X0094048Y0095866D02*
X0031978Y0095866D01*
X0031978Y0097465D02*
X0094048Y0097465D01*
X0094048Y0099063D02*
X0031978Y0099063D01*
X0031978Y0100662D02*
X0094048Y0100662D01*
X0094248Y0102260D02*
X0031978Y0102260D01*
X0031978Y0103859D02*
X0095269Y0103859D01*
X0094310Y0105457D02*
X0031978Y0105457D01*
X0031978Y0107056D02*
X0094048Y0107056D01*
X0094048Y0108654D02*
X0031978Y0108654D01*
X0031978Y0110253D02*
X0094048Y0110253D01*
X0094048Y0111851D02*
X0031978Y0111851D01*
X0031978Y0113450D02*
X0094048Y0113450D01*
X0094653Y0115048D02*
X0031978Y0115048D01*
X0031978Y0116647D02*
X0093917Y0116647D01*
X0092997Y0118245D02*
X0031978Y0118245D01*
X0031978Y0119844D02*
X0092378Y0119844D01*
X0092298Y0121442D02*
X0031978Y0121442D01*
X0031978Y0123041D02*
X0092378Y0123041D01*
X0092378Y0124639D02*
X0031978Y0124639D01*
X0031978Y0126238D02*
X0092378Y0126238D01*
X0092378Y0127836D02*
X0031978Y0127836D01*
X0031978Y0129435D02*
X0092378Y0129435D01*
X0092378Y0131033D02*
X0031978Y0131033D01*
X0031978Y0132632D02*
X0092378Y0132632D01*
X0092378Y0134230D02*
X0031978Y0134230D01*
X0031978Y0135829D02*
X0092378Y0135829D01*
X0092378Y0137427D02*
X0031978Y0137427D01*
X0031978Y0139026D02*
X0092378Y0139026D01*
X0092378Y0140624D02*
X0031978Y0140624D01*
X0032588Y0142223D02*
X0092378Y0142223D01*
X0092378Y0143821D02*
X0034186Y0143821D01*
X0035785Y0145420D02*
X0092378Y0145420D01*
X0092378Y0147018D02*
X0037383Y0147018D01*
X0038982Y0148617D02*
X0092378Y0148617D01*
X0092144Y0150215D02*
X0040580Y0150215D01*
X0042179Y0151814D02*
X0091578Y0151814D01*
X0091578Y0153412D02*
X0043777Y0153412D01*
X0045376Y0155011D02*
X0091879Y0155011D01*
X0092541Y0156610D02*
X0046974Y0156610D01*
X0048573Y0158208D02*
X0094037Y0158208D01*
X0102720Y0158208D02*
X0180778Y0158208D01*
X0180778Y0156610D02*
X0104216Y0156610D01*
X0104878Y0155011D02*
X0180778Y0155011D01*
X0180778Y0153412D02*
X0105178Y0153412D01*
X0105178Y0151814D02*
X0180778Y0151814D01*
X0180778Y0150215D02*
X0104613Y0150215D01*
X0104378Y0148617D02*
X0180778Y0148617D01*
X0180778Y0147018D02*
X0104378Y0147018D01*
X0104378Y0145420D02*
X0180778Y0145420D01*
X0180778Y0143821D02*
X0104378Y0143821D01*
X0104378Y0142223D02*
X0180778Y0142223D01*
X0180778Y0140624D02*
X0104378Y0140624D01*
X0104378Y0139026D02*
X0180778Y0139026D01*
X0180778Y0137427D02*
X0104378Y0137427D01*
X0104378Y0135829D02*
X0180778Y0135829D01*
X0180778Y0134230D02*
X0104378Y0134230D01*
X0104378Y0132632D02*
X0180778Y0132632D01*
X0180778Y0131033D02*
X0104378Y0131033D01*
X0104378Y0129435D02*
X0180778Y0129435D01*
X0180778Y0127836D02*
X0104378Y0127836D01*
X0104378Y0126238D02*
X0180778Y0126238D01*
X0180778Y0124639D02*
X0104378Y0124639D01*
X0104378Y0123041D02*
X0180778Y0123041D01*
X0180778Y0121442D02*
X0104998Y0121442D01*
X0105911Y0119844D02*
X0180778Y0119844D01*
X0180778Y0118245D02*
X0106825Y0118245D01*
X0107856Y0116647D02*
X0180778Y0116647D01*
X0180778Y0115048D02*
X0110104Y0115048D01*
X0110709Y0113450D02*
X0180778Y0113450D01*
X0180778Y0159807D02*
X0050172Y0159807D01*
X0051770Y0161405D02*
X0180778Y0161405D01*
X0180778Y0163004D02*
X0053369Y0163004D01*
X0054967Y0164602D02*
X0180778Y0164602D01*
X0180778Y0166201D02*
X0056566Y0166201D01*
X0058164Y0167799D02*
X0180778Y0167799D01*
X0180778Y0169398D02*
X0059763Y0169398D01*
X0061361Y0170996D02*
X0180778Y0170996D01*
X0180778Y0172595D02*
X0062960Y0172595D01*
X0064558Y0174193D02*
X0180778Y0174193D01*
X0180778Y0175792D02*
X0066157Y0175792D01*
X0067755Y0177390D02*
X0180778Y0177390D01*
D11*
X0026378Y0023933D02*
X0026378Y0001256D01*
X0026634Y0008933D02*
X0036615Y0007909D01*
X0036615Y0007676D02*
X0026634Y0008933D01*
X0036615Y0009957D01*
X0036615Y0010190D02*
X0036615Y0007676D01*
X0036615Y0008421D02*
X0026634Y0008933D01*
X0036615Y0009445D01*
X0036615Y0010190D02*
X0026634Y0008933D01*
X0186123Y0008933D01*
X0176142Y0007909D01*
X0176142Y0007676D02*
X0186123Y0008933D01*
X0176142Y0009957D01*
X0176142Y0010190D02*
X0176142Y0007676D01*
X0176142Y0008421D02*
X0186123Y0008933D01*
X0176142Y0009445D01*
X0176142Y0010190D02*
X0186123Y0008933D01*
X0186378Y0001256D02*
X0186378Y0023933D01*
X0212056Y0023933D01*
X0204378Y0024189D02*
X0205402Y0034169D01*
X0205635Y0034169D02*
X0204378Y0024189D01*
X0203355Y0034169D01*
X0203122Y0034169D02*
X0205635Y0034169D01*
X0204890Y0034169D02*
X0204378Y0024189D01*
X0203867Y0034169D01*
X0203122Y0034169D02*
X0204378Y0024189D01*
X0204378Y0183677D01*
X0205402Y0173697D01*
X0205635Y0173697D02*
X0204378Y0183677D01*
X0203355Y0173697D01*
X0203122Y0173697D02*
X0205635Y0173697D01*
X0204890Y0173697D02*
X0204378Y0183677D01*
X0203867Y0173697D01*
X0203122Y0173697D02*
X0204378Y0183677D01*
X0212056Y0183933D02*
X0186378Y0183933D01*
X0186378Y0207610D01*
X0186123Y0199933D02*
X0176142Y0200957D01*
X0176142Y0201190D02*
X0176142Y0198676D01*
X0186123Y0199933D01*
X0176142Y0198909D01*
X0176142Y0199421D02*
X0186123Y0199933D01*
X0176142Y0200445D01*
X0176142Y0201190D02*
X0186123Y0199933D01*
X0066634Y0199933D01*
X0076615Y0198909D01*
X0076615Y0198676D02*
X0066634Y0199933D01*
X0076615Y0200957D01*
X0076615Y0201190D02*
X0076615Y0198676D01*
X0076615Y0199421D02*
X0066634Y0199933D01*
X0076615Y0200445D01*
X0076615Y0201190D02*
X0066634Y0199933D01*
X0066378Y0207610D02*
X0066378Y0183933D01*
X0051950Y0198362D01*
X0057198Y0192752D02*
X0050864Y0184971D01*
X0051029Y0184806D02*
X0057198Y0192752D01*
X0049417Y0186419D01*
X0049252Y0186584D02*
X0051029Y0184806D01*
X0050502Y0185333D02*
X0057198Y0192752D01*
X0049778Y0186057D01*
X0049252Y0186584D02*
X0057198Y0192752D01*
X0017559Y0153114D01*
X0025340Y0159447D01*
X0025505Y0159282D02*
X0017559Y0153114D01*
X0023893Y0160895D01*
X0023728Y0161060D02*
X0025505Y0159282D01*
X0024978Y0159809D02*
X0017559Y0153114D01*
X0024255Y0160533D01*
X0023728Y0161060D02*
X0017559Y0153114D01*
X0011950Y0158362D02*
X0026378Y0143933D01*
X0002701Y0143933D01*
X0010378Y0143677D02*
X0011402Y0133697D01*
X0011635Y0133697D02*
X0010378Y0143677D01*
X0009355Y0133697D01*
X0009122Y0133697D02*
X0011635Y0133697D01*
X0010890Y0133697D02*
X0010378Y0143677D01*
X0009867Y0133697D01*
X0009122Y0133697D02*
X0010378Y0143677D01*
X0010378Y0024189D01*
X0011402Y0034169D01*
X0011635Y0034169D02*
X0010378Y0024189D01*
X0009355Y0034169D01*
X0009122Y0034169D02*
X0011635Y0034169D01*
X0010890Y0034169D02*
X0010378Y0024189D01*
X0009867Y0034169D01*
X0009122Y0034169D02*
X0010378Y0024189D01*
X0002701Y0023933D02*
X0026378Y0023933D01*
D12*
X0101009Y0014515D02*
X0102743Y0016249D01*
X0102743Y0011045D01*
X0101009Y0011045D02*
X0104478Y0011045D01*
X0106165Y0011045D02*
X0107032Y0011045D01*
X0107032Y0011912D01*
X0106165Y0011912D01*
X0106165Y0011045D01*
X0108743Y0011912D02*
X0108743Y0013647D01*
X0111345Y0013647D01*
X0112213Y0012780D01*
X0112213Y0011912D01*
X0111345Y0011045D01*
X0109611Y0011045D01*
X0108743Y0011912D01*
X0108743Y0013647D02*
X0110478Y0015382D01*
X0112213Y0016249D01*
X0008267Y0078563D02*
X0008267Y0082033D01*
X0008267Y0083720D02*
X0008267Y0084587D01*
X0007399Y0084587D01*
X0007399Y0083720D01*
X0008267Y0083720D01*
X0008267Y0080298D02*
X0003062Y0080298D01*
X0004797Y0078563D01*
X0003930Y0086298D02*
X0003062Y0087165D01*
X0003062Y0088900D01*
X0003930Y0089767D01*
X0004797Y0089767D01*
X0008267Y0086298D01*
X0008267Y0089767D01*
X0029934Y0169702D02*
X0029934Y0174609D01*
X0032388Y0172155D01*
X0032388Y0170929D01*
X0031161Y0169702D01*
X0029934Y0169702D01*
X0027481Y0172155D01*
X0027481Y0173382D01*
X0028707Y0174609D01*
X0029934Y0174609D01*
X0033580Y0173348D02*
X0034194Y0173961D01*
X0034807Y0173348D01*
X0034194Y0172735D01*
X0033580Y0173348D01*
X0035403Y0175171D02*
X0036630Y0175171D01*
X0037857Y0176398D01*
X0037857Y0177625D01*
X0036630Y0178851D01*
X0035403Y0178851D01*
X0034790Y0178238D01*
X0034177Y0176398D01*
X0032337Y0178238D01*
X0034790Y0180691D01*
X0035983Y0181884D02*
X0038436Y0184337D01*
X0039049Y0183724D01*
X0039049Y0178817D01*
X0039663Y0178204D01*
X0121009Y0202045D02*
X0124478Y0202045D01*
X0126165Y0202045D02*
X0127032Y0202045D01*
X0127032Y0202912D01*
X0126165Y0202912D01*
X0126165Y0202045D01*
X0128743Y0202045D02*
X0132213Y0205515D01*
X0132213Y0206382D01*
X0131345Y0207249D01*
X0129611Y0207249D01*
X0128743Y0206382D01*
X0128743Y0202045D02*
X0132213Y0202045D01*
X0122743Y0202045D02*
X0122743Y0207249D01*
X0121009Y0205515D01*
X0197062Y0109767D02*
X0197930Y0108033D01*
X0199664Y0106298D01*
X0199664Y0108900D01*
X0200532Y0109767D01*
X0201399Y0109767D01*
X0202267Y0108900D01*
X0202267Y0107165D01*
X0201399Y0106298D01*
X0199664Y0106298D01*
X0201399Y0104587D02*
X0202267Y0104587D01*
X0202267Y0103720D01*
X0201399Y0103720D01*
X0201399Y0104587D01*
X0202267Y0102033D02*
X0202267Y0098563D01*
X0202267Y0100298D02*
X0197062Y0100298D01*
X0198797Y0098563D01*
D13*
X0222878Y0055639D02*
X0222878Y0049233D01*
X0227149Y0049233D01*
X0229324Y0049233D02*
X0233594Y0049233D01*
X0235769Y0049233D02*
X0238972Y0049233D01*
X0240040Y0050301D01*
X0240040Y0054571D01*
X0238972Y0055639D01*
X0235769Y0055639D01*
X0235769Y0049233D01*
X0231459Y0052436D02*
X0229324Y0052436D01*
X0229324Y0055639D02*
X0229324Y0049233D01*
X0229324Y0043003D02*
X0229324Y0038733D01*
X0229324Y0040868D02*
X0231459Y0043003D01*
X0232527Y0043003D01*
X0234695Y0043003D02*
X0234695Y0038733D01*
X0234695Y0040868D02*
X0236830Y0043003D01*
X0237898Y0043003D01*
X0240066Y0041936D02*
X0240066Y0039801D01*
X0241134Y0038733D01*
X0243269Y0038733D01*
X0244337Y0039801D01*
X0244337Y0041936D01*
X0243269Y0043003D01*
X0241134Y0043003D01*
X0240066Y0041936D01*
X0246512Y0043003D02*
X0246512Y0039801D01*
X0247580Y0038733D01*
X0248647Y0039801D01*
X0249715Y0038733D01*
X0250782Y0039801D01*
X0250782Y0043003D01*
X0252957Y0039801D02*
X0254025Y0039801D01*
X0254025Y0038733D01*
X0252957Y0038733D01*
X0252957Y0039801D01*
X0256180Y0039801D02*
X0257248Y0038733D01*
X0260451Y0038733D01*
X0262626Y0039801D02*
X0262626Y0041936D01*
X0263693Y0043003D01*
X0265828Y0043003D01*
X0266896Y0041936D01*
X0266896Y0039801D01*
X0265828Y0038733D01*
X0263693Y0038733D01*
X0262626Y0039801D01*
X0260451Y0043003D02*
X0257248Y0043003D01*
X0256180Y0041936D01*
X0256180Y0039801D01*
X0258315Y0034639D02*
X0258315Y0028233D01*
X0256180Y0028233D02*
X0260451Y0028233D01*
X0262626Y0029301D02*
X0263693Y0028233D01*
X0265828Y0028233D01*
X0266896Y0029301D01*
X0266896Y0030368D01*
X0265828Y0031436D01*
X0264761Y0031436D01*
X0265828Y0031436D02*
X0266896Y0032503D01*
X0266896Y0033571D01*
X0265828Y0034639D01*
X0263693Y0034639D01*
X0262626Y0033571D01*
X0258315Y0034639D02*
X0256180Y0032503D01*
X0247573Y0028233D02*
X0245438Y0028233D01*
X0246505Y0028233D02*
X0246505Y0034639D01*
X0245438Y0034639D01*
X0242208Y0034639D02*
X0242208Y0035706D01*
X0242208Y0032503D02*
X0242208Y0028233D01*
X0241141Y0028233D02*
X0243276Y0028233D01*
X0242208Y0032503D02*
X0241141Y0032503D01*
X0238972Y0032503D02*
X0237905Y0032503D01*
X0235769Y0030368D01*
X0235769Y0028233D02*
X0235769Y0032503D01*
X0233594Y0031436D02*
X0233594Y0029301D01*
X0232527Y0028233D01*
X0229324Y0028233D01*
X0229324Y0026098D02*
X0229324Y0032503D01*
X0232527Y0032503D01*
X0233594Y0031436D01*
X0227149Y0031436D02*
X0222878Y0031436D01*
X0222878Y0032503D02*
X0222878Y0028233D01*
X0227149Y0028233D02*
X0227149Y0032503D01*
X0225014Y0034639D01*
X0222878Y0032503D01*
X0223946Y0038733D02*
X0222878Y0039801D01*
X0223946Y0040868D01*
X0227149Y0040868D01*
X0227149Y0041936D02*
X0227149Y0038733D01*
X0223946Y0038733D01*
X0227149Y0041936D02*
X0226081Y0043003D01*
X0223946Y0043003D01*
X0229324Y0055639D02*
X0233594Y0055639D01*
X0242215Y0055639D02*
X0242215Y0049233D01*
X0245418Y0049233D01*
X0246485Y0050301D01*
X0246485Y0052436D01*
X0245418Y0053503D01*
X0242215Y0053503D01*
X0248660Y0050301D02*
X0249728Y0051368D01*
X0252931Y0051368D01*
X0252931Y0052436D02*
X0252931Y0049233D01*
X0249728Y0049233D01*
X0248660Y0050301D01*
X0251863Y0053503D02*
X0252931Y0052436D01*
X0251863Y0053503D02*
X0249728Y0053503D01*
X0255106Y0055639D02*
X0256174Y0055639D01*
X0256174Y0049233D01*
X0257241Y0049233D02*
X0255106Y0049233D01*
X0259403Y0049233D02*
X0261538Y0049233D01*
X0260471Y0049233D02*
X0260471Y0055639D01*
X0259403Y0055639D01*
X0263700Y0055639D02*
X0266903Y0055639D01*
X0267970Y0054571D01*
X0267970Y0052436D01*
X0266903Y0051368D01*
X0263700Y0051368D01*
X0263700Y0049233D02*
X0263700Y0055639D01*
X0265835Y0051368D02*
X0267970Y0049233D01*
X0270145Y0050301D02*
X0271213Y0049233D01*
X0273348Y0049233D01*
X0274416Y0050301D01*
X0274416Y0051368D01*
X0273348Y0052436D01*
X0272281Y0052436D01*
X0273348Y0052436D02*
X0274416Y0053503D01*
X0274416Y0054571D01*
X0273348Y0055639D01*
X0271213Y0055639D01*
X0270145Y0054571D01*
X0270139Y0043003D02*
X0271206Y0041936D01*
X0272274Y0043003D01*
X0273342Y0041936D01*
X0273342Y0038733D01*
X0271206Y0038733D02*
X0271206Y0041936D01*
X0270139Y0043003D02*
X0269071Y0043003D01*
X0269071Y0038733D01*
X0279814Y0033571D02*
X0280881Y0034639D01*
X0283016Y0034639D01*
X0284084Y0033571D01*
X0284084Y0032503D01*
X0279814Y0028233D01*
X0284084Y0028233D01*
X0286259Y0029301D02*
X0290530Y0033571D01*
X0290530Y0029301D01*
X0289462Y0028233D01*
X0287327Y0028233D01*
X0286259Y0029301D01*
X0286259Y0033571D01*
X0287327Y0034639D01*
X0289462Y0034639D01*
X0290530Y0033571D01*
X0292705Y0032503D02*
X0294840Y0034639D01*
X0294840Y0028233D01*
X0292705Y0028233D02*
X0296975Y0028233D01*
X0299150Y0029301D02*
X0300218Y0028233D01*
X0302353Y0028233D01*
X0303420Y0029301D01*
X0303420Y0030368D01*
X0302353Y0031436D01*
X0299150Y0031436D01*
X0299150Y0029301D01*
X0299150Y0031436D02*
X0301285Y0033571D01*
X0303420Y0034639D01*
X0271206Y0029301D02*
X0270139Y0029301D01*
X0270139Y0028233D01*
X0271206Y0028233D01*
X0271206Y0029301D01*
X0271206Y0028233D02*
X0269071Y0026098D01*
D14*
X0102378Y0098028D03*
X0102378Y0109839D03*
D15*
X0114378Y0106280D03*
X0114378Y0099587D03*
D16*
X0114378Y0095933D01*
X0111378Y0092933D01*
X0104473Y0092933D01*
X0102378Y0098028D01*
X0114378Y0106280D02*
X0131032Y0106280D01*
X0135378Y0101933D01*
X0135378Y0069933D01*
X0102378Y0109839D02*
X0102473Y0113933D01*
X0102378Y0113933D01*
X0098378Y0120933D01*
X0098378Y0152933D01*
D17*
X0098378Y0152933D03*
X0135378Y0069933D03*
M02*
