G75*
%MOIN*%
%OFA0B0*%
%FSLAX25Y25*%
%IPPOS*%
%LPD*%
%AMOC8*
5,1,8,0,0,1.08239X$1,22.5*
%
%ADD10C,0.01600*%
%ADD11C,0.01000*%
%ADD12C,0.00512*%
%ADD13C,0.00400*%
%ADD14C,0.00600*%
%ADD15C,0.00500*%
%ADD16C,0.00300*%
%ADD17C,0.00100*%
D10*
X0026378Y0023933D02*
X0186378Y0023933D01*
X0186378Y0183933D01*
X0066378Y0183933D01*
X0026378Y0143933D01*
X0026378Y0023933D01*
X0033878Y0043933D02*
X0033882Y0044240D01*
X0033893Y0044546D01*
X0033912Y0044853D01*
X0033938Y0045158D01*
X0033972Y0045463D01*
X0034013Y0045767D01*
X0034062Y0046070D01*
X0034118Y0046372D01*
X0034182Y0046672D01*
X0034253Y0046970D01*
X0034331Y0047267D01*
X0034416Y0047562D01*
X0034509Y0047854D01*
X0034609Y0048144D01*
X0034716Y0048432D01*
X0034830Y0048717D01*
X0034950Y0048999D01*
X0035078Y0049277D01*
X0035213Y0049553D01*
X0035354Y0049825D01*
X0035502Y0050094D01*
X0035656Y0050359D01*
X0035817Y0050620D01*
X0035985Y0050878D01*
X0036158Y0051131D01*
X0036338Y0051379D01*
X0036524Y0051623D01*
X0036715Y0051863D01*
X0036913Y0052098D01*
X0037116Y0052327D01*
X0037325Y0052552D01*
X0037539Y0052772D01*
X0037759Y0052986D01*
X0037984Y0053195D01*
X0038213Y0053398D01*
X0038448Y0053596D01*
X0038688Y0053787D01*
X0038932Y0053973D01*
X0039180Y0054153D01*
X0039433Y0054326D01*
X0039691Y0054494D01*
X0039952Y0054655D01*
X0040217Y0054809D01*
X0040486Y0054957D01*
X0040758Y0055098D01*
X0041034Y0055233D01*
X0041312Y0055361D01*
X0041594Y0055481D01*
X0041879Y0055595D01*
X0042167Y0055702D01*
X0042457Y0055802D01*
X0042749Y0055895D01*
X0043044Y0055980D01*
X0043341Y0056058D01*
X0043639Y0056129D01*
X0043939Y0056193D01*
X0044241Y0056249D01*
X0044544Y0056298D01*
X0044848Y0056339D01*
X0045153Y0056373D01*
X0045458Y0056399D01*
X0045765Y0056418D01*
X0046071Y0056429D01*
X0046378Y0056433D01*
X0046685Y0056429D01*
X0046991Y0056418D01*
X0047298Y0056399D01*
X0047603Y0056373D01*
X0047908Y0056339D01*
X0048212Y0056298D01*
X0048515Y0056249D01*
X0048817Y0056193D01*
X0049117Y0056129D01*
X0049415Y0056058D01*
X0049712Y0055980D01*
X0050007Y0055895D01*
X0050299Y0055802D01*
X0050589Y0055702D01*
X0050877Y0055595D01*
X0051162Y0055481D01*
X0051444Y0055361D01*
X0051722Y0055233D01*
X0051998Y0055098D01*
X0052270Y0054957D01*
X0052539Y0054809D01*
X0052804Y0054655D01*
X0053065Y0054494D01*
X0053323Y0054326D01*
X0053576Y0054153D01*
X0053824Y0053973D01*
X0054068Y0053787D01*
X0054308Y0053596D01*
X0054543Y0053398D01*
X0054772Y0053195D01*
X0054997Y0052986D01*
X0055217Y0052772D01*
X0055431Y0052552D01*
X0055640Y0052327D01*
X0055843Y0052098D01*
X0056041Y0051863D01*
X0056232Y0051623D01*
X0056418Y0051379D01*
X0056598Y0051131D01*
X0056771Y0050878D01*
X0056939Y0050620D01*
X0057100Y0050359D01*
X0057254Y0050094D01*
X0057402Y0049825D01*
X0057543Y0049553D01*
X0057678Y0049277D01*
X0057806Y0048999D01*
X0057926Y0048717D01*
X0058040Y0048432D01*
X0058147Y0048144D01*
X0058247Y0047854D01*
X0058340Y0047562D01*
X0058425Y0047267D01*
X0058503Y0046970D01*
X0058574Y0046672D01*
X0058638Y0046372D01*
X0058694Y0046070D01*
X0058743Y0045767D01*
X0058784Y0045463D01*
X0058818Y0045158D01*
X0058844Y0044853D01*
X0058863Y0044546D01*
X0058874Y0044240D01*
X0058878Y0043933D01*
X0058874Y0043626D01*
X0058863Y0043320D01*
X0058844Y0043013D01*
X0058818Y0042708D01*
X0058784Y0042403D01*
X0058743Y0042099D01*
X0058694Y0041796D01*
X0058638Y0041494D01*
X0058574Y0041194D01*
X0058503Y0040896D01*
X0058425Y0040599D01*
X0058340Y0040304D01*
X0058247Y0040012D01*
X0058147Y0039722D01*
X0058040Y0039434D01*
X0057926Y0039149D01*
X0057806Y0038867D01*
X0057678Y0038589D01*
X0057543Y0038313D01*
X0057402Y0038041D01*
X0057254Y0037772D01*
X0057100Y0037507D01*
X0056939Y0037246D01*
X0056771Y0036988D01*
X0056598Y0036735D01*
X0056418Y0036487D01*
X0056232Y0036243D01*
X0056041Y0036003D01*
X0055843Y0035768D01*
X0055640Y0035539D01*
X0055431Y0035314D01*
X0055217Y0035094D01*
X0054997Y0034880D01*
X0054772Y0034671D01*
X0054543Y0034468D01*
X0054308Y0034270D01*
X0054068Y0034079D01*
X0053824Y0033893D01*
X0053576Y0033713D01*
X0053323Y0033540D01*
X0053065Y0033372D01*
X0052804Y0033211D01*
X0052539Y0033057D01*
X0052270Y0032909D01*
X0051998Y0032768D01*
X0051722Y0032633D01*
X0051444Y0032505D01*
X0051162Y0032385D01*
X0050877Y0032271D01*
X0050589Y0032164D01*
X0050299Y0032064D01*
X0050007Y0031971D01*
X0049712Y0031886D01*
X0049415Y0031808D01*
X0049117Y0031737D01*
X0048817Y0031673D01*
X0048515Y0031617D01*
X0048212Y0031568D01*
X0047908Y0031527D01*
X0047603Y0031493D01*
X0047298Y0031467D01*
X0046991Y0031448D01*
X0046685Y0031437D01*
X0046378Y0031433D01*
X0046071Y0031437D01*
X0045765Y0031448D01*
X0045458Y0031467D01*
X0045153Y0031493D01*
X0044848Y0031527D01*
X0044544Y0031568D01*
X0044241Y0031617D01*
X0043939Y0031673D01*
X0043639Y0031737D01*
X0043341Y0031808D01*
X0043044Y0031886D01*
X0042749Y0031971D01*
X0042457Y0032064D01*
X0042167Y0032164D01*
X0041879Y0032271D01*
X0041594Y0032385D01*
X0041312Y0032505D01*
X0041034Y0032633D01*
X0040758Y0032768D01*
X0040486Y0032909D01*
X0040217Y0033057D01*
X0039952Y0033211D01*
X0039691Y0033372D01*
X0039433Y0033540D01*
X0039180Y0033713D01*
X0038932Y0033893D01*
X0038688Y0034079D01*
X0038448Y0034270D01*
X0038213Y0034468D01*
X0037984Y0034671D01*
X0037759Y0034880D01*
X0037539Y0035094D01*
X0037325Y0035314D01*
X0037116Y0035539D01*
X0036913Y0035768D01*
X0036715Y0036003D01*
X0036524Y0036243D01*
X0036338Y0036487D01*
X0036158Y0036735D01*
X0035985Y0036988D01*
X0035817Y0037246D01*
X0035656Y0037507D01*
X0035502Y0037772D01*
X0035354Y0038041D01*
X0035213Y0038313D01*
X0035078Y0038589D01*
X0034950Y0038867D01*
X0034830Y0039149D01*
X0034716Y0039434D01*
X0034609Y0039722D01*
X0034509Y0040012D01*
X0034416Y0040304D01*
X0034331Y0040599D01*
X0034253Y0040896D01*
X0034182Y0041194D01*
X0034118Y0041494D01*
X0034062Y0041796D01*
X0034013Y0042099D01*
X0033972Y0042403D01*
X0033938Y0042708D01*
X0033912Y0043013D01*
X0033893Y0043320D01*
X0033882Y0043626D01*
X0033878Y0043933D01*
X0153878Y0163933D02*
X0153882Y0164240D01*
X0153893Y0164546D01*
X0153912Y0164853D01*
X0153938Y0165158D01*
X0153972Y0165463D01*
X0154013Y0165767D01*
X0154062Y0166070D01*
X0154118Y0166372D01*
X0154182Y0166672D01*
X0154253Y0166970D01*
X0154331Y0167267D01*
X0154416Y0167562D01*
X0154509Y0167854D01*
X0154609Y0168144D01*
X0154716Y0168432D01*
X0154830Y0168717D01*
X0154950Y0168999D01*
X0155078Y0169277D01*
X0155213Y0169553D01*
X0155354Y0169825D01*
X0155502Y0170094D01*
X0155656Y0170359D01*
X0155817Y0170620D01*
X0155985Y0170878D01*
X0156158Y0171131D01*
X0156338Y0171379D01*
X0156524Y0171623D01*
X0156715Y0171863D01*
X0156913Y0172098D01*
X0157116Y0172327D01*
X0157325Y0172552D01*
X0157539Y0172772D01*
X0157759Y0172986D01*
X0157984Y0173195D01*
X0158213Y0173398D01*
X0158448Y0173596D01*
X0158688Y0173787D01*
X0158932Y0173973D01*
X0159180Y0174153D01*
X0159433Y0174326D01*
X0159691Y0174494D01*
X0159952Y0174655D01*
X0160217Y0174809D01*
X0160486Y0174957D01*
X0160758Y0175098D01*
X0161034Y0175233D01*
X0161312Y0175361D01*
X0161594Y0175481D01*
X0161879Y0175595D01*
X0162167Y0175702D01*
X0162457Y0175802D01*
X0162749Y0175895D01*
X0163044Y0175980D01*
X0163341Y0176058D01*
X0163639Y0176129D01*
X0163939Y0176193D01*
X0164241Y0176249D01*
X0164544Y0176298D01*
X0164848Y0176339D01*
X0165153Y0176373D01*
X0165458Y0176399D01*
X0165765Y0176418D01*
X0166071Y0176429D01*
X0166378Y0176433D01*
X0166685Y0176429D01*
X0166991Y0176418D01*
X0167298Y0176399D01*
X0167603Y0176373D01*
X0167908Y0176339D01*
X0168212Y0176298D01*
X0168515Y0176249D01*
X0168817Y0176193D01*
X0169117Y0176129D01*
X0169415Y0176058D01*
X0169712Y0175980D01*
X0170007Y0175895D01*
X0170299Y0175802D01*
X0170589Y0175702D01*
X0170877Y0175595D01*
X0171162Y0175481D01*
X0171444Y0175361D01*
X0171722Y0175233D01*
X0171998Y0175098D01*
X0172270Y0174957D01*
X0172539Y0174809D01*
X0172804Y0174655D01*
X0173065Y0174494D01*
X0173323Y0174326D01*
X0173576Y0174153D01*
X0173824Y0173973D01*
X0174068Y0173787D01*
X0174308Y0173596D01*
X0174543Y0173398D01*
X0174772Y0173195D01*
X0174997Y0172986D01*
X0175217Y0172772D01*
X0175431Y0172552D01*
X0175640Y0172327D01*
X0175843Y0172098D01*
X0176041Y0171863D01*
X0176232Y0171623D01*
X0176418Y0171379D01*
X0176598Y0171131D01*
X0176771Y0170878D01*
X0176939Y0170620D01*
X0177100Y0170359D01*
X0177254Y0170094D01*
X0177402Y0169825D01*
X0177543Y0169553D01*
X0177678Y0169277D01*
X0177806Y0168999D01*
X0177926Y0168717D01*
X0178040Y0168432D01*
X0178147Y0168144D01*
X0178247Y0167854D01*
X0178340Y0167562D01*
X0178425Y0167267D01*
X0178503Y0166970D01*
X0178574Y0166672D01*
X0178638Y0166372D01*
X0178694Y0166070D01*
X0178743Y0165767D01*
X0178784Y0165463D01*
X0178818Y0165158D01*
X0178844Y0164853D01*
X0178863Y0164546D01*
X0178874Y0164240D01*
X0178878Y0163933D01*
X0178874Y0163626D01*
X0178863Y0163320D01*
X0178844Y0163013D01*
X0178818Y0162708D01*
X0178784Y0162403D01*
X0178743Y0162099D01*
X0178694Y0161796D01*
X0178638Y0161494D01*
X0178574Y0161194D01*
X0178503Y0160896D01*
X0178425Y0160599D01*
X0178340Y0160304D01*
X0178247Y0160012D01*
X0178147Y0159722D01*
X0178040Y0159434D01*
X0177926Y0159149D01*
X0177806Y0158867D01*
X0177678Y0158589D01*
X0177543Y0158313D01*
X0177402Y0158041D01*
X0177254Y0157772D01*
X0177100Y0157507D01*
X0176939Y0157246D01*
X0176771Y0156988D01*
X0176598Y0156735D01*
X0176418Y0156487D01*
X0176232Y0156243D01*
X0176041Y0156003D01*
X0175843Y0155768D01*
X0175640Y0155539D01*
X0175431Y0155314D01*
X0175217Y0155094D01*
X0174997Y0154880D01*
X0174772Y0154671D01*
X0174543Y0154468D01*
X0174308Y0154270D01*
X0174068Y0154079D01*
X0173824Y0153893D01*
X0173576Y0153713D01*
X0173323Y0153540D01*
X0173065Y0153372D01*
X0172804Y0153211D01*
X0172539Y0153057D01*
X0172270Y0152909D01*
X0171998Y0152768D01*
X0171722Y0152633D01*
X0171444Y0152505D01*
X0171162Y0152385D01*
X0170877Y0152271D01*
X0170589Y0152164D01*
X0170299Y0152064D01*
X0170007Y0151971D01*
X0169712Y0151886D01*
X0169415Y0151808D01*
X0169117Y0151737D01*
X0168817Y0151673D01*
X0168515Y0151617D01*
X0168212Y0151568D01*
X0167908Y0151527D01*
X0167603Y0151493D01*
X0167298Y0151467D01*
X0166991Y0151448D01*
X0166685Y0151437D01*
X0166378Y0151433D01*
X0166071Y0151437D01*
X0165765Y0151448D01*
X0165458Y0151467D01*
X0165153Y0151493D01*
X0164848Y0151527D01*
X0164544Y0151568D01*
X0164241Y0151617D01*
X0163939Y0151673D01*
X0163639Y0151737D01*
X0163341Y0151808D01*
X0163044Y0151886D01*
X0162749Y0151971D01*
X0162457Y0152064D01*
X0162167Y0152164D01*
X0161879Y0152271D01*
X0161594Y0152385D01*
X0161312Y0152505D01*
X0161034Y0152633D01*
X0160758Y0152768D01*
X0160486Y0152909D01*
X0160217Y0153057D01*
X0159952Y0153211D01*
X0159691Y0153372D01*
X0159433Y0153540D01*
X0159180Y0153713D01*
X0158932Y0153893D01*
X0158688Y0154079D01*
X0158448Y0154270D01*
X0158213Y0154468D01*
X0157984Y0154671D01*
X0157759Y0154880D01*
X0157539Y0155094D01*
X0157325Y0155314D01*
X0157116Y0155539D01*
X0156913Y0155768D01*
X0156715Y0156003D01*
X0156524Y0156243D01*
X0156338Y0156487D01*
X0156158Y0156735D01*
X0155985Y0156988D01*
X0155817Y0157246D01*
X0155656Y0157507D01*
X0155502Y0157772D01*
X0155354Y0158041D01*
X0155213Y0158313D01*
X0155078Y0158589D01*
X0154950Y0158867D01*
X0154830Y0159149D01*
X0154716Y0159434D01*
X0154609Y0159722D01*
X0154509Y0160012D01*
X0154416Y0160304D01*
X0154331Y0160599D01*
X0154253Y0160896D01*
X0154182Y0161194D01*
X0154118Y0161494D01*
X0154062Y0161796D01*
X0154013Y0162099D01*
X0153972Y0162403D01*
X0153938Y0162708D01*
X0153912Y0163013D01*
X0153893Y0163320D01*
X0153882Y0163626D01*
X0153878Y0163933D01*
D11*
X0037628Y0103933D02*
X0037649Y0105620D01*
X0037711Y0107306D01*
X0037814Y0108991D01*
X0037959Y0110672D01*
X0038145Y0112349D01*
X0038372Y0114021D01*
X0038640Y0115687D01*
X0038949Y0117345D01*
X0039298Y0118996D01*
X0039688Y0120638D01*
X0040118Y0122270D01*
X0040588Y0123890D01*
X0041098Y0125499D01*
X0041647Y0127094D01*
X0042235Y0128676D01*
X0042861Y0130242D01*
X0043526Y0131793D01*
X0044229Y0133327D01*
X0044969Y0134844D01*
X0045746Y0136342D01*
X0046560Y0137820D01*
X0047409Y0139278D01*
X0048294Y0140714D01*
X0049214Y0142128D01*
X0050169Y0143520D01*
X0051157Y0144887D01*
X0052179Y0146230D01*
X0053234Y0147548D01*
X0054320Y0148839D01*
X0055438Y0150103D01*
X0056586Y0151339D01*
X0057764Y0152547D01*
X0058972Y0153725D01*
X0060208Y0154873D01*
X0061472Y0155991D01*
X0062763Y0157077D01*
X0064081Y0158132D01*
X0065424Y0159154D01*
X0066791Y0160142D01*
X0068183Y0161097D01*
X0069597Y0162017D01*
X0071033Y0162902D01*
X0072491Y0163751D01*
X0073969Y0164565D01*
X0075467Y0165342D01*
X0076984Y0166082D01*
X0078518Y0166785D01*
X0080069Y0167450D01*
X0081635Y0168076D01*
X0083217Y0168664D01*
X0084812Y0169213D01*
X0086421Y0169723D01*
X0088041Y0170193D01*
X0089673Y0170623D01*
X0091315Y0171013D01*
X0092966Y0171362D01*
X0094624Y0171671D01*
X0096290Y0171939D01*
X0097962Y0172166D01*
X0099639Y0172352D01*
X0101320Y0172497D01*
X0103005Y0172600D01*
X0104691Y0172662D01*
X0106378Y0172683D01*
X0108065Y0172662D01*
X0109751Y0172600D01*
X0111436Y0172497D01*
X0113117Y0172352D01*
X0114794Y0172166D01*
X0116466Y0171939D01*
X0118132Y0171671D01*
X0119790Y0171362D01*
X0121441Y0171013D01*
X0123083Y0170623D01*
X0124715Y0170193D01*
X0126335Y0169723D01*
X0127944Y0169213D01*
X0129539Y0168664D01*
X0131121Y0168076D01*
X0132687Y0167450D01*
X0134238Y0166785D01*
X0135772Y0166082D01*
X0137289Y0165342D01*
X0138787Y0164565D01*
X0140265Y0163751D01*
X0141723Y0162902D01*
X0143159Y0162017D01*
X0144573Y0161097D01*
X0145965Y0160142D01*
X0147332Y0159154D01*
X0148675Y0158132D01*
X0149993Y0157077D01*
X0151284Y0155991D01*
X0152548Y0154873D01*
X0153784Y0153725D01*
X0154992Y0152547D01*
X0156170Y0151339D01*
X0157318Y0150103D01*
X0158436Y0148839D01*
X0159522Y0147548D01*
X0160577Y0146230D01*
X0161599Y0144887D01*
X0162587Y0143520D01*
X0163542Y0142128D01*
X0164462Y0140714D01*
X0165347Y0139278D01*
X0166196Y0137820D01*
X0167010Y0136342D01*
X0167787Y0134844D01*
X0168527Y0133327D01*
X0169230Y0131793D01*
X0169895Y0130242D01*
X0170521Y0128676D01*
X0171109Y0127094D01*
X0171658Y0125499D01*
X0172168Y0123890D01*
X0172638Y0122270D01*
X0173068Y0120638D01*
X0173458Y0118996D01*
X0173807Y0117345D01*
X0174116Y0115687D01*
X0174384Y0114021D01*
X0174611Y0112349D01*
X0174797Y0110672D01*
X0174942Y0108991D01*
X0175045Y0107306D01*
X0175107Y0105620D01*
X0175128Y0103933D01*
X0175107Y0102246D01*
X0175045Y0100560D01*
X0174942Y0098875D01*
X0174797Y0097194D01*
X0174611Y0095517D01*
X0174384Y0093845D01*
X0174116Y0092179D01*
X0173807Y0090521D01*
X0173458Y0088870D01*
X0173068Y0087228D01*
X0172638Y0085596D01*
X0172168Y0083976D01*
X0171658Y0082367D01*
X0171109Y0080772D01*
X0170521Y0079190D01*
X0169895Y0077624D01*
X0169230Y0076073D01*
X0168527Y0074539D01*
X0167787Y0073022D01*
X0167010Y0071524D01*
X0166196Y0070046D01*
X0165347Y0068588D01*
X0164462Y0067152D01*
X0163542Y0065738D01*
X0162587Y0064346D01*
X0161599Y0062979D01*
X0160577Y0061636D01*
X0159522Y0060318D01*
X0158436Y0059027D01*
X0157318Y0057763D01*
X0156170Y0056527D01*
X0154992Y0055319D01*
X0153784Y0054141D01*
X0152548Y0052993D01*
X0151284Y0051875D01*
X0149993Y0050789D01*
X0148675Y0049734D01*
X0147332Y0048712D01*
X0145965Y0047724D01*
X0144573Y0046769D01*
X0143159Y0045849D01*
X0141723Y0044964D01*
X0140265Y0044115D01*
X0138787Y0043301D01*
X0137289Y0042524D01*
X0135772Y0041784D01*
X0134238Y0041081D01*
X0132687Y0040416D01*
X0131121Y0039790D01*
X0129539Y0039202D01*
X0127944Y0038653D01*
X0126335Y0038143D01*
X0124715Y0037673D01*
X0123083Y0037243D01*
X0121441Y0036853D01*
X0119790Y0036504D01*
X0118132Y0036195D01*
X0116466Y0035927D01*
X0114794Y0035700D01*
X0113117Y0035514D01*
X0111436Y0035369D01*
X0109751Y0035266D01*
X0108065Y0035204D01*
X0106378Y0035183D01*
X0104691Y0035204D01*
X0103005Y0035266D01*
X0101320Y0035369D01*
X0099639Y0035514D01*
X0097962Y0035700D01*
X0096290Y0035927D01*
X0094624Y0036195D01*
X0092966Y0036504D01*
X0091315Y0036853D01*
X0089673Y0037243D01*
X0088041Y0037673D01*
X0086421Y0038143D01*
X0084812Y0038653D01*
X0083217Y0039202D01*
X0081635Y0039790D01*
X0080069Y0040416D01*
X0078518Y0041081D01*
X0076984Y0041784D01*
X0075467Y0042524D01*
X0073969Y0043301D01*
X0072491Y0044115D01*
X0071033Y0044964D01*
X0069597Y0045849D01*
X0068183Y0046769D01*
X0066791Y0047724D01*
X0065424Y0048712D01*
X0064081Y0049734D01*
X0062763Y0050789D01*
X0061472Y0051875D01*
X0060208Y0052993D01*
X0058972Y0054141D01*
X0057764Y0055319D01*
X0056586Y0056527D01*
X0055438Y0057763D01*
X0054320Y0059027D01*
X0053234Y0060318D01*
X0052179Y0061636D01*
X0051157Y0062979D01*
X0050169Y0064346D01*
X0049214Y0065738D01*
X0048294Y0067152D01*
X0047409Y0068588D01*
X0046560Y0070046D01*
X0045746Y0071524D01*
X0044969Y0073022D01*
X0044229Y0074539D01*
X0043526Y0076073D01*
X0042861Y0077624D01*
X0042235Y0079190D01*
X0041647Y0080772D01*
X0041098Y0082367D01*
X0040588Y0083976D01*
X0040118Y0085596D01*
X0039688Y0087228D01*
X0039298Y0088870D01*
X0038949Y0090521D01*
X0038640Y0092179D01*
X0038372Y0093845D01*
X0038145Y0095517D01*
X0037959Y0097194D01*
X0037814Y0098875D01*
X0037711Y0100560D01*
X0037649Y0102246D01*
X0037628Y0103933D01*
D12*
X0026378Y0023933D02*
X0026378Y0001256D01*
X0026634Y0008933D02*
X0036615Y0007909D01*
X0036615Y0007676D02*
X0026634Y0008933D01*
X0036615Y0009957D01*
X0036615Y0010190D02*
X0036615Y0007676D01*
X0036615Y0008421D02*
X0026634Y0008933D01*
X0036615Y0009445D01*
X0036615Y0010190D02*
X0026634Y0008933D01*
X0186123Y0008933D01*
X0176142Y0007909D01*
X0176142Y0007676D02*
X0186123Y0008933D01*
X0176142Y0009957D01*
X0176142Y0010190D02*
X0176142Y0007676D01*
X0176142Y0008421D02*
X0186123Y0008933D01*
X0176142Y0009445D01*
X0176142Y0010190D02*
X0186123Y0008933D01*
X0186378Y0001256D02*
X0186378Y0023933D01*
X0212056Y0023933D01*
X0204378Y0024189D02*
X0205402Y0034169D01*
X0205635Y0034169D02*
X0204378Y0024189D01*
X0203355Y0034169D01*
X0203122Y0034169D02*
X0205635Y0034169D01*
X0204890Y0034169D02*
X0204378Y0024189D01*
X0203867Y0034169D01*
X0203122Y0034169D02*
X0204378Y0024189D01*
X0204378Y0183677D01*
X0205402Y0173697D01*
X0205635Y0173697D02*
X0204378Y0183677D01*
X0203355Y0173697D01*
X0203122Y0173697D02*
X0205635Y0173697D01*
X0204890Y0173697D02*
X0204378Y0183677D01*
X0203867Y0173697D01*
X0203122Y0173697D02*
X0204378Y0183677D01*
X0212056Y0183933D02*
X0186378Y0183933D01*
X0186378Y0207610D01*
X0186123Y0199933D02*
X0176142Y0200957D01*
X0176142Y0201190D02*
X0176142Y0198676D01*
X0186123Y0199933D01*
X0176142Y0198909D01*
X0176142Y0199421D02*
X0186123Y0199933D01*
X0176142Y0200445D01*
X0176142Y0201190D02*
X0186123Y0199933D01*
X0066634Y0199933D01*
X0076615Y0198909D01*
X0076615Y0198676D02*
X0066634Y0199933D01*
X0076615Y0200957D01*
X0076615Y0201190D02*
X0076615Y0198676D01*
X0076615Y0199421D02*
X0066634Y0199933D01*
X0076615Y0200445D01*
X0076615Y0201190D02*
X0066634Y0199933D01*
X0066378Y0207610D02*
X0066378Y0183933D01*
X0051950Y0198362D01*
X0057198Y0192752D02*
X0050864Y0184971D01*
X0051029Y0184806D02*
X0057198Y0192752D01*
X0049417Y0186419D01*
X0049252Y0186584D02*
X0051029Y0184806D01*
X0050502Y0185333D02*
X0057198Y0192752D01*
X0049778Y0186057D01*
X0049252Y0186584D02*
X0057198Y0192752D01*
X0017559Y0153114D01*
X0025340Y0159447D01*
X0025505Y0159282D02*
X0017559Y0153114D01*
X0023893Y0160895D01*
X0023728Y0161060D02*
X0025505Y0159282D01*
X0024978Y0159809D02*
X0017559Y0153114D01*
X0024255Y0160533D01*
X0023728Y0161060D02*
X0017559Y0153114D01*
X0011950Y0158362D02*
X0026378Y0143933D01*
X0002701Y0143933D01*
X0010378Y0143677D02*
X0011402Y0133697D01*
X0011635Y0133697D02*
X0010378Y0143677D01*
X0009355Y0133697D01*
X0009122Y0133697D02*
X0011635Y0133697D01*
X0010890Y0133697D02*
X0010378Y0143677D01*
X0009867Y0133697D01*
X0009122Y0133697D02*
X0010378Y0143677D01*
X0010378Y0024189D01*
X0011402Y0034169D01*
X0011635Y0034169D02*
X0010378Y0024189D01*
X0009355Y0034169D01*
X0009122Y0034169D02*
X0011635Y0034169D01*
X0010890Y0034169D02*
X0010378Y0024189D01*
X0009867Y0034169D01*
X0009122Y0034169D02*
X0010378Y0024189D01*
X0002701Y0023933D02*
X0026378Y0023933D01*
D13*
X0101009Y0014515D02*
X0102743Y0016249D01*
X0102743Y0011045D01*
X0101009Y0011045D02*
X0104478Y0011045D01*
X0106165Y0011045D02*
X0107032Y0011045D01*
X0107032Y0011912D01*
X0106165Y0011912D01*
X0106165Y0011045D01*
X0108743Y0011912D02*
X0108743Y0013647D01*
X0111345Y0013647D01*
X0112213Y0012780D01*
X0112213Y0011912D01*
X0111345Y0011045D01*
X0109611Y0011045D01*
X0108743Y0011912D01*
X0108743Y0013647D02*
X0110478Y0015382D01*
X0112213Y0016249D01*
X0008267Y0078563D02*
X0008267Y0082033D01*
X0008267Y0083720D02*
X0008267Y0084587D01*
X0007399Y0084587D01*
X0007399Y0083720D01*
X0008267Y0083720D01*
X0008267Y0080298D02*
X0003062Y0080298D01*
X0004797Y0078563D01*
X0003930Y0086298D02*
X0003062Y0087165D01*
X0003062Y0088900D01*
X0003930Y0089767D01*
X0004797Y0089767D01*
X0008267Y0086298D01*
X0008267Y0089767D01*
X0098342Y0090668D02*
X0101411Y0090668D01*
X0099877Y0092202D02*
X0099877Y0089133D01*
X0197062Y0100298D02*
X0202267Y0100298D01*
X0202267Y0098563D02*
X0202267Y0102033D01*
X0202267Y0103720D02*
X0202267Y0104587D01*
X0201399Y0104587D01*
X0201399Y0103720D01*
X0202267Y0103720D01*
X0201399Y0106298D02*
X0199664Y0106298D01*
X0199664Y0108900D01*
X0200532Y0109767D01*
X0201399Y0109767D01*
X0202267Y0108900D01*
X0202267Y0107165D01*
X0201399Y0106298D01*
X0199664Y0106298D02*
X0197930Y0108033D01*
X0197062Y0109767D01*
X0197062Y0100298D02*
X0198797Y0098563D01*
X0132213Y0202045D02*
X0128743Y0202045D01*
X0132213Y0205515D01*
X0132213Y0206382D01*
X0131345Y0207249D01*
X0129611Y0207249D01*
X0128743Y0206382D01*
X0127032Y0202912D02*
X0126165Y0202912D01*
X0126165Y0202045D01*
X0127032Y0202045D01*
X0127032Y0202912D01*
X0124478Y0202045D02*
X0121009Y0202045D01*
X0122743Y0202045D02*
X0122743Y0207249D01*
X0121009Y0205515D01*
X0039049Y0183724D02*
X0039049Y0178817D01*
X0039663Y0178204D01*
X0037857Y0177625D02*
X0037857Y0176398D01*
X0036630Y0175171D01*
X0035403Y0175171D01*
X0034194Y0173961D02*
X0033580Y0173348D01*
X0034194Y0172735D01*
X0034807Y0173348D01*
X0034194Y0173961D01*
X0034177Y0176398D02*
X0034790Y0178238D01*
X0035403Y0178851D01*
X0036630Y0178851D01*
X0037857Y0177625D01*
X0034177Y0176398D02*
X0032337Y0178238D01*
X0034790Y0180691D01*
X0035983Y0181884D02*
X0038436Y0184337D01*
X0039049Y0183724D01*
X0029934Y0174609D02*
X0029934Y0169702D01*
X0031161Y0169702D01*
X0032388Y0170929D01*
X0032388Y0172155D01*
X0029934Y0174609D01*
X0028707Y0174609D01*
X0027481Y0173382D01*
X0027481Y0172155D01*
X0029934Y0169702D01*
D14*
X0222878Y0055639D02*
X0222878Y0049233D01*
X0227149Y0049233D01*
X0229324Y0049233D02*
X0233594Y0049233D01*
X0235769Y0049233D02*
X0238972Y0049233D01*
X0240040Y0050301D01*
X0240040Y0054571D01*
X0238972Y0055639D01*
X0235769Y0055639D01*
X0235769Y0049233D01*
X0231459Y0052436D02*
X0229324Y0052436D01*
X0229324Y0055639D02*
X0229324Y0049233D01*
X0229324Y0043003D02*
X0229324Y0038733D01*
X0229324Y0040868D02*
X0231459Y0043003D01*
X0232527Y0043003D01*
X0234695Y0043003D02*
X0234695Y0038733D01*
X0234695Y0040868D02*
X0236830Y0043003D01*
X0237898Y0043003D01*
X0240066Y0041936D02*
X0240066Y0039801D01*
X0241134Y0038733D01*
X0243269Y0038733D01*
X0244337Y0039801D01*
X0244337Y0041936D01*
X0243269Y0043003D01*
X0241134Y0043003D01*
X0240066Y0041936D01*
X0246512Y0043003D02*
X0246512Y0039801D01*
X0247580Y0038733D01*
X0248647Y0039801D01*
X0249715Y0038733D01*
X0250782Y0039801D01*
X0250782Y0043003D01*
X0252957Y0039801D02*
X0254025Y0039801D01*
X0254025Y0038733D01*
X0252957Y0038733D01*
X0252957Y0039801D01*
X0256180Y0039801D02*
X0257248Y0038733D01*
X0260451Y0038733D01*
X0262626Y0039801D02*
X0262626Y0041936D01*
X0263693Y0043003D01*
X0265828Y0043003D01*
X0266896Y0041936D01*
X0266896Y0039801D01*
X0265828Y0038733D01*
X0263693Y0038733D01*
X0262626Y0039801D01*
X0260451Y0043003D02*
X0257248Y0043003D01*
X0256180Y0041936D01*
X0256180Y0039801D01*
X0258315Y0034639D02*
X0258315Y0028233D01*
X0256180Y0028233D02*
X0260451Y0028233D01*
X0262626Y0029301D02*
X0263693Y0028233D01*
X0265828Y0028233D01*
X0266896Y0029301D01*
X0266896Y0030368D01*
X0265828Y0031436D01*
X0264761Y0031436D01*
X0265828Y0031436D02*
X0266896Y0032503D01*
X0266896Y0033571D01*
X0265828Y0034639D01*
X0263693Y0034639D01*
X0262626Y0033571D01*
X0258315Y0034639D02*
X0256180Y0032503D01*
X0247573Y0028233D02*
X0245438Y0028233D01*
X0246505Y0028233D02*
X0246505Y0034639D01*
X0245438Y0034639D01*
X0242208Y0034639D02*
X0242208Y0035706D01*
X0242208Y0032503D02*
X0242208Y0028233D01*
X0241141Y0028233D02*
X0243276Y0028233D01*
X0242208Y0032503D02*
X0241141Y0032503D01*
X0238972Y0032503D02*
X0237905Y0032503D01*
X0235769Y0030368D01*
X0235769Y0028233D02*
X0235769Y0032503D01*
X0233594Y0031436D02*
X0233594Y0029301D01*
X0232527Y0028233D01*
X0229324Y0028233D01*
X0229324Y0026098D02*
X0229324Y0032503D01*
X0232527Y0032503D01*
X0233594Y0031436D01*
X0227149Y0031436D02*
X0222878Y0031436D01*
X0222878Y0032503D02*
X0222878Y0028233D01*
X0227149Y0028233D02*
X0227149Y0032503D01*
X0225014Y0034639D01*
X0222878Y0032503D01*
X0223946Y0038733D02*
X0222878Y0039801D01*
X0223946Y0040868D01*
X0227149Y0040868D01*
X0227149Y0041936D02*
X0227149Y0038733D01*
X0223946Y0038733D01*
X0227149Y0041936D02*
X0226081Y0043003D01*
X0223946Y0043003D01*
X0229324Y0055639D02*
X0233594Y0055639D01*
X0242215Y0055639D02*
X0242215Y0049233D01*
X0245418Y0049233D01*
X0246485Y0050301D01*
X0246485Y0052436D01*
X0245418Y0053503D01*
X0242215Y0053503D01*
X0248660Y0050301D02*
X0249728Y0051368D01*
X0252931Y0051368D01*
X0252931Y0052436D02*
X0252931Y0049233D01*
X0249728Y0049233D01*
X0248660Y0050301D01*
X0251863Y0053503D02*
X0252931Y0052436D01*
X0251863Y0053503D02*
X0249728Y0053503D01*
X0255106Y0055639D02*
X0256174Y0055639D01*
X0256174Y0049233D01*
X0257241Y0049233D02*
X0255106Y0049233D01*
X0259403Y0049233D02*
X0261538Y0049233D01*
X0260471Y0049233D02*
X0260471Y0055639D01*
X0259403Y0055639D01*
X0263700Y0055639D02*
X0266903Y0055639D01*
X0267970Y0054571D01*
X0267970Y0052436D01*
X0266903Y0051368D01*
X0263700Y0051368D01*
X0263700Y0049233D02*
X0263700Y0055639D01*
X0265835Y0051368D02*
X0267970Y0049233D01*
X0270145Y0050301D02*
X0271213Y0049233D01*
X0273348Y0049233D01*
X0274416Y0050301D01*
X0274416Y0051368D01*
X0273348Y0052436D01*
X0272281Y0052436D01*
X0273348Y0052436D02*
X0274416Y0053503D01*
X0274416Y0054571D01*
X0273348Y0055639D01*
X0271213Y0055639D01*
X0270145Y0054571D01*
X0270139Y0043003D02*
X0271206Y0041936D01*
X0272274Y0043003D01*
X0273342Y0041936D01*
X0273342Y0038733D01*
X0271206Y0038733D02*
X0271206Y0041936D01*
X0270139Y0043003D02*
X0269071Y0043003D01*
X0269071Y0038733D01*
X0279814Y0033571D02*
X0280881Y0034639D01*
X0283016Y0034639D01*
X0284084Y0033571D01*
X0284084Y0032503D01*
X0279814Y0028233D01*
X0284084Y0028233D01*
X0286259Y0029301D02*
X0290530Y0033571D01*
X0290530Y0029301D01*
X0289462Y0028233D01*
X0287327Y0028233D01*
X0286259Y0029301D01*
X0286259Y0033571D01*
X0287327Y0034639D01*
X0289462Y0034639D01*
X0290530Y0033571D01*
X0292705Y0032503D02*
X0294840Y0034639D01*
X0294840Y0028233D01*
X0292705Y0028233D02*
X0296975Y0028233D01*
X0299150Y0029301D02*
X0300218Y0028233D01*
X0302353Y0028233D01*
X0303420Y0029301D01*
X0303420Y0030368D01*
X0302353Y0031436D01*
X0299150Y0031436D01*
X0299150Y0029301D01*
X0299150Y0031436D02*
X0301285Y0033571D01*
X0303420Y0034639D01*
X0271206Y0029301D02*
X0270139Y0029301D01*
X0270139Y0028233D01*
X0271206Y0028233D01*
X0271206Y0029301D01*
X0271206Y0028233D02*
X0269071Y0026098D01*
D15*
X0109071Y0097634D02*
X0109071Y0110232D01*
X0095686Y0110232D01*
X0095686Y0097634D01*
X0109071Y0097634D01*
X0097200Y0103933D02*
X0097202Y0104076D01*
X0097208Y0104219D01*
X0097218Y0104362D01*
X0097232Y0104505D01*
X0097250Y0104647D01*
X0097271Y0104789D01*
X0097297Y0104930D01*
X0097326Y0105070D01*
X0097360Y0105210D01*
X0097397Y0105348D01*
X0097438Y0105485D01*
X0097483Y0105621D01*
X0097532Y0105756D01*
X0097584Y0105890D01*
X0097640Y0106022D01*
X0097700Y0106152D01*
X0097763Y0106281D01*
X0097829Y0106407D01*
X0097900Y0106532D01*
X0097973Y0106655D01*
X0098050Y0106776D01*
X0098131Y0106895D01*
X0098214Y0107011D01*
X0098301Y0107125D01*
X0098391Y0107237D01*
X0098484Y0107346D01*
X0098580Y0107452D01*
X0098679Y0107556D01*
X0098780Y0107657D01*
X0098885Y0107755D01*
X0098992Y0107851D01*
X0099102Y0107943D01*
X0099214Y0108032D01*
X0099329Y0108118D01*
X0099446Y0108201D01*
X0099565Y0108280D01*
X0099686Y0108356D01*
X0099810Y0108429D01*
X0099935Y0108499D01*
X0100062Y0108564D01*
X0100191Y0108627D01*
X0100322Y0108685D01*
X0100455Y0108740D01*
X0100588Y0108792D01*
X0100723Y0108840D01*
X0100860Y0108883D01*
X0100998Y0108924D01*
X0101136Y0108960D01*
X0101276Y0108992D01*
X0101416Y0109021D01*
X0101557Y0109046D01*
X0101699Y0109066D01*
X0101842Y0109083D01*
X0101984Y0109096D01*
X0102127Y0109105D01*
X0102271Y0109110D01*
X0102414Y0109111D01*
X0102557Y0109108D01*
X0102700Y0109101D01*
X0102843Y0109090D01*
X0102986Y0109075D01*
X0103128Y0109056D01*
X0103269Y0109034D01*
X0103410Y0109007D01*
X0103550Y0108977D01*
X0103689Y0108942D01*
X0103827Y0108904D01*
X0103964Y0108862D01*
X0104100Y0108816D01*
X0104235Y0108767D01*
X0104368Y0108713D01*
X0104499Y0108657D01*
X0104629Y0108596D01*
X0104757Y0108532D01*
X0104884Y0108464D01*
X0105008Y0108393D01*
X0105131Y0108319D01*
X0105251Y0108241D01*
X0105369Y0108160D01*
X0105485Y0108075D01*
X0105598Y0107988D01*
X0105709Y0107897D01*
X0105818Y0107803D01*
X0105924Y0107707D01*
X0106027Y0107607D01*
X0106127Y0107505D01*
X0106224Y0107400D01*
X0106319Y0107292D01*
X0106410Y0107181D01*
X0106499Y0107069D01*
X0106584Y0106953D01*
X0106666Y0106836D01*
X0106745Y0106716D01*
X0106820Y0106594D01*
X0106892Y0106470D01*
X0106960Y0106344D01*
X0107025Y0106216D01*
X0107087Y0106087D01*
X0107145Y0105956D01*
X0107199Y0105823D01*
X0107249Y0105689D01*
X0107296Y0105554D01*
X0107339Y0105417D01*
X0107378Y0105279D01*
X0107413Y0105140D01*
X0107445Y0105000D01*
X0107472Y0104860D01*
X0107496Y0104718D01*
X0107516Y0104576D01*
X0107532Y0104434D01*
X0107544Y0104291D01*
X0107552Y0104148D01*
X0107556Y0104005D01*
X0107556Y0103861D01*
X0107552Y0103718D01*
X0107544Y0103575D01*
X0107532Y0103432D01*
X0107516Y0103290D01*
X0107496Y0103148D01*
X0107472Y0103006D01*
X0107445Y0102866D01*
X0107413Y0102726D01*
X0107378Y0102587D01*
X0107339Y0102449D01*
X0107296Y0102312D01*
X0107249Y0102177D01*
X0107199Y0102043D01*
X0107145Y0101910D01*
X0107087Y0101779D01*
X0107025Y0101650D01*
X0106960Y0101522D01*
X0106892Y0101396D01*
X0106820Y0101272D01*
X0106745Y0101150D01*
X0106666Y0101030D01*
X0106584Y0100913D01*
X0106499Y0100797D01*
X0106410Y0100685D01*
X0106319Y0100574D01*
X0106224Y0100466D01*
X0106127Y0100361D01*
X0106027Y0100259D01*
X0105924Y0100159D01*
X0105818Y0100063D01*
X0105709Y0099969D01*
X0105598Y0099878D01*
X0105485Y0099791D01*
X0105369Y0099706D01*
X0105251Y0099625D01*
X0105131Y0099547D01*
X0105008Y0099473D01*
X0104884Y0099402D01*
X0104757Y0099334D01*
X0104629Y0099270D01*
X0104499Y0099209D01*
X0104368Y0099153D01*
X0104235Y0099099D01*
X0104100Y0099050D01*
X0103964Y0099004D01*
X0103827Y0098962D01*
X0103689Y0098924D01*
X0103550Y0098889D01*
X0103410Y0098859D01*
X0103269Y0098832D01*
X0103128Y0098810D01*
X0102986Y0098791D01*
X0102843Y0098776D01*
X0102700Y0098765D01*
X0102557Y0098758D01*
X0102414Y0098755D01*
X0102271Y0098756D01*
X0102127Y0098761D01*
X0101984Y0098770D01*
X0101842Y0098783D01*
X0101699Y0098800D01*
X0101557Y0098820D01*
X0101416Y0098845D01*
X0101276Y0098874D01*
X0101136Y0098906D01*
X0100998Y0098942D01*
X0100860Y0098983D01*
X0100723Y0099026D01*
X0100588Y0099074D01*
X0100455Y0099126D01*
X0100322Y0099181D01*
X0100191Y0099239D01*
X0100062Y0099302D01*
X0099935Y0099367D01*
X0099810Y0099437D01*
X0099686Y0099510D01*
X0099565Y0099586D01*
X0099446Y0099665D01*
X0099329Y0099748D01*
X0099214Y0099834D01*
X0099102Y0099923D01*
X0098992Y0100015D01*
X0098885Y0100111D01*
X0098780Y0100209D01*
X0098679Y0100310D01*
X0098580Y0100414D01*
X0098484Y0100520D01*
X0098391Y0100629D01*
X0098301Y0100741D01*
X0098214Y0100855D01*
X0098131Y0100971D01*
X0098050Y0101090D01*
X0097973Y0101211D01*
X0097900Y0101334D01*
X0097829Y0101459D01*
X0097763Y0101585D01*
X0097700Y0101714D01*
X0097640Y0101844D01*
X0097584Y0101976D01*
X0097532Y0102110D01*
X0097483Y0102245D01*
X0097438Y0102381D01*
X0097397Y0102518D01*
X0097360Y0102656D01*
X0097326Y0102796D01*
X0097297Y0102936D01*
X0097271Y0103077D01*
X0097250Y0103219D01*
X0097232Y0103361D01*
X0097218Y0103504D01*
X0097208Y0103647D01*
X0097202Y0103790D01*
X0097200Y0103933D01*
D16*
X0094748Y0103283D02*
X0094748Y0104734D01*
X0094264Y0105218D01*
X0092329Y0105218D01*
X0091846Y0104734D01*
X0091846Y0103283D01*
X0094748Y0103283D01*
X0094748Y0102272D02*
X0094748Y0100337D01*
X0091846Y0100337D01*
X0091846Y0102272D01*
X0093297Y0101304D02*
X0093297Y0100337D01*
X0094748Y0099325D02*
X0094748Y0097390D01*
X0091846Y0097390D01*
X0092813Y0106230D02*
X0091846Y0107197D01*
X0094748Y0107197D01*
X0094748Y0106230D02*
X0094748Y0108165D01*
D17*
X0135378Y0073933D02*
X0135378Y0069933D01*
X0135378Y0073933D02*
X0139378Y0069933D01*
X0135378Y0065933D01*
X0131378Y0069933D01*
X0135378Y0073933D01*
X0098378Y0152933D02*
X0098378Y0156933D01*
X0102378Y0152933D01*
X0098378Y0148933D01*
X0094378Y0152933D01*
X0098378Y0156933D01*
M02*
